# Blender 3.6.4
# www.blender.org
mtllib akm_mag.mtl
o Magazine
v -0.030000 0.060000 -0.160000
v -0.030000 0.120000 -0.160000
v 0.030000 0.060000 -0.160000
v 0.030000 0.120000 -0.160000
v -0.030000 0.060000 0.040000
v -0.030000 0.120000 0.040000
v 0.030000 0.060000 0.040000
v 0.030000 0.120000 0.040000
v 0.030000 -0.070000 -0.120000
v -0.030000 -0.070000 -0.120000
v 0.030000 -0.040000 0.080000
v -0.030000 -0.040000 0.080000
v 0.030000 -0.240000 -0.010000
v -0.030000 -0.240000 -0.010000
v 0.030000 -0.150000 0.160000
v -0.030000 -0.150000 0.160000
v 0.030000 -0.360000 0.140000
v -0.030000 -0.360000 0.140000
v 0.030000 -0.210000 0.240000
v -0.030000 -0.210000 0.240000
vn -0.0000 -0.0000 -1.0000
vn 1.0000 -0.0000 -0.0000
vn -0.0000 -0.0000 1.0000
vn -1.0000 -0.0000 -0.0000
vn -0.0000 1.0000 -0.0000
vn -0.0000 0.5882 0.8087
vn -0.0000 -0.2941 -0.9558
vn -0.0000 0.3714 0.9285
vn -0.0000 -0.5433 -0.8396
vn -0.0000 -0.5547 0.8321
vn -0.0000 0.8000 0.6000
vn -0.0000 -0.7809 -0.6247
vt 0.584661 0.939341
vt 0.584661 1.000000
vt 0.461764 1.000000
vt 0.461764 0.939341
vt 0.317119 0.561196
vt 0.339372 0.500000
vt 0.461764 0.502782
vt 0.439511 0.563978
vt 0.707558 0.931010
vt 0.707558 0.992128
vt 0.584661 0.992128
vt 0.584661 0.931010
vt 0.271129 0.929764
vt 0.293382 0.990960
vt 0.170990 0.993742
vt 0.148737 0.932545
vt 0.125000 0.799397
vt 0.258519 0.827214
vt 0.953353 0.500000
vt 0.953353 0.530724
vt 0.707559 0.530724
vt 0.707559 0.500000
vt 0.707558 0.827874
vt 0.584661 0.827874
vt 0.584661 0.713279
vt 0.707559 0.713279
vt 0.426901 0.666528
vt 0.293382 0.694344
vt 0.461764 0.805950
vt 0.584661 0.805950
vt 0.266678 0.713908
vt 0.129265 0.624479
vt 0.176553 0.500000
vt 0.293382 0.651600
vt 0.461764 0.628683
vt 0.584661 0.628683
vt 0.435060 0.779833
vt 0.297647 0.869263
vt 0.707559 0.649617
vt 0.584661 0.649617
vt 0.584662 0.500000
vt 0.461764 0.842142
vt 0.344935 0.993742
vt 0.461764 0.500000
vt 0.584661 0.500000
s 0
usemtl Material
f 1/1/1 2/2/1 4/3/1 3/4/1
f 3/5/2 4/6/2 8/7/2 7/8/2
f 7/9/3 8/10/3 6/11/3 5/12/3
f 5/13/4 6/14/4 2/15/4 1/16/4
f 5/13/4 1/16/4 10/17/4 12/18/4
f 8/19/5 4/20/5 2/21/5 6/22/5
f 11/23/6 12/24/6 16/25/6 15/26/6
f 3/5/2 7/8/2 11/27/2 9/28/2
f 1/1/7 3/4/7 9/29/7 10/30/7
f 7/9/8 5/12/8 12/24/8 11/23/8
f 16/31/4 14/32/4 18/33/4 20/34/4
f 10/30/9 9/29/9 13/35/9 14/36/9
f 12/18/4 10/17/4 14/32/4 16/31/4
f 9/28/2 11/27/2 15/37/2 13/38/2
f 17/22/10 19/39/10 20/40/10 18/41/10
f 13/38/2 15/37/2 19/42/2 17/43/2
f 15/26/11 16/25/11 20/40/11 19/39/11
f 14/36/12 13/35/12 17/44/12 18/45/12
