# Blender 4.0.2
# www.blender.org
mtllib key.mtl
o Key
v -0.160000 0.040000 -0.062500
v -0.160000 0.040000 0.062500
v -0.070000 0.130000 0.062500
v -0.070000 0.130000 -0.062500
v 0.659526 -0.787140 0.000000
v 0.750000 -0.690000 -0.062500
v 0.750000 -0.690000 0.062500
v -0.281421 -0.051421 0.000000
v 0.557500 -0.677500 -0.062500
v 0.455000 -0.575000 -0.062500
v 0.352500 -0.472500 -0.062500
v 0.250000 -0.370000 -0.062500
v 0.147500 -0.267500 -0.062500
v 0.045000 -0.165000 -0.062500
v -0.057500 -0.062500 -0.062500
v 0.032500 0.027500 -0.062500
v 0.135000 -0.075000 -0.062500
v 0.237500 -0.177500 -0.062500
v 0.340000 -0.280000 -0.062500
v 0.442500 -0.382500 -0.062500
v 0.545000 -0.485000 -0.062500
v 0.647500 -0.587500 -0.062500
v -0.057500 -0.062500 0.062500
v 0.045000 -0.165000 0.062500
v 0.147500 -0.267500 0.062500
v 0.250000 -0.370000 0.062500
v 0.352500 -0.472500 0.062500
v 0.455000 -0.575000 0.062500
v 0.557500 -0.677500 0.062500
v 0.647500 -0.587500 0.062500
v 0.545000 -0.485000 0.062500
v 0.442500 -0.382500 0.062500
v 0.340000 -0.280000 0.062500
v 0.237500 -0.177500 0.062500
v 0.135000 -0.075000 0.062500
v 0.032500 0.027500 0.062500
v 0.436079 -0.768921 0.000000
v 0.433579 -0.626421 0.000000
v 0.231079 -0.563921 0.000000
v 0.218579 -0.401421 0.000000
v 0.026079 -0.358921 0.000000
v -0.006421 -0.196421 0.000000
v -0.178921 -0.153921 0.000000
v -0.857433 0.316823 -0.062500
v -0.880977 0.302323 -0.037500
v -0.823807 0.013925 -0.062500
v -0.848267 0.007677 -0.037500
v -0.823807 0.013925 0.062500
v -0.848267 0.007677 0.037500
v -0.857433 0.316823 0.062500
v -0.880977 0.302323 0.037500
v -0.215954 0.717453 -0.062500
v -0.222710 0.744645 -0.037500
v -0.215954 0.717453 0.062500
v -0.222710 0.744645 0.037500
v -0.412674 0.717728 0.062500
v -0.422710 0.744645 0.037500
v -0.412674 0.717728 -0.062500
v -0.422710 0.744645 -0.037500
v -0.000866 0.251161 0.037500
v -0.025517 0.207959 0.062500
v -0.028540 0.581277 0.062500
v -0.003576 0.585807 0.037500
v -0.028540 0.581277 -0.062500
v -0.003576 0.585807 -0.037500
v -0.025517 0.207959 -0.062500
v -0.000866 0.251161 -0.037500
v -0.730471 0.582653 0.062500
v -0.731843 0.613484 0.037500
v -0.699134 -0.121161 0.037500
v -0.700391 -0.092923 0.062500
v -0.731843 0.613484 -0.037500
v -0.730471 0.582653 -0.062500
v -0.699134 -0.121161 -0.037500
v -0.700391 -0.092923 -0.062500
v -0.323799 -0.092479 0.062500
v -0.314567 -0.120581 0.037500
v -0.257230 -0.062569 0.062500
v -0.577276 0.679065 0.037500
v -0.568299 0.651738 0.062500
v -0.577276 0.679065 -0.037500
v -0.568299 0.651738 -0.062500
v -0.314567 -0.120581 -0.037500
v -0.323799 -0.092479 -0.062500
v -0.257230 -0.062569 -0.062500
v -0.335000 0.585000 0.037500
v -0.324185 0.610817 0.062500
v -0.384384 0.609183 0.037500
v -0.380504 0.631440 0.062500
v -0.282740 0.498325 0.062500
v -0.310000 0.500000 0.037500
v -0.322473 0.475788 0.037500
v -0.310665 0.444118 0.062500
v -0.324185 0.610817 -0.062500
v -0.335000 0.585000 -0.037500
v -0.380504 0.631440 -0.062500
v -0.384384 0.609183 -0.037500
v -0.322473 0.475788 -0.037500
v -0.310665 0.444118 -0.062500
v -0.282740 0.498325 -0.062500
v -0.310000 0.500000 -0.037500
v -0.454218 0.304494 -0.037500
v -0.446316 0.280442 -0.062500
v -0.560000 0.250000 -0.037500
v -0.557082 0.223381 -0.062500
v -0.540850 0.568189 -0.037500
v -0.548813 0.592428 -0.062500
v -0.613371 0.552868 -0.062500
v -0.595000 0.535000 -0.037500
v -0.717398 0.383139 -0.062500
v -0.690000 0.380000 -0.037500
v -0.674441 0.254265 -0.062500
v -0.655000 0.275000 -0.037500
v -0.613371 0.552868 0.062500
v -0.595000 0.535000 0.037500
v -0.446316 0.280442 0.062500
v -0.454218 0.304494 0.037500
v -0.540850 0.568189 0.037500
v -0.548813 0.592428 0.062500
v -0.674441 0.254265 0.062500
v -0.655000 0.275000 0.037500
v -0.717398 0.383139 0.062500
v -0.690000 0.380000 0.037500
v -0.557082 0.223381 0.062500
v -0.560000 0.250000 0.037500
v -0.482088 0.627303 0.062500
v -0.480000 0.600000 0.037500
v -0.395000 0.335000 0.037500
v -0.376439 0.316439 0.062500
v -0.482088 0.627303 -0.062500
v -0.480000 0.600000 -0.037500
v -0.376439 0.316439 -0.062500
v -0.395000 0.335000 -0.037500
v -0.771501 0.331196 -0.062500
v -0.771501 0.331196 0.062500
vn -0.6537 -0.7567 -0.0000
vn -0.9018 0.4322 -0.0000
vn 0.5869 0.8097 -0.0000
vn -0.0000 1.0000 -0.0000
vn -0.0000 -0.0000 1.0000
vn -0.0000 -0.0000 -1.0000
vn -0.0195 -0.2998 -0.9538
vn 0.7318 -0.6816 -0.0000
vn -0.2712 -0.2712 0.9235
vn 0.7071 0.7071 -0.0000
vn -0.9939 -0.1103 -0.0000
vn -0.3906 0.9206 -0.0000
vn 1.0000 0.0081 -0.0000
vn 0.7212 -0.6927 -0.0000
vn 0.0015 -1.0000 -0.0000
vn 0.0956 -0.9954 -0.0000
vn 0.8686 -0.4956 -0.0000
vn -0.0428 -0.5245 -0.8503
vn -0.6015 0.7989 -0.0000
vn -0.2712 -0.2712 -0.9235
vn -0.2570 -0.4875 -0.8345
vn -0.4561 -0.2324 -0.8590
vn -0.2538 -0.5164 -0.8179
vn -0.5058 -0.2195 -0.8342
vn -0.2581 -0.4771 -0.8401
vn -0.5097 -0.2185 -0.8321
vn -0.0428 -0.5245 0.8503
vn -0.5097 -0.2185 0.8321
vn -0.2581 -0.4771 0.8401
vn -0.5058 -0.2195 0.8342
vn -0.2538 -0.5164 0.8179
vn -0.4561 -0.2324 0.8590
vn -0.2570 -0.4875 0.8345
vn -0.0195 -0.2998 0.9538
vn -0.4398 -0.8981 -0.0000
vn -0.9594 -0.2822 -0.0000
vn -0.4580 0.8890 -0.0000
vn 0.9487 0.3162 -0.0000
vn -0.8890 0.4580 -0.0000
vn 0.4921 -0.8706 -0.0000
vn 0.8526 -0.5226 -0.0000
vn 0.2545 0.9671 -0.0000
vn 0.2654 -0.5907 0.7620
vn 0.2654 -0.5907 -0.7620
vn -0.7028 -0.0780 -0.7071
vn 0.4750 0.6545 -0.5882
vn -0.5045 -0.5834 0.6365
vn -0.7767 0.3717 -0.5085
vn 0.0009 -0.6637 0.7480
vn -0.2566 0.6049 0.7538
vn 0.0009 -0.6637 -0.7480
vn 0.1800 0.6838 0.7071
vn -0.7028 -0.0780 0.7071
vn 0.0005 0.6787 -0.7344
vn 0.6029 -0.3695 -0.7071
vn 0.1800 0.6838 -0.7071
vn 0.6708 0.2236 0.7071
vn -0.3238 0.6286 0.7071
vn 0.0480 -0.7103 0.7023
vn -0.6286 0.3238 0.7071
vn 0.0480 -0.7103 -0.7023
vn -0.2760 -0.6511 -0.7071
vn -0.7130 -0.2399 -0.6588
vn -0.6286 0.3238 -0.7071
vn 0.0005 0.6787 0.7344
vn 0.7071 0.0057 0.7071
vn -0.7767 0.3717 0.5085
vn -0.2566 0.6034 0.7550
vn -0.2566 0.6034 -0.7550
vn -0.2760 -0.6511 0.7071
vn -0.7130 -0.2399 0.6588
vn -0.3238 0.6286 -0.7071
vn 0.3707 -0.6049 -0.7047
vn 0.6708 0.2236 -0.7071
vn 0.3707 -0.6049 0.7047
vn 0.6029 -0.3695 0.7071
vn 0.3265 -0.6246 0.7095
vn 0.3265 -0.6246 -0.7095
vn -0.5045 -0.5834 -0.6365
vn 0.4750 0.6545 0.5882
vn -0.2566 0.6049 -0.7538
vn 0.7071 0.0057 -0.7071
vt 0.838228 0.612060
vt 0.815018 0.612060
vt 0.815018 0.551386
vt 0.838228 0.551386
vt 0.047750 0.803457
vt 0.070961 0.803457
vt 0.070961 0.909648
vt 0.047750 0.909648
vt 0.166461 0.765301
vt 0.189671 0.765301
vt 0.189671 0.848711
vt 0.166461 0.848711
vt 0.189671 0.718701
vt 0.166461 0.718701
vt 0.045301 0.162364
vt 0.179416 0.292168
vt 0.151835 0.292071
vt 0.052861 0.233652
vt 0.132617 0.179136
vt 0.217176 0.281913
vt 0.587852 0.292168
vt 0.721966 0.162364
vt 0.714406 0.233652
vt 0.615432 0.292071
vt 0.468900 0.585106
vt 0.506661 0.595361
vt 0.495062 0.638674
vt 0.453027 0.629385
vt 0.431143 0.959987
vt 0.396146 0.931071
vt 0.431143 0.914589
vt 0.228775 0.325226
vt 0.191014 0.335481
vt 0.262429 0.263440
vt 0.274028 0.306753
vt 0.807281 0.084773
vt 0.807281 0.040013
vt 0.845965 0.040013
vt 0.845965 0.084773
vt 0.815018 0.478116
vt 0.838228 0.478116
vt 0.212319 0.078636
vt 0.160032 0.045143
vt 0.250291 0.052105
vt 0.229165 0.147096
vt 0.277558 0.258416
vt 0.196996 0.168004
vt 0.550091 0.281913
vt 0.634650 0.179136
vt 0.047750 0.718701
vt 0.070961 0.718701
vt 0.070961 0.761079
vt 0.047750 0.761079
vt 0.308382 0.795504
vt 0.285172 0.795504
vt 0.285172 0.718701
vt 0.308382 0.718701
vt 0.617242 0.081152
vt 0.607235 0.045143
vt 0.650482 0.077986
vt 0.637669 0.092365
vt 0.602620 0.718701
vt 0.641304 0.718701
vt 0.641304 0.762417
vt 0.633567 0.787625
vt 0.610357 0.787625
vt 0.602620 0.762417
vt 0.838228 0.693605
vt 0.815018 0.693605
vt 0.075366 0.109550
vt 0.116786 0.077986
vt 0.129598 0.092365
vt 0.110086 0.104883
vt 0.093421 0.131495
vt 0.691901 0.109550
vt 0.673846 0.131495
vt 0.657181 0.104883
vt 0.507875 0.271658
vt 0.489709 0.258416
vt 0.570271 0.168004
vt 0.590565 0.181194
vt 0.419356 0.718701
vt 0.419356 0.740497
vt 0.396146 0.740497
vt 0.396146 0.718701
vt 0.316119 0.837738
vt 0.277435 0.837738
vt 0.277435 0.810563
vt 0.316119 0.810563
vt 0.176703 0.181194
vt 0.423647 0.566633
vt 0.602620 0.867652
vt 0.638008 0.883278
vt 0.602620 0.915535
vt 0.538492 0.325226
vt 0.493239 0.306753
vt 0.504838 0.263440
vt 0.526894 0.368540
vt 0.508347 0.359585
vt 0.515295 0.411853
vt 0.470042 0.393379
vt 0.503696 0.455166
vt 0.488213 0.451577
vt 0.492098 0.498480
vt 0.446844 0.480006
vt 0.480499 0.541793
vt 0.461221 0.543972
vt 0.807281 0.398089
vt 0.807281 0.353330
vt 0.845965 0.353330
vt 0.845965 0.398089
vt 0.807281 0.308570
vt 0.845965 0.308570
vt 0.807281 0.263811
vt 0.845965 0.263811
vt 0.807281 0.219051
vt 0.845965 0.219051
vt 0.807281 0.174292
vt 0.845965 0.174292
vt 0.807281 0.129532
vt 0.845965 0.129532
vt 0.314240 0.629385
vt 0.298367 0.585106
vt 0.343620 0.566633
vt 0.286769 0.541793
vt 0.306047 0.543972
vt 0.275170 0.498480
vt 0.320423 0.480006
vt 0.263571 0.455166
vt 0.279054 0.451577
vt 0.251972 0.411853
vt 0.297226 0.393380
vt 0.240374 0.368540
vt 0.258921 0.359585
vt 0.272205 0.638674
vt 0.260607 0.595361
vt 0.249008 0.552048
vt 0.237409 0.508735
vt 0.225810 0.465421
vt 0.214212 0.422108
vt 0.202613 0.378795
vt 0.576253 0.335481
vt 0.564655 0.378795
vt 0.553056 0.422108
vt 0.541457 0.465421
vt 0.529858 0.508734
vt 0.518260 0.552048
vt 0.925992 0.055945
vt 0.925992 0.040013
vt 0.949202 0.040013
vt 0.949202 0.055945
vt 0.949202 0.080388
vt 0.925992 0.080388
vt 0.499383 0.793626
vt 0.499383 0.775972
vt 0.522593 0.775972
vt 0.522593 0.793626
vt 0.522593 0.825161
vt 0.499383 0.825161
vt 0.838228 0.803173
vt 0.815018 0.803173
vt 0.815018 0.773631
vt 0.838228 0.773631
vt 0.499383 0.727105
vt 0.499383 0.718701
vt 0.522593 0.718701
vt 0.522593 0.727105
vt 0.396146 0.779184
vt 0.396146 0.760371
vt 0.419356 0.760371
vt 0.419356 0.779184
vt 0.419356 0.834562
vt 0.396146 0.834562
vt 0.838228 0.830400
vt 0.815018 0.830400
vt 0.284549 0.265226
vt 0.259393 0.271658
vt 0.482719 0.265226
vt 0.516977 0.052105
vt 0.441448 0.107867
vt 0.435117 0.102266
vt 0.508588 0.048023
vt 0.158724 0.843817
vt 0.158724 0.772413
vt 0.807281 0.605437
vt 0.807281 0.555174
vt 0.078697 0.811356
vt 0.078697 0.902005
vt 0.343620 0.162153
vt 0.335372 0.157462
vt 0.070654 0.102700
vt 0.111802 0.071357
vt 0.431896 0.157462
vt 0.423647 0.162153
vt 0.845965 0.802867
vt 0.845965 0.836501
vt 0.325819 0.107867
vt 0.258680 0.048024
vt 0.332151 0.102266
vt 0.696614 0.102700
vt 0.727254 0.156352
vt 0.614377 0.088833
vt 0.558536 0.087268
vt 0.556095 0.079437
vt 0.807281 0.836501
vt 0.807281 0.802867
vt 0.231337 0.112859
vt 0.208731 0.087268
vt 0.211173 0.079437
vt 0.238918 0.110848
vt 0.192720 0.162169
vt 0.223442 0.142202
vt 0.117959 0.109653
vt 0.100864 0.133885
vt 0.126911 0.171078
vt 0.175522 0.173347
vt 0.666403 0.133885
vt 0.649309 0.109653
vt 0.667528 0.150864
vt 0.676981 0.149785
vt 0.653367 0.178262
vt 0.648717 0.170687
vt 0.591745 0.173347
vt 0.640357 0.171078
vt 0.040013 0.156352
vt 0.137471 0.292013
vt 0.048750 0.239646
vt 0.040013 0.902005
vt 0.040013 0.811356
vt 0.152951 0.040013
vt 0.614317 0.040013
vt 0.655465 0.071357
vt 0.090286 0.149785
vt 0.099740 0.150864
vt 0.118551 0.170687
vt 0.113900 0.178262
vt 0.538103 0.147096
vt 0.543826 0.142202
vt 0.574547 0.162169
vt 0.631513 0.098238
vt 0.535931 0.112859
vt 0.528349 0.110848
vt 0.152891 0.088833
vt 0.135755 0.098238
vt 0.150026 0.081152
vt 0.845965 0.555174
vt 0.845965 0.605437
vt 0.197408 0.772413
vt 0.197408 0.843817
vt 0.718518 0.239646
vt 0.629796 0.292013
vt 0.554949 0.078636
s 0
usemtl Material
f 74/1/1 70/2/1 49/3/1 47/4/1
f 69/5/2 72/6/2 45/7/2 51/8/2
f 53/9/3 55/10/3 63/11/3 65/12/3
f 57/13/4 55/10/4 53/9/4 59/14/4
f 54/15/5 3/16/5 61/17/5 62/18/5
f 93/19/5 2/20/5 3/16/5
f 4/21/6 52/22/6 64/23/6 66/24/6
f 9/25/7 22/26/7 6/27/7 5/28/7
f 5/29/8 6/30/8 7/31/8
f 23/32/5 36/33/5 3/16/5 2/20/5
f 23/32/9 2/20/9 8/34/9 43/35/9
f 16/36/10 4/37/10 3/38/10 36/39/10
f 47/4/11 49/3/11 51/40/11 45/41/11
f 135/42/5 68/43/5 50/44/5
f 124/45/5 76/46/5 116/47/5
f 4/21/6 1/48/6 99/49/6
f 57/50/12 59/51/12 81/52/12 79/53/12
f 60/54/13 67/55/13 65/56/13 63/57/13
f 108/58/6 73/59/6 82/60/6 107/61/6
f 1/62/14 2/63/14 78/64/14 77/65/14 83/66/14 85/67/14
f 79/53/12 81/52/12 72/6/12 69/5/12
f 83/68/15 77/69/15 70/2/15 74/1/15
f 56/70/5 80/71/5 119/72/5 126/73/5 89/74/5
f 82/60/6 58/75/6 96/76/6 130/77/6 107/61/6
f 85/78/6 84/79/6 103/80/6 132/81/6
f 3/86/17 4/87/17 66/88/17 67/55/17 60/54/17 61/89/17
f 129/90/5 2/20/5 93/19/5
f 9/25/18 5/28/18 37/91/18
f 2/92/19 1/93/19 8/94/19
f 1/48/20 15/95/20 43/96/20 8/97/20
f 15/95/21 14/98/21 42/99/21 43/96/21
f 14/98/22 13/100/22 41/101/22 42/99/22
f 13/100/23 12/102/23 40/103/23 41/101/23
f 12/102/24 11/104/24 39/105/24 40/103/24
f 11/104/25 10/106/25 38/107/25 39/105/25
f 10/106/26 9/25/26 37/91/26 38/107/26
f 6/108/10 22/109/10 30/110/10 7/111/10
f 22/109/10 21/112/10 31/113/10 30/110/10
f 21/112/10 20/114/10 32/115/10 31/113/10
f 20/114/10 19/116/10 33/117/10 32/115/10
f 19/116/10 18/118/10 34/119/10 33/117/10
f 18/118/10 17/120/10 35/121/10 34/119/10
f 17/120/10 16/36/10 36/39/10 35/121/10
f 5/122/27 29/123/27 37/124/27
f 29/123/28 28/125/28 38/126/28 37/124/28
f 28/125/29 27/127/29 39/128/29 38/126/29
f 27/127/30 26/129/30 40/130/30 39/128/30
f 26/129/31 25/131/31 41/132/31 40/130/31
f 25/131/32 24/133/32 42/134/32 41/132/32
f 24/133/33 23/32/33 43/35/33 42/134/33
f 5/122/34 7/135/34 30/136/34 29/123/34
f 29/123/5 30/136/5 31/137/5 28/125/5
f 28/125/5 31/137/5 32/138/5 27/127/5
f 27/127/5 32/138/5 33/139/5 26/129/5
f 26/129/5 33/139/5 34/140/5 25/131/5
f 25/131/5 34/140/5 35/141/5 24/133/5
f 24/133/5 35/141/5 36/33/5 23/32/5
f 1/48/6 4/21/6 16/142/6 15/95/6
f 15/95/6 16/142/6 17/143/6 14/98/6
f 14/98/6 17/143/6 18/144/6 13/100/6
f 13/100/6 18/144/6 19/145/6 12/102/6
f 12/102/6 19/145/6 20/146/6 11/104/6
f 11/104/6 20/146/6 21/147/6 10/106/6
f 10/106/6 21/147/6 22/26/6 9/25/6
f 76/46/43 77/176/43 78/177/43
f 83/178/44 84/79/44 85/78/44
f 44/179/45 46/180/45 47/181/45 45/182/45
f 53/9/46 65/12/46 64/183/46 52/184/46
f 49/3/47 70/2/47 71/185/47 48/186/47
f 45/7/48 72/6/48 73/187/48 44/188/48
f 70/189/49 77/176/49 76/46/49 71/190/49
f 57/191/50 79/192/50 80/71/50 56/70/50
f 75/193/51 84/79/51 83/178/51 74/194/51
f 120/195/52 124/196/52 125/174/52 121/160/52
f 48/197/53 50/44/53 51/198/53 49/199/53
f 52/22/54 58/75/54 59/200/54 53/201/54
f 109/202/55 111/203/55 110/204/55 108/58/55
f 105/205/56 112/206/56 113/161/56 104/175/56
f 121/207/57 123/208/57 122/209/57 120/210/57
f 117/211/58 125/212/58 124/45/58 116/47/58
f 89/74/59 126/73/59 127/213/59 88/214/59
f 92/215/60 128/216/60 129/90/60 93/19/60
f 97/217/61 131/218/61 130/77/61 96/76/61
f 95/219/62 97/217/62 96/76/62 94/220/62
f 94/220/63 100/221/63 101/222/63 95/219/63
f 116/47/58 129/90/58 128/216/58 117/211/58
f 99/49/64 132/81/64 133/223/64 98/224/64
f 55/225/65 57/191/65 56/70/65 54/15/65
f 60/226/66 63/227/66 62/18/66 61/17/66
f 50/228/67 68/229/67 69/5/67 51/8/67
f 68/43/68 80/71/68 79/192/68 69/230/68
f 72/231/69 81/232/69 82/60/69 73/59/69
f 87/233/70 89/74/70 88/214/70 86/234/70
f 86/234/71 91/235/71 90/236/71 87/233/71
f 91/235/60 92/215/60 93/19/60 90/236/60
f 98/224/64 101/222/64 100/221/64 99/49/64
f 103/80/72 105/237/72 104/238/72 102/239/72
f 106/240/73 109/202/73 108/58/73 107/61/73
f 111/203/74 113/241/74 112/242/74 110/204/74
f 115/243/75 118/244/75 119/72/75 114/245/75
f 114/245/76 122/209/76 123/208/76 115/243/76
f 118/244/77 127/213/77 126/73/77 119/72/77
f 107/61/78 130/77/78 131/218/78 106/240/78
f 102/239/72 133/223/72 132/81/72 103/80/72
f 46/246/79 75/247/79 74/1/79 47/4/79
f 54/248/80 62/249/80 63/11/80 55/10/80
f 58/75/81 82/60/81 81/232/81 59/200/81
f 65/250/82 67/251/82 66/24/82 64/23/82
f 134/252/6 75/193/6 46/180/6 44/179/6
f 122/209/5 135/42/5 71/190/5 120/210/5
f 71/190/5 76/46/5 124/45/5
f 75/193/6 112/242/6 105/237/6
f 103/80/6 84/79/6 105/237/6
f 84/79/6 75/193/6 105/237/6
f 112/242/6 75/193/6 134/252/6 110/204/6
f 73/59/6 134/252/6 44/179/6
f 68/43/5 135/42/5 122/209/5 114/245/5
f 71/190/5 135/42/5 50/44/5 48/197/5
f 80/71/5 68/43/5 114/245/5 119/72/5
f 110/204/6 134/252/6 73/59/6 108/58/6
f 120/210/5 71/190/5 124/45/5
f 78/177/5 2/20/5 129/90/5
f 87/233/5 90/236/5 3/16/5 54/15/5
f 89/74/5 87/233/5 54/15/5 56/70/5
f 90/236/5 93/19/5 3/16/5
f 76/46/5 78/177/5 129/90/5 116/47/5
f 1/48/6 85/78/6 132/81/6
f 58/75/6 52/22/6 94/220/6 96/76/6
f 52/22/6 4/21/6 100/221/6 94/220/6
f 100/221/6 4/21/6 99/49/6
f 99/49/6 1/48/6 132/81/6
usemtl 
f 88/82/16 127/83/16 131/84/16 97/85/16
f 86/148/35 88/149/35 97/150/35 95/151/35
f 101/152/36 91/153/36 86/148/36 95/151/36
f 117/154/37 128/155/37 133/156/37 102/157/37 104/158/37 125/159/37
f 121/160/38 113/161/38 111/162/38 123/163/38
f 92/164/39 91/165/39 101/166/39 98/167/39 133/156/39 128/155/39
f 109/168/40 106/169/40 131/84/40 127/83/40 118/170/40 115/171/40
f 123/172/41 111/173/41 109/168/41 115/171/41
f 125/174/42 104/175/42 113/161/42 121/160/42
