# Blender 3.6.5
# www.blender.org
mtllib octagon_quad.mtl
o Plane
v 0.000000 -0.500000 0.000000
v -0.500000 0.000000 0.000000
v -0.353553 -0.353553 0.000000
v 0.500000 0.000000 0.000000
v 0.000000 -0.500000 0.000000
v 0.353553 -0.353553 0.000000
v 0.000000 0.500000 -0.000000
v -0.500000 0.000000 0.000000
v -0.353553 0.353553 -0.000000
v 0.000000 0.500000 -0.000000
v 0.500000 0.000000 0.000000
v 0.353553 0.353553 -0.000000
vn -0.0000 -0.0000 1.0000
vt 0.000000 0.500000
vt 0.146447 0.146447
vt 0.500000 0.000000
vt 0.853553 0.146447
vt 1.000000 0.500000
vt 0.853553 0.853553
vt 0.500000 1.000000
vt 0.146447 0.853553
s 0
f 2/1/1 3/2/1 1/3/1 5/3/1 6/4/1 4/5/1 11/5/1 12/6/1 10/7/1 7/7/1 9/8/1 8/1/1
