# Blender 3.6.2
# www.blender.org
mtllib akm.mtl
o AK-47
v -0.040000 -0.110000 -1.160000
v 0.030000 0.230000 0.580000
v -0.030000 0.080000 -0.535000
v 0.025000 0.300000 0.580000
v -0.040000 0.150000 -1.200000
v 0.025000 0.300000 0.820000
v 0.030000 0.230000 1.180000
v 0.040000 -0.110000 -1.160000
v 0.015000 0.204019 0.580000
v 0.012500 0.278349 0.580000
v 0.030000 0.080000 -0.535000
v 0.040000 0.150000 -1.200000
v 0.015000 0.204019 1.180000
v -0.040000 0.120000 0.220000
v -0.015000 0.204019 0.580000
v -0.012500 0.278349 0.580000
v -0.030000 0.060000 -0.345000
v -0.030000 0.120000 -0.345000
v -0.040000 0.150000 0.310000
v -0.015000 0.204019 1.180000
v 0.040000 0.120000 0.220000
v -0.030000 0.230000 0.580000
v -0.025000 0.300000 0.580000
v 0.030000 0.060000 -0.345000
v -0.025000 0.300000 0.820000
v -0.030000 0.230000 1.180000
v 0.040000 0.150000 0.310000
v 0.030000 0.120000 -0.345000
v -0.012500 0.321651 0.580000
v 0.040000 0.120000 -0.480000
v -0.015000 0.255981 0.580000
v 0.030000 0.040000 -0.515000
v 0.040000 0.320000 -0.480000
v -0.015000 0.255981 1.180000
v -0.012500 0.321651 0.800000
v -0.030000 0.040000 -0.515000
v 0.030000 0.030000 -0.385000
v 0.015000 0.255981 0.580000
v 0.012500 0.321651 0.580000
v -0.040000 0.120000 -0.480000
v 0.012500 0.321651 0.800000
v -0.030000 0.030000 -0.385000
v -0.040000 0.320000 -0.480000
v 0.015000 0.255981 1.180000
v 0.030000 -0.120000 -0.565000
v 0.025000 0.300000 0.796000
v 0.040000 0.320000 0.098000
v -0.030000 -0.120000 -0.565000
v 0.012500 0.278349 0.780000
v -0.040000 0.120000 0.098000
v 0.040000 0.120000 0.098000
v 0.030000 -0.180000 -0.455000
v -0.012500 0.278349 0.780000
v -0.040000 0.320000 0.098000
v -0.030000 -0.180000 -0.455000
v -0.025000 0.300000 0.780000
v 0.030000 0.070000 -0.440000
v -0.012500 0.321651 0.780000
v 0.020000 0.350000 0.098000
v 0.030000 0.120000 -0.440000
v 0.012500 0.321651 0.778000
v 0.020000 0.350000 0.310000
v -0.030000 0.070000 -0.440000
v 0.025000 0.300000 0.808000
v -0.020000 0.350000 0.310000
v -0.030000 0.120000 -0.440000
v -0.020000 0.350000 0.098000
v 0.030000 0.035000 -0.450000
v 0.040000 0.150000 0.580000
v -0.030000 0.035000 -0.450000
v -0.040000 0.150000 0.580000
v -0.025000 0.300000 0.808000
v 0.030000 -0.170000 -0.530000
v 0.020000 0.350000 0.560000
v -0.012500 0.321651 0.789000
v 0.012500 0.321651 0.789000
v -0.020000 0.350000 0.560000
v -0.030000 -0.170000 -0.530000
v 0.040000 0.320000 0.310000
v -0.040000 0.320000 0.310000
v 0.040000 0.320000 0.580000
v -0.040000 0.320000 0.580000
v -0.029462 0.230931 0.780234
v -0.029027 0.231686 0.780000
v -0.029462 0.230931 0.935031
v -0.029358 0.231112 0.934864
v -0.030000 0.120000 -0.480000
v -0.030000 0.101397 -0.535000
v 0.030000 0.101397 -0.535000
v 0.030000 0.120000 -0.480000
v -0.015000 0.255981 0.894951
v -0.015000 0.255981 0.780000
v -0.009444 0.255981 0.893312
v 0.015000 0.255981 0.893312
v 0.015000 0.255981 0.780000
v 0.029027 0.231686 0.780000
v 0.029462 0.230931 0.780134
v 0.029462 0.230931 0.935031
v 0.029462 0.230931 0.780234
vn -0.0000 -0.1521 -0.9884
vn 1.0000 -0.0000 -0.0000
vn -0.0000 -0.9487 0.3162
vn -1.0000 -0.0000 -0.0000
vn -0.0000 -1.0000 -0.0000
vn -0.0000 0.9732 -0.2298
vn -0.0000 1.0000 -0.0000
vn -0.0000 -0.9473 0.3204
vn -0.0000 -0.9191 0.3939
vn 0.8321 0.5547 -0.0000
vn -0.0000 -0.0000 -1.0000
vn -0.8321 0.5547 -0.0000
vn -0.0000 0.5547 0.8321
vn -0.0000 -0.0000 1.0000
vn -0.0000 -0.8000 0.6000
vn -0.0000 -0.3162 0.9487
vn -0.0000 -0.4472 -0.8944
vn -0.0000 -0.9912 -0.1322
vn -0.0000 0.2983 -0.9545
vn -0.0000 -0.5735 -0.8192
vn 0.8660 -0.5000 -0.0000
vn -0.8660 -0.5000 -0.0000
vn -0.8660 0.5000 -0.0000
vn 0.8660 0.5000 -0.0000
vn 0.9979 0.0645 -0.0000
vn -0.9979 0.0645 -0.0000
vn -0.0035 0.8314 0.5556
vn -0.7799 0.2762 -0.5617
vn 0.8435 0.1714 -0.5091
vt 0.531647 0.244164
vt 0.531647 0.375959
vt 0.328922 0.375957
vt 0.328922 0.244163
vt 0.799948 0.474227
vt 0.799993 0.252086
vt 1.390440 0.441054
vt 1.386608 0.474312
vt 1.000000 0.678904
vt 1.000000 0.697480
vt 0.797275 0.697480
vt 0.797275 0.678904
vt 0.071444 0.144067
vt 0.071985 0.016013
vt 0.891946 0.016013
vt 0.891997 0.143798
vt 1.219570 0.505774
vt 1.167960 0.505774
vt 1.167960 0.404411
vt 1.219571 0.404411
vt 0.146469 0.244163
vt 0.328922 0.262709
vt 0.328922 0.361695
vt 0.146469 0.343149
vt 0.000000 0.744163
vt 0.146469 0.744163
vt 0.146469 0.843149
vt 0.000000 0.843149
vt 0.949302 0.233955
vt 0.949302 0.246625
vt 0.097973 0.246625
vt 0.097973 0.145263
vt 0.949302 0.145263
vt 0.949302 0.157933
vt 0.880444 0.157933
vt 0.880444 0.233955
vt 0.974659 0.641888
vt 1.000000 0.641888
vt 0.797275 0.641888
vt 0.822615 0.641888
vt 0.337503 0.620862
vt 0.339704 0.531288
vt 0.797274 0.531422
vt 0.795073 0.620996
vt 0.024518 0.156726
vt 0.024619 0.028941
vt 0.890797 0.028941
vt 0.892494 0.155042
vt -0.488227 0.224092
vt -0.484395 0.257351
vt -1.119841 0.446319
vt -1.107917 0.224177
vt 1.430021 0.016374
vt 2.074687 0.016374
vt 2.074687 0.059322
vt 1.430021 0.059322
vt 1.000000 0.672453
vt 0.797275 0.672453
vt 0.376252 0.621086
vt 0.374451 0.732157
vt -0.134452 0.731955
vt -0.132652 0.620885
vt 2.074687 0.158308
vt 1.430021 0.158308
vt 0.683691 0.446971
vt 0.683691 0.396289
vt 0.744508 0.408960
vt 0.744508 0.434301
vt 2.074688 0.214347
vt 1.430021 0.214347
vt -0.530480 0.446171
vt 0.266207 0.257163
vt 0.220121 0.445983
vt 0.797275 0.290054
vt 1.000000 0.290054
vt 0.949319 0.302813
vt 0.847956 0.302813
vt 0.669800 0.059322
vt 0.608983 0.016374
vt 0.669800 0.158308
vt 1.000000 0.711758
vt 0.797275 0.711758
vt 1.389354 0.252234
vt 2.139955 0.252422
vt 2.141042 0.441242
vt 0.693309 0.486684
vt 0.490584 0.486684
vt 0.490584 0.298501
vt 0.693309 0.298501
vt 0.608983 0.214347
vt 0.949370 0.313659
vt 0.797326 0.313657
vt 0.797330 0.302813
vt 0.949373 0.302815
vt 0.282067 0.370853
vt 0.295800 0.396188
vt 0.103239 0.396289
vt 0.086759 0.365888
vt 0.683691 0.360515
vt 0.683691 0.388149
vt 0.531647 0.388149
vt 0.531647 0.360515
vt 0.879746 0.253793
vt 0.873869 0.264634
vt 0.678561 0.269599
vt 0.692294 0.244265
vt 0.773372 0.244308
vt 0.531647 0.344583
vt 0.683691 0.344583
vt 0.182960 0.861695
vt 0.193096 0.861695
vt 0.193096 0.935935
vt 0.182960 0.935935
vt 0.531647 0.244163
vt 0.683691 0.244163
vt 0.822343 0.284881
vt 0.689217 0.287345
vt 0.159598 0.350644
vt 0.292724 0.353108
vt 0.949375 0.333944
vt 0.797332 0.333942
vt 0.949331 0.440364
vt 0.949375 0.445479
vt 0.797332 0.445476
vt 0.797288 0.440362
vt 0.949318 0.415002
vt 0.797275 0.415000
vt 0.879746 0.366006
vt 0.795069 0.391303
vt 0.243806 0.244163
vt 0.398575 0.249149
vt 0.425850 0.355571
vt 0.483252 0.274446
vt 0.556091 0.289808
vt 0.640300 0.396289
vt 0.477376 0.375818
vt 0.483253 0.274565
vt 0.217170 0.935935
vt 0.217170 0.861695
vt 0.499732 0.244163
vt 0.376879 0.396145
vt 0.483253 0.386660
vt 0.744508 0.934301
vt 0.744508 0.896289
vt 0.796162 0.896289
vt 0.796162 0.934301
vt 0.645680 0.888149
vt 0.645680 0.919877
vt 0.569658 0.919877
vt 0.569658 0.888149
vt 0.173796 0.923562
vt 0.173796 0.961573
vt 0.122142 0.961573
vt 0.122142 0.923562
vt 0.446070 0.875959
vt 0.531647 0.875959
vt 0.531647 0.913970
vt 0.446070 0.913970
vt 0.446070 0.895911
vt 0.527984 0.898440
vt 0.528580 0.898450
vt 0.528580 0.888644
vt 0.526094 0.888629
vt 0.446070 0.888629
vt 0.531647 0.931842
vt 0.683691 0.931842
vt 0.645680 0.943808
vt 0.569658 0.943808
vt 0.297590 0.913970
vt 0.297590 0.895807
vt 0.418571 0.895807
vt 0.297590 0.875959
vt 0.297590 0.888629
vt 0.234687 0.913970
vt 0.234687 0.875959
vt 0.238769 0.888629
vt 0.236942 0.888637
vt 0.236942 0.888644
vt 0.236942 0.898450
vt 0.835284 0.971813
vt 0.797274 0.958646
vt 0.835287 0.945479
vt 0.911308 0.945479
vt 0.949318 0.958646
vt 0.911306 0.971813
vt 0.423233 0.935915
vt 0.416197 0.970992
vt 0.413156 0.970992
vt 0.384006 0.935915
vt 0.783735 0.934301
vt 0.754585 0.969378
vt 0.751544 0.969378
vt 0.179919 0.861695
vt 0.182960 0.861695
vt 0.177892 0.879524
vt 0.175104 0.879524
vt 0.542955 0.952722
vt 0.574631 0.943808
vt 0.637982 0.943808
vt 0.669658 0.952722
vt 0.680966 0.978450
vt 0.680702 0.978376
vt 0.644318 0.969033
vt 0.630238 0.969119
vt 0.568296 0.969119
vt 0.531647 0.978450
vt 0.177892 0.910457
vt 0.175104 0.910457
vt 0.182960 0.923562
vt 0.179919 0.923562
vt 0.479034 0.913970
vt 0.510709 0.924942
vt 0.479032 0.935915
vt 0.415681 0.935915
vt 0.384006 0.924942
vt 0.415683 0.913970
vt 0.122142 0.910457
vt 0.172317 0.910457
vt 0.176878 0.923562
vt 0.122142 0.879524
vt 0.172823 0.879524
vt 0.122142 0.861695
vt 0.172823 0.861695
vt 0.267851 0.861695
vt 0.267851 0.872456
vt 0.217170 0.872456
vt 0.465537 0.951753
vt 0.423233 0.951753
vt 0.423233 0.935915
vt 0.465537 0.935915
vt 0.274946 0.875379
vt 0.274946 0.861695
vt 0.317991 0.862709
vt 0.317991 0.875379
vt 0.235791 0.948582
vt 0.234687 0.948964
vt 0.246015 0.913977
vt 0.277673 0.924932
vt 0.274946 0.872456
vt 0.341025 0.924932
vt 0.382902 0.948582
vt 0.347359 0.936269
vt 0.271337 0.936269
vt 0.372711 0.913970
vt 0.372718 0.913977
vt 0.384006 0.948964
vt 0.384006 0.948964
s 0
usemtl Material
f 1/1/1 5/2/1 12/3/1 8/4/1
f 51/5/2 47/6/2 27/7/2 21/8/2
f 21/9/3 27/10/3 19/11/3 14/12/3
f 40/13/4 43/14/4 5/15/4 1/16/4
f 51/17/5 21/18/5 14/19/5 50/20/5
f 33/21/6 12/22/6 5/23/6 43/24/6
f 47/25/7 33/26/7 43/27/7 54/28/7
f 87/29/8 40/30/8 1/31/8 8/32/8 30/33/8 90/34/8 89/35/8 88/36/8
f 90/37/9 30/38/9 40/39/9 87/40/9
f 50/41/4 54/42/4 43/43/4 40/44/4
f 8/45/2 12/46/2 33/47/2 30/48/2
f 14/49/4 19/50/4 54/51/4 50/52/4
f 79/53/10 47/54/10 59/55/10 62/56/10
f 30/38/5 51/57/5 50/58/5 40/39/5
f 30/59/2 33/60/2 47/61/2 51/62/2
f 62/56/7 59/55/7 67/63/7 65/64/7
f 47/65/11 54/66/11 67/67/11 59/68/11
f 54/69/12 80/70/12 65/64/12 67/63/12
f 80/71/4 19/50/4 71/72/4 82/73/4
f 82/74/13 81/75/13 74/76/13 77/77/13
f 79/53/10 62/56/10 74/78/10 81/79/10
f 62/56/7 65/64/7 77/80/7 74/78/7
f 19/11/5 27/10/5 69/81/5 71/82/5
f 27/7/2 79/83/2 81/84/2 69/85/2
f 71/86/14 69/87/14 81/88/14 82/89/14
f 65/64/12 80/70/12 82/90/12 77/80/12
f 54/51/4 19/50/4 80/71/4
f 47/6/2 79/83/2 27/7/2
f 11/91/11 3/92/11 88/93/11 89/94/11
f 57/95/2 60/96/2 28/97/2 24/98/2
f 24/99/14 28/100/14 18/101/14 17/102/14
f 88/103/4 3/104/4 63/105/4 66/106/4 87/107/4
f 24/99/15 17/102/15 42/108/15 37/109/15
f 87/110/7 66/111/7 60/112/7 90/113/7
f 37/109/16 42/108/16 55/114/16 52/115/16
f 63/105/4 3/104/4 36/116/4 70/117/4
f 57/95/2 24/98/2 37/118/2 68/119/2
f 3/92/17 11/91/17 32/120/17 36/121/17
f 73/122/18 52/123/18 55/124/18 78/125/18
f 36/121/19 32/120/19 45/126/19 48/127/19
f 70/117/4 36/116/4 48/128/4 78/129/4
f 68/119/2 37/118/2 52/130/2 73/131/2
f 32/132/2 68/119/2 73/131/2 45/133/2
f 42/134/4 70/117/4 78/129/4 55/135/4
f 45/126/20 73/122/20 78/125/20 48/127/20
f 11/136/2 57/95/2 68/119/2 32/132/2
f 17/137/4 63/105/4 70/117/4 42/134/4
f 28/138/7 60/112/7 66/111/7 18/139/7
f 17/137/4 18/140/4 66/106/4 63/105/4
f 90/141/2 60/96/2 57/95/2 11/136/2 89/142/2
f 2/143/21 7/144/21 13/145/21 9/146/21
f 9/147/5 13/148/5 20/149/5 15/150/5
f 15/151/22 20/152/22 26/153/22 22/154/22
f 31/155/23 22/156/23 26/157/23 34/158/23 91/159/23 86/160/23 85/161/23 83/162/23 84/163/23 92/164/23
f 26/165/14 20/149/14 13/148/14 7/166/14 44/167/14 34/168/14
f 91/159/7 34/158/7 44/169/7 94/170/7 93/171/7
f 38/172/7 31/155/7 92/164/7 95/173/7
f 94/170/24 44/169/24 7/174/24 2/175/24 38/172/24 95/173/24 96/176/24 97/177/24 99/178/24 98/179/24
f 38/180/11 2/181/11 9/182/11 15/183/11 22/184/11 31/185/11
f 99/186/25 64/187/25 6/188/25 98/189/25
f 85/190/26 25/191/26 72/192/26 83/143/26
f 72/193/23 25/194/23 35/195/23 75/196/23
f 6/197/27 41/198/27 35/199/27 25/200/27 85/201/27 86/202/27 91/203/27 93/204/27 94/205/27 98/206/27
f 75/196/7 35/195/7 41/207/7 76/208/7
f 76/208/24 41/207/24 6/209/24 64/210/24
f 39/211/11 4/212/11 10/213/11 16/214/11 23/215/11 29/216/11
f 39/217/24 61/218/24 46/219/24 4/154/24
f 29/220/7 58/221/7 61/218/7 39/217/7
f 23/222/23 56/223/23 58/221/23 29/220/23
f 16/139/22 53/224/22 56/225/22 23/226/22
f 10/227/5 49/228/5 53/229/5 16/230/5
f 4/231/21 46/232/21 49/233/21 10/234/21
f 61/218/24 76/208/24 64/210/24 46/219/24
f 58/221/7 75/196/7 76/208/7 61/218/7
f 56/223/23 72/193/23 75/196/23 58/221/23
f 84/235/28 83/236/28 72/237/28 53/238/28
f 53/224/22 72/239/22 56/225/22
f 84/235/11 53/238/11 49/240/11 96/241/11 95/242/11 92/243/11
f 46/244/29 64/245/29 99/246/29 97/247/29 96/241/29 49/240/29
o Magazine
v -0.030000 0.060000 -0.160000
v -0.030000 0.120000 -0.160000
v 0.030000 0.060000 -0.160000
v 0.030000 0.120000 -0.160000
v -0.030000 0.060000 0.040000
v -0.030000 0.120000 0.040000
v 0.030000 0.060000 0.040000
v 0.030000 0.120000 0.040000
v 0.030000 -0.070000 -0.120000
v -0.030000 -0.070000 -0.120000
v 0.030000 -0.040000 0.080000
v -0.030000 -0.040000 0.080000
v 0.030000 -0.240000 -0.010000
v -0.030000 -0.240000 -0.010000
v 0.030000 -0.150000 0.160000
v -0.030000 -0.150000 0.160000
v 0.030000 -0.360000 0.140000
v -0.030000 -0.360000 0.140000
v 0.030000 -0.210000 0.240000
v -0.030000 -0.210000 0.240000
vn -0.0000 -0.0000 -1.0000
vn 1.0000 -0.0000 -0.0000
vn -0.0000 -0.0000 1.0000
vn -1.0000 -0.0000 -0.0000
vn -0.0000 1.0000 -0.0000
vn -0.0000 0.5882 0.8087
vn -0.0000 -0.2941 -0.9558
vn -0.0000 0.3714 0.9285
vn -0.0000 -0.5433 -0.8396
vn -0.0000 -0.5547 0.8321
vn -0.0000 0.8000 0.6000
vn -0.0000 -0.7809 -0.6247
vt 0.584661 0.939341
vt 0.584661 1.000000
vt 0.461764 1.000000
vt 0.461764 0.939341
vt 0.317119 0.561196
vt 0.339372 0.500000
vt 0.461764 0.502782
vt 0.439511 0.563978
vt 0.707558 0.931010
vt 0.707558 0.992128
vt 0.584661 0.992128
vt 0.584661 0.931010
vt 0.271129 0.929764
vt 0.293382 0.990960
vt 0.170990 0.993742
vt 0.148737 0.932545
vt 0.125000 0.799397
vt 0.258519 0.827214
vt 0.953353 0.500000
vt 0.953353 0.530724
vt 0.707559 0.530724
vt 0.707559 0.500000
vt 0.707558 0.827874
vt 0.584661 0.827874
vt 0.584661 0.713279
vt 0.707559 0.713279
vt 0.426901 0.666528
vt 0.293382 0.694344
vt 0.461764 0.805950
vt 0.584661 0.805950
vt 0.266678 0.713908
vt 0.129265 0.624479
vt 0.176553 0.500000
vt 0.293382 0.651600
vt 0.461764 0.628683
vt 0.584661 0.628683
vt 0.435060 0.779833
vt 0.297647 0.869263
vt 0.707559 0.649617
vt 0.584661 0.649617
vt 0.584662 0.500000
vt 0.461764 0.842142
vt 0.344935 0.993742
vt 0.461764 0.500000
vt 0.584661 0.500000
s 0
usemtl Material
f 100/248/30 101/249/30 103/250/30 102/251/30
f 102/252/31 103/253/31 107/254/31 106/255/31
f 106/256/32 107/257/32 105/258/32 104/259/32
f 104/260/33 105/261/33 101/262/33 100/263/33
f 104/260/33 100/263/33 109/264/33 111/265/33
f 107/266/34 103/267/34 101/268/34 105/269/34
f 110/270/35 111/271/35 115/272/35 114/273/35
f 102/252/31 106/255/31 110/274/31 108/275/31
f 100/248/36 102/251/36 108/276/36 109/277/36
f 106/256/37 104/259/37 111/271/37 110/270/37
f 115/278/33 113/279/33 117/280/33 119/281/33
f 109/277/38 108/276/38 112/282/38 113/283/38
f 111/265/33 109/264/33 113/279/33 115/278/33
f 108/275/31 110/274/31 114/284/31 112/285/31
f 116/269/39 118/286/39 119/287/39 117/288/39
f 112/285/31 114/284/31 118/289/31 116/290/31
f 114/273/40 115/272/40 119/287/40 118/286/40
f 113/283/41 112/282/41 116/291/41 117/292/41
