# Blender 3.6.5
# www.blender.org
mtllib akm.mtl
o AK-47
v -0.040000 -0.110000 -1.160000
v 0.030000 0.230000 0.580000
v -0.030000 0.080000 -0.535000
v 0.025000 0.300000 0.580000
v -0.040000 0.150000 -1.200000
v 0.025000 0.300000 0.820000
v 0.030000 0.230000 1.180000
v 0.040000 -0.110000 -1.160000
v 0.015000 0.204019 0.580000
v 0.012500 0.278349 0.580000
v 0.030000 0.080000 -0.535000
v 0.040000 0.150000 -1.200000
v 0.015000 0.204019 1.180000
v -0.040000 0.120000 0.220000
v -0.015000 0.204019 0.580000
v -0.012500 0.278349 0.580000
v -0.030000 0.060000 -0.345000
v -0.030000 0.120000 -0.345000
v -0.040000 0.150000 0.310000
v -0.015000 0.204019 1.180000
v 0.040000 0.120000 0.220000
v -0.030000 0.230000 0.580000
v -0.025000 0.300000 0.580000
v 0.030000 0.060000 -0.345000
v -0.025000 0.300000 0.820000
v -0.030000 0.230000 1.180000
v 0.040000 0.150000 0.310000
v 0.030000 0.120000 -0.345000
v -0.012500 0.321651 0.580000
v 0.040000 0.120000 -0.480000
v -0.015000 0.255981 0.580000
v 0.030000 0.040000 -0.515000
v 0.040000 0.320000 -0.480000
v -0.015000 0.255981 1.180000
v -0.012500 0.321651 0.800000
v -0.030000 0.040000 -0.515000
v 0.030000 0.030000 -0.385000
v 0.015000 0.255981 0.580000
v 0.012500 0.321651 0.580000
v -0.040000 0.120000 -0.480000
v 0.012500 0.321651 0.800000
v -0.030000 0.030000 -0.385000
v -0.040000 0.320000 -0.480000
v 0.015000 0.255981 1.180000
v 0.030000 -0.120000 -0.565000
v 0.025000 0.300000 0.796000
v 0.040000 0.320000 0.098000
v -0.030000 -0.120000 -0.565000
v 0.012500 0.278349 0.780000
v -0.040000 0.120000 0.098000
v 0.040000 0.120000 0.098000
v 0.030000 -0.180000 -0.455000
v -0.012500 0.278349 0.780000
v -0.040000 0.320000 0.098000
v -0.030000 -0.180000 -0.455000
v -0.025000 0.300000 0.780000
v 0.030000 0.070000 -0.440000
v -0.012500 0.321651 0.780000
v 0.020000 0.350000 0.098000
v 0.030000 0.120000 -0.440000
v 0.012500 0.321651 0.778000
v 0.020000 0.350000 0.310000
v -0.030000 0.070000 -0.440000
v 0.025000 0.300000 0.808000
v -0.020000 0.350000 0.310000
v -0.030000 0.120000 -0.440000
v -0.020000 0.350000 0.098000
v 0.030000 0.035000 -0.450000
v 0.040000 0.150000 0.580000
v -0.030000 0.035000 -0.450000
v -0.040000 0.150000 0.580000
v -0.025000 0.300000 0.808000
v 0.030000 -0.170000 -0.530000
v 0.020000 0.350000 0.560000
v -0.012500 0.321651 0.789000
v 0.012500 0.321651 0.789000
v -0.020000 0.350000 0.560000
v -0.030000 -0.170000 -0.530000
v 0.040000 0.320000 0.310000
v -0.040000 0.320000 0.310000
v 0.040000 0.320000 0.580000
v -0.040000 0.320000 0.580000
v -0.029462 0.230931 0.780234
v -0.029027 0.231686 0.780000
v -0.029462 0.230931 0.935031
v -0.029358 0.231112 0.934864
v -0.030000 0.120000 -0.480000
v -0.030000 0.101397 -0.535000
v 0.030000 0.101397 -0.535000
v 0.030000 0.120000 -0.480000
v -0.015000 0.255981 0.894951
v -0.015000 0.255981 0.780000
v -0.009444 0.255981 0.893312
v 0.015000 0.255981 0.893312
v 0.015000 0.255981 0.780000
v 0.029027 0.231686 0.780000
v 0.029462 0.230931 0.780134
v 0.029462 0.230931 0.935031
v 0.029462 0.230931 0.780234
vn -0.0000 -0.1521 -0.9884
vn 1.0000 -0.0000 -0.0000
vn -0.0000 -0.9487 0.3162
vn -1.0000 -0.0000 -0.0000
vn -0.0000 -1.0000 -0.0000
vn -0.0000 0.9732 -0.2298
vn -0.0000 1.0000 -0.0000
vn -0.0000 -0.9473 0.3204
vn -0.0000 -0.9192 0.3939
vn 0.8321 0.5547 -0.0000
vn -0.0000 -0.0000 -1.0000
vn -0.8321 0.5547 -0.0000
vn -0.0000 0.5547 0.8321
vn -0.0000 -0.0000 1.0000
vn -0.0000 -0.8000 0.6000
vn -0.0000 -0.3162 0.9487
vn -0.0000 -0.4472 -0.8944
vn -0.0000 -0.9912 -0.1322
vn -0.0000 0.2983 -0.9545
vn -0.0000 -0.5735 -0.8192
vn 0.8660 -0.5000 -0.0000
vn -0.8660 -0.5000 -0.0000
vn -0.8660 0.5000 -0.0000
vn 0.8660 0.5000 -0.0000
vn 0.9979 0.0645 -0.0000
vn -0.9979 0.0645 -0.0000
vn -0.0035 0.8314 0.5556
vn -0.7799 0.2762 -0.5617
vn 0.8435 0.1714 -0.5091
vt 0.764802 0.520887
vt 0.764802 0.664869
vt 0.720727 0.664869
vt 0.720727 0.520887
vt 0.358893 0.287098
vt 0.250198 0.270678
vt 0.359805 0.169160
vt 0.368800 0.220646
vt 0.398005 0.207122
vt 0.398005 0.156585
vt 0.442079 0.156585
vt 0.442079 0.207122
vt 0.078061 0.601985
vt 0.186985 0.585717
vt 0.152993 0.991863
vt 0.008137 0.991216
vt 0.398005 0.274199
vt 0.442079 0.274199
vt 0.502666 0.233181
vt 0.502427 0.447251
vt 0.458353 0.447331
vt 0.458592 0.233261
vt 0.502666 0.008137
vt 0.458592 0.008216
vt 0.557505 0.008137
vt 0.563014 0.008137
vt 0.563014 0.390094
vt 0.518940 0.390094
vt 0.518940 0.008137
vt 0.524449 0.008137
vt 0.524449 0.039030
vt 0.557505 0.039030
vt 0.458353 0.589839
vt 0.031023 0.287040
vt 0.139948 0.270772
vt 0.381731 0.991203
vt 0.237179 0.991645
vt 0.203259 0.585510
vt 0.311954 0.601930
vt 0.021095 0.220564
vt 0.030109 0.169084
vt 0.267414 0.155203
vt 0.233103 0.268410
vt 0.250319 0.152935
vt 0.398005 0.591987
vt 0.442079 0.591987
vt 0.693055 0.538237
vt 0.692757 0.620779
vt 0.670720 0.620739
vt 0.671018 0.538198
vt 0.693112 0.311323
vt 0.693112 0.267249
vt 0.709628 0.278267
vt 0.709628 0.300305
vt 0.122695 0.155256
vt 0.139374 0.152765
vt 0.156627 0.268281
vt 0.008137 0.021965
vt 0.100722 0.008137
vt 0.660379 0.421360
vt 0.704454 0.421440
vt 0.693407 0.440900
vt 0.671370 0.440861
vt 0.270621 0.016763
vt 0.289340 0.008137
vt 0.398005 0.008137
vt 0.442079 0.008137
vt 0.381731 0.022094
vt 0.660379 0.355097
vt 0.704454 0.355177
vt 0.119029 0.016543
vt 0.720727 0.492834
vt 0.753783 0.492834
vt 0.753783 0.504613
vt 0.720727 0.504614
vt 0.747261 0.042506
vt 0.743565 0.015273
vt 0.795394 0.008137
vt 0.799829 0.040816
vt 0.693435 0.637053
vt 0.693520 0.660440
vt 0.660464 0.660499
vt 0.660379 0.637112
vt 0.504795 0.632474
vt 0.503212 0.644150
vt 0.450608 0.642575
vt 0.454307 0.615292
vt 0.476145 0.618252
vt 0.488399 0.590833
vt 0.488399 0.557778
vt 0.511446 0.557778
vt 0.511446 0.590833
vt 0.660464 0.713062
vt 0.660464 0.697488
vt 0.693520 0.697428
vt 0.693520 0.713002
vt 0.726167 0.250975
vt 0.693112 0.250856
vt 0.693112 0.196256
vt 0.726167 0.196375
vt 0.489334 0.664496
vt 0.453479 0.662414
vt 0.780225 0.060160
vt 0.744393 0.062320
vt 0.720727 0.470390
vt 0.753783 0.470390
vt 0.579288 0.742813
vt 0.579288 0.701929
vt 0.612343 0.701929
vt 0.612343 0.742813
vt 0.720727 0.383363
vt 0.753783 0.383363
vt 0.504795 0.755504
vt 0.481989 0.780197
vt 0.757559 0.179795
vt 0.715903 0.179982
vt 0.708562 0.064479
vt 0.693112 0.155379
vt 0.417623 0.660331
vt 0.440304 0.780103
vt 0.720727 0.355097
vt 0.753783 0.355097
vt 0.694694 0.044196
vt 0.398005 0.641001
vt 0.402443 0.608261
vt 0.721743 0.018278
vt 0.693112 0.032542
vt 0.630322 0.338564
vt 0.630322 0.008137
vt 0.644037 0.008396
vt 0.644037 0.338824
vt 0.660311 0.338021
vt 0.660311 0.008137
vt 0.676839 0.008137
vt 0.676839 0.338021
vt 0.579288 0.685655
vt 0.579288 0.355097
vt 0.593336 0.355097
vt 0.593336 0.685655
vt 0.607901 0.685655
vt 0.607901 0.355097
vt 0.607901 0.512139
vt 0.593960 0.490150
vt 0.593858 0.490058
vt 0.593858 0.575340
vt 0.594281 0.575469
vt 0.607901 0.575469
vt 0.529958 0.416494
vt 0.538204 0.406367
vt 0.554732 0.406367
vt 0.563014 0.416494
vt 0.554769 0.426621
vt 0.538241 0.426621
vt 0.538040 0.537605
vt 0.554567 0.538243
vt 0.541100 0.538243
vt 0.504927 0.541474
vt 0.488399 0.541504
vt 0.488399 0.463634
vt 0.504927 0.463604
vt 0.615477 0.166224
vt 0.615477 0.008341
vt 0.615477 0.338769
vt 0.615477 0.228626
vt 0.629359 0.228435
vt 0.629790 0.228355
vt 0.629790 0.228300
vt 0.629790 0.143051
vt 0.544269 0.735139
vt 0.529958 0.726889
vt 0.529958 0.710370
vt 0.544269 0.702101
vt 0.558580 0.710352
vt 0.558580 0.726871
vt 0.591659 0.213005
vt 0.591659 0.206396
vt 0.631968 0.553432
vt 0.631968 0.560043
vt 0.644106 0.564451
vt 0.644106 0.570511
vt 0.560055 0.583945
vt 0.553170 0.600171
vt 0.539397 0.600171
vt 0.532509 0.583945
vt 0.530083 0.512236
vt 0.530140 0.512371
vt 0.562546 0.512236
vt 0.539389 0.604454
vt 0.553162 0.604454
vt 0.579288 0.223639
vt 0.579288 0.217581
vt 0.725901 0.287890
vt 0.725901 0.274124
vt 0.737827 0.267249
vt 0.749753 0.274139
vt 0.749753 0.287905
vt 0.737827 0.294780
vt 0.579288 0.338738
vt 0.579288 0.229697
vt 0.591659 0.219613
vt 0.591659 0.338567
vt 0.539242 0.685828
vt 0.539383 0.607958
vt 0.553154 0.608737
vt 0.553015 0.685828
vt 0.631968 0.685655
vt 0.631968 0.575469
vt 0.644106 0.575469
vt 0.644106 0.685655
vt 0.620261 0.685655
vt 0.620261 0.575469
vt 0.458353 0.573566
vt 0.458353 0.463604
vt 0.472126 0.463604
vt 0.472126 0.573566
vt 0.603088 0.228641
vt 0.603088 0.338784
vt 0.720727 0.681143
vt 0.746416 0.690248
vt 0.746416 0.704021
vt 0.720727 0.713126
vt 0.734102 0.705398
vt 0.734102 0.688870
s 0
usemtl Material.001
f 1/1/1 5/2/1 12/3/1 8/4/1
f 51/5/2 47/6/2 27/7/2 21/8/2
f 21/9/3 27/10/3 19/11/3 14/12/3
f 40/13/4 43/14/4 5/15/4 1/16/4
f 51/17/5 21/9/5 14/12/5 50/18/5
f 33/19/6 12/20/6 5/21/6 43/22/6
f 47/23/7 33/19/7 43/22/7 54/24/7
f 87/25/8 40/26/8 1/27/8 8/28/8 30/29/8 90/30/8 89/31/8 88/32/8
f 90/33/9 30/33/9 40/33/9 87/33/9
f 50/34/4 54/35/4 43/14/4 40/13/4
f 8/36/2 12/37/2 33/38/2 30/39/2
f 14/40/4 19/41/4 54/35/4 50/34/4
f 79/42/10 47/6/10 59/43/10 62/44/10
f 30/45/5 51/17/5 50/18/5 40/46/5
f 30/39/2 33/38/2 47/6/2 51/5/2
f 62/47/7 59/48/7 67/49/7 65/50/7
f 47/51/11 54/52/11 67/53/11 59/54/11
f 54/35/12 80/55/12 65/56/12 67/57/12
f 80/55/4 19/41/4 71/58/4 82/59/4
f 82/60/13 81/61/13 74/62/13 77/63/13
f 79/42/10 62/44/10 74/64/10 81/65/10
f 62/47/7 65/50/7 77/63/7 74/62/7
f 19/11/5 27/10/5 69/66/5 71/67/5
f 27/7/2 79/42/2 81/65/2 69/68/2
f 71/69/14 69/70/14 81/61/14 82/60/14
f 65/56/12 80/55/12 82/59/12 77/71/12
f 54/35/4 19/41/4 80/55/4
f 47/6/2 79/42/2 27/7/2
f 11/72/11 3/73/11 88/74/11 89/75/11
f 57/76/2 60/77/2 28/78/2 24/79/2
f 24/80/14 28/81/14 18/82/14 17/83/14
f 88/84/4 3/85/4 63/86/4 66/87/4 87/88/4
f 24/89/15 17/90/15 42/91/15 37/92/15
f 87/93/7 66/94/7 60/95/7 90/96/7
f 37/97/16 42/98/16 55/99/16 52/100/16
f 63/86/4 3/85/4 36/101/4 70/102/4
f 57/76/2 24/79/2 37/103/2 68/104/2
f 3/73/17 11/72/17 32/105/17 36/106/17
f 73/107/18 52/108/18 55/109/18 78/110/18
f 36/106/19 32/105/19 45/111/19 48/112/19
f 70/102/4 36/101/4 48/113/4 78/114/4
f 68/104/2 37/103/2 52/115/2 73/116/2
f 32/117/2 68/104/2 73/116/2 45/118/2
f 42/119/4 70/102/4 78/114/4 55/120/4
f 45/111/20 73/121/20 78/122/20 48/112/20
f 11/123/2 57/76/2 68/104/2 32/117/2
f 17/124/4 63/86/4 70/102/4 42/119/4
f 28/81/7 60/95/7 66/94/7 18/82/7
f 17/124/4 18/125/4 66/87/4 63/86/4
f 90/126/2 60/77/2 57/76/2 11/123/2 89/127/2
f 2/128/21 7/129/21 13/130/21 9/131/21
f 9/132/5 13/133/5 20/134/5 15/135/5
f 15/136/22 20/137/22 26/138/22 22/139/22
f 31/140/23 22/139/23 26/138/23 34/141/23 91/142/23 86/143/23 85/144/23 83/145/23 84/146/23 92/147/23
f 26/148/14 20/149/14 13/150/14 7/151/14 44/152/14 34/153/14
f 91/154/7 34/153/7 44/152/7 94/155/7 93/156/7
f 38/157/7 31/158/7 92/159/7 95/160/7
f 94/161/24 44/162/24 7/129/24 2/128/24 38/163/24 95/164/24 96/165/24 97/166/24 99/167/24 98/168/24
f 38/169/11 2/170/11 9/171/11 15/172/11 22/173/11 31/174/11
f 99/167/25 64/175/25 6/176/25 98/168/25
f 85/144/26 25/177/26 72/178/26 83/145/26
f 72/178/23 25/177/23 35/179/23 75/180/23
f 6/181/27 41/182/27 35/183/27 25/184/27 85/185/27 86/186/27 91/154/27 93/156/27 94/155/27 98/187/27
f 75/188/7 35/183/7 41/182/7 76/189/7
f 76/190/24 41/191/24 6/176/24 64/175/24
f 39/192/11 4/193/11 10/194/11 16/195/11 23/196/11 29/197/11
f 39/198/24 61/199/24 46/200/24 4/201/24
f 29/202/7 58/203/7 61/204/7 39/205/7
f 23/206/23 56/207/23 58/208/23 29/209/23
f 16/210/22 53/211/22 56/207/22 23/206/22
f 10/212/5 49/213/5 53/214/5 16/215/5
f 4/201/21 46/200/21 49/216/21 10/217/21
f 61/199/24 76/190/24 64/175/24 46/200/24
f 58/203/7 75/188/7 76/189/7 61/204/7
f 56/207/23 72/178/23 75/180/23 58/208/23
f 84/146/28 83/145/28 72/178/28 53/211/28
f 53/211/22 72/178/22 56/207/22
f 84/218/11 53/219/11 49/220/11 96/221/11 95/222/11 92/223/11
f 46/200/29 64/175/29 99/167/29 97/166/29 96/165/29 49/216/29
o Magazine
v -0.030000 0.060000 -0.160000
v -0.030000 0.120000 -0.160000
v 0.030000 0.060000 -0.160000
v 0.030000 0.120000 -0.160000
v -0.030000 0.060000 0.040000
v -0.030000 0.120000 0.040000
v 0.030000 0.060000 0.040000
v 0.030000 0.120000 0.040000
v 0.030000 -0.070000 -0.120000
v -0.030000 -0.070000 -0.120000
v 0.030000 -0.040000 0.080000
v -0.030000 -0.040000 0.080000
v 0.030000 -0.240000 -0.010000
v -0.030000 -0.240000 -0.010000
v 0.030000 -0.150000 0.160000
v -0.030000 -0.150000 0.160000
v 0.030000 -0.360000 0.140000
v -0.030000 -0.360000 0.140000
v 0.030000 -0.210000 0.240000
v -0.030000 -0.210000 0.240000
vn -0.0000 -0.0000 -1.0000
vn 1.0000 -0.0000 -0.0000
vn -0.0000 -0.0000 1.0000
vn -1.0000 -0.0000 -0.0000
vn -0.0000 1.0000 -0.0000
vn -0.0000 0.5882 0.8087
vn -0.0000 -0.2941 -0.9558
vn -0.0000 0.3714 0.9285
vn -0.0000 -0.5433 -0.8396
vn -0.0000 -0.5547 0.8321
vn -0.0000 0.8000 0.6000
vn -0.0000 -0.7809 -0.6247
vt 0.584661 0.939341
vt 0.584661 1.000000
vt 0.461764 1.000000
vt 0.461764 0.939341
vt 0.317119 0.561196
vt 0.339372 0.500000
vt 0.461764 0.502782
vt 0.439511 0.563978
vt 0.707558 0.931010
vt 0.707558 0.992128
vt 0.584661 0.992128
vt 0.584661 0.931010
vt 0.271129 0.929764
vt 0.293382 0.990960
vt 0.170990 0.993742
vt 0.148737 0.932545
vt 0.125000 0.799397
vt 0.258519 0.827214
vt 0.953353 0.500000
vt 0.953353 0.530724
vt 0.707559 0.530724
vt 0.707559 0.500000
vt 0.707558 0.827874
vt 0.584661 0.827874
vt 0.584661 0.713279
vt 0.707559 0.713279
vt 0.426901 0.666528
vt 0.293382 0.694344
vt 0.461764 0.805950
vt 0.584661 0.805950
vt 0.266678 0.713908
vt 0.129265 0.624479
vt 0.176553 0.500000
vt 0.293382 0.651600
vt 0.461764 0.628683
vt 0.584661 0.628683
vt 0.435060 0.779833
vt 0.297647 0.869263
vt 0.707559 0.649617
vt 0.584661 0.649617
vt 0.584662 0.500000
vt 0.461764 0.842142
vt 0.344935 0.993742
vt 0.461764 0.500000
vt 0.584661 0.500000
s 0
usemtl Material.001
f 100/224/30 101/225/30 103/226/30 102/227/30
f 102/228/31 103/229/31 107/230/31 106/231/31
f 106/232/32 107/233/32 105/234/32 104/235/32
f 104/236/33 105/237/33 101/238/33 100/239/33
f 104/236/33 100/239/33 109/240/33 111/241/33
f 107/242/34 103/243/34 101/244/34 105/245/34
f 110/246/35 111/247/35 115/248/35 114/249/35
f 102/228/31 106/231/31 110/250/31 108/251/31
f 100/224/36 102/227/36 108/252/36 109/253/36
f 106/232/37 104/235/37 111/247/37 110/246/37
f 115/254/33 113/255/33 117/256/33 119/257/33
f 109/253/38 108/252/38 112/258/38 113/259/38
f 111/241/33 109/240/33 113/255/33 115/254/33
f 108/251/31 110/250/31 114/260/31 112/261/31
f 116/245/39 118/262/39 119/263/39 117/264/39
f 112/261/31 114/260/31 118/265/31 116/266/31
f 114/249/40 115/248/40 119/263/40 118/262/40
f 113/259/41 112/258/41 116/267/41 117/268/41
