# Blender 3.6.4
# www.blender.org
mtllib axe.mtl
o Axe
v 0.000000 -10.000000 -1.000000
v -0.693750 7.000000 2.000000
v 0.000000 10.000000 -1.000000
v -0.693750 9.000000 2.000000
v -0.843750 6.700000 -2.000000
v 0.530330 -10.000000 -0.707107
v 0.530330 10.000000 -0.707107
v -0.843750 9.300000 -2.000000
v 0.693750 7.000000 2.000000
v 0.750000 -10.000000 0.000000
v 0.750000 10.000000 0.000000
v 0.693750 9.000000 2.000000
v 0.843750 6.700000 -2.000000
v 0.530330 -10.000000 0.707107
v 0.530330 10.000000 0.707107
v 0.843750 9.300000 -2.000000
v -0.468750 9.500000 -3.000000
v 0.000000 -10.000000 1.000000
v 0.000000 10.000000 1.000000
v -0.468750 6.500000 -3.000000
v -0.530330 -10.000000 0.707107
v 0.468750 6.500000 -3.000000
v 0.468750 9.500000 -3.000000
v -0.530330 10.000000 0.707107
v -0.750000 -10.000000 0.000000
v -0.243750 10.000000 -4.000000
v -0.243750 6.000000 -4.000000
v -0.750000 10.000000 0.000000
v -0.530330 -10.000000 -0.707107
v 0.243750 6.000000 -4.000000
v -0.530330 10.000000 -0.707107
v 0.243750 10.000000 -4.000000
v -0.013738 11.000000 -5.000000
v -0.013738 5.000000 -5.000000
v 0.018750 5.000000 -5.000000
v 0.018750 11.000000 -5.000000
v -0.693750 8.000000 2.000000
v -0.843750 8.000000 -2.000000
v 0.843750 8.000000 -2.000000
v 0.693750 8.000000 2.000000
v -0.468750 8.000000 -3.100000
v 0.468750 8.000000 -3.100000
v -0.243750 8.000000 -4.200000
v 0.243750 8.000000 -4.200000
v -0.013738 8.000000 -5.300000
v 0.018750 8.000000 -5.300000
v 0.445303 6.793446 -0.754066
v 0.509220 9.203908 -0.718765
v 0.000000 6.775000 -1.000000
v 0.000000 9.225000 -1.000000
v 0.530330 6.796967 -0.707107
v 0.530330 9.203033 -0.707107
v 0.750000 6.850000 0.000000
v 0.750000 9.150001 0.000000
v 0.530330 6.903033 0.707107
v 0.530330 9.096967 0.707107
v 0.000000 6.925000 1.000000
v 0.000000 9.075001 1.000000
v -0.448299 6.906431 0.752411
v -0.506358 9.095975 0.720346
v -0.530330 6.903033 0.707107
v -0.530330 9.096967 0.707107
v -0.750000 6.850000 0.000000
v -0.750000 9.150001 0.000000
v -0.530330 6.796967 -0.707107
v -0.530330 9.203033 -0.707107
vn 0.4835 -0.0000 -0.8754
vn 0.9550 -0.0000 -0.2967
vn 0.9550 -0.0000 0.2967
vn 0.4835 -0.0000 0.8754
vn -0.4835 -0.0000 0.8754
vn -0.9550 -0.0000 0.2967
vn -0.0000 1.0000 -0.0000
vn -0.9550 -0.0000 -0.2967
vn -0.4835 -0.0000 -0.8754
vn -0.0000 -1.0000 -0.0000
vn -0.9993 -0.0000 0.0375
vn -0.9420 0.0120 -0.3353
vn 0.9993 -0.0000 0.0375
vn -0.0000 -0.0000 1.0000
vn -0.0000 -0.9972 0.0748
vn -0.0000 0.9972 0.0748
vn -0.0000 0.8944 0.4472
vn 0.9420 -0.0120 -0.3353
vn -0.0000 -0.9806 0.1961
vn -0.0000 0.9806 0.1961
vn -0.0000 -0.7071 0.7071
vn -0.9785 0.0176 -0.2055
vn 0.9785 -0.0176 -0.2055
vn -0.0000 -0.8944 0.4472
vn -0.0000 0.0995 -0.9950
vn -0.0000 0.7071 0.7071
vn -0.9786 0.0205 -0.2046
vn 0.9795 -0.0200 -0.2004
vn 0.9795 0.0200 -0.2004
vn -0.9786 -0.0205 -0.2046
vn -0.0000 -0.0995 -0.9950
vn 0.9785 0.0176 -0.2055
vn -0.9785 -0.0176 -0.2055
vn 0.9420 0.0120 -0.3353
vn -0.9420 -0.0120 -0.3353
vt 1.000000 1.000000
vt 0.875000 1.000000
vt 0.875000 0.980076
vt 0.879976 0.980098
vt 1.000000 0.980625
vt 0.875000 0.500000
vt 1.000000 0.500000
vt 1.000000 0.919375
vt 0.895041 0.919836
vt 0.875000 0.919924
vt 0.750000 1.000000
vt 0.750000 0.978750
vt 0.750000 0.921250
vt 0.750000 0.500000
vt 0.625000 1.000000
vt 0.625000 0.977424
vt 0.625000 0.922576
vt 0.625000 0.500000
vt 0.500000 1.000000
vt 0.500000 0.976875
vt 0.500000 0.923125
vt 0.500000 0.500000
vt 0.375000 1.000000
vt 0.375000 0.977424
vt 0.380650 0.977399
vt 0.375000 0.922576
vt 0.375000 0.500000
vt 0.394335 0.922661
vt 0.250000 1.000000
vt 0.250000 0.978750
vt 0.250000 0.500000
vt 0.250000 0.921250
vt 0.250000 0.010000
vt 0.419706 0.080294
vt 0.490000 0.250000
vt 0.419706 0.419706
vt 0.250000 0.490000
vt 0.080294 0.419706
vt 0.010000 0.250000
vt 0.080294 0.080294
vt 0.125000 1.000000
vt 0.125000 0.980076
vt 0.125000 0.500000
vt 0.125000 0.919924
vt 0.000000 1.000000
vt 0.000000 0.980625
vt 0.000000 0.500000
vt 0.000000 0.919375
vt 0.580294 0.419706
vt 0.750000 0.490000
vt 0.919706 0.419706
vt 0.990000 0.250000
vt 0.919706 0.080294
vt 0.750000 0.010000
vt 0.580294 0.080294
vt 0.510000 0.250000
vt 0.500000 0.000000
vt 0.625000 0.000000
vt 0.625000 0.250000
vt 0.500000 0.250000
vt 0.625000 0.750000
vt 0.500000 0.750000
vt 0.328567 0.580806
vt 0.315971 0.577871
vt 0.375000 0.750000
vt 0.125000 0.750000
vt 0.183585 0.672026
vt 0.250000 0.687500
vt 0.328567 0.669194
vt 0.361111 0.625000
vt 0.171433 0.669194
vt 0.250000 0.562500
vt 0.171433 0.580806
vt 0.138889 0.625000
vt 0.825016 0.670022
vt 0.875000 0.750000
vt 0.674560 0.580077
vt 0.671433 0.580806
vt 0.638889 0.625000
vt 0.671433 0.669194
vt 0.750000 0.687500
vt 0.828567 0.669194
vt 0.861111 0.625000
vt 0.828568 0.580806
vt 0.750000 0.562500
vt 0.375000 0.250000
vt 0.375000 0.000000
s 0
f 3/1/1 7/2/1 52/3/1 48/4/1 50/5/1
f 6/6/1 1/7/1 49/8/1 47/9/1 51/10/1
f 52/3/2 7/2/2 11/11/2 54/12/2
f 53/13/2 10/14/2 6/6/2 51/10/2
f 54/12/3 11/11/3 15/15/3 56/16/3
f 55/17/3 14/18/3 10/14/3 53/13/3
f 56/16/4 15/15/4 19/19/4 58/20/4
f 57/21/4 18/22/4 14/18/4 55/17/4
f 58/20/5 19/19/5 24/23/5 62/24/5 60/25/5
f 61/26/5 21/27/5 18/22/5 57/21/5 59/28/5
f 62/24/6 24/23/6 28/29/6 64/30/6
f 25/31/6 21/27/6 61/26/6 63/32/6
f 19/33/7 15/34/7 11/35/7 7/36/7 3/37/7 31/38/7 28/39/7 24/40/7
f 64/30/8 28/29/8 31/41/8 66/42/8
f 29/43/8 25/31/8 63/32/8 65/44/8
f 31/41/9 3/45/9 50/46/9 66/42/9
f 1/47/9 29/43/9 65/44/9 49/48/9
f 29/49/10 1/50/10 6/51/10 10/52/10 14/53/10 18/54/10 21/55/10 25/56/10
f 37/57/11 4/58/11 8/59/11 38/60/11
f 38/60/12 8/59/12 17/59/12 41/60/12
f 39/22/13 16/18/13 12/61/13 40/62/13
f 40/62/14 12/61/14 4/15/14 37/19/14
f 51/63/15 47/64/15 13/27/15 9/65/15 2/66/15 59/67/15 57/68/15 55/69/15 53/70/15
f 61/71/15 59/67/15 2/66/15 5/43/15 13/27/15 47/64/15 49/72/15 65/73/15 63/74/15
f 60/75/16 4/76/16 12/61/16 16/18/16 48/77/16 52/78/16 54/79/16 56/80/16 58/81/16
f 48/77/16 16/18/16 8/6/16 4/76/16 60/75/16 62/82/16 64/83/16 66/84/16 50/85/16
f 17/6/17 23/18/17 32/18/17 26/6/17
f 39/22/18 13/27/18 22/27/18 42/22/18
f 13/27/19 5/43/19 20/43/19 22/27/19
f 8/6/20 16/18/20 23/18/20 17/6/20
f 30/27/21 27/43/21 34/43/21 35/27/21
f 41/60/22 17/59/22 26/59/22 43/60/22
f 42/22/23 22/27/23 30/27/23 44/22/23
f 22/27/24 20/43/24 27/43/24 30/27/24
f 45/60/25 33/59/25 36/18/25 46/22/25
f 26/6/26 32/18/26 36/18/26 33/6/26
f 43/60/27 26/59/27 33/59/27 45/60/27
f 44/22/28 30/27/28 35/27/28 46/22/28
f 32/18/29 44/22/29 46/22/29 36/18/29
f 27/86/30 43/60/30 45/60/30 34/86/30
f 34/86/31 45/60/31 46/22/31 35/27/31
f 23/18/32 42/22/32 44/22/32 32/18/32
f 20/86/33 41/60/33 43/60/33 27/86/33
f 16/18/34 39/22/34 42/22/34 23/18/34
f 9/65/14 40/62/14 37/19/14 2/23/14
f 13/27/13 39/22/13 40/62/13 9/65/13
f 5/86/35 38/60/35 41/60/35 20/86/35
f 2/87/11 37/57/11 38/60/11 5/86/11
