# Blender 4.0.1
# www.blender.org
mtllib axe.mtl
o Axe
v 0.000000 -10.000000 -1.000000
v -0.693750 7.000000 2.000000
v 0.000000 10.000000 -1.000000
v -0.693750 9.000000 2.000000
v -0.843750 6.700000 -2.000000
v 0.530330 -10.000000 -0.707107
v 0.530330 10.000000 -0.707107
v -0.843750 9.300000 -2.000000
v 0.693750 7.000000 2.000000
v 0.750000 -10.000000 0.000000
v 0.750000 10.000000 0.000000
v 0.693750 9.000000 2.000000
v 0.843750 6.700000 -2.000000
v 0.530330 -10.000000 0.707107
v 0.530330 10.000000 0.707107
v 0.843750 9.300000 -2.000000
v -0.468750 9.500000 -3.000000
v 0.000000 -10.000000 1.000000
v 0.000000 10.000000 1.000000
v -0.468750 6.500000 -3.000000
v -0.530330 -10.000000 0.707107
v 0.468750 6.500000 -3.000000
v 0.468750 9.500000 -3.000000
v -0.530330 10.000000 0.707107
v -0.750000 -10.000000 0.000000
v -0.243750 10.000000 -4.000000
v -0.243750 6.000000 -4.000000
v -0.750000 10.000000 0.000000
v -0.530330 -10.000000 -0.707107
v 0.243750 6.000000 -4.000000
v -0.530330 10.000000 -0.707107
v 0.243750 10.000000 -4.000000
v -0.013738 11.000000 -5.000000
v -0.013738 5.000000 -5.000000
v 0.018750 5.000000 -5.000000
v 0.018750 11.000000 -5.000000
v -0.693750 8.000000 2.000000
v -0.843750 8.000000 -2.000000
v 0.843750 8.000000 -2.000000
v 0.693750 8.000000 2.000000
v -0.468750 8.000000 -3.100000
v 0.468750 8.000000 -3.100000
v -0.243750 8.000000 -4.200000
v 0.243750 8.000000 -4.200000
v -0.013738 8.000000 -5.300000
v 0.018750 8.000000 -5.300000
v 0.445303 6.793446 -0.754066
v 0.509220 9.203908 -0.718765
v 0.000000 6.775000 -1.000000
v 0.000000 9.225000 -1.000000
v 0.530330 6.796967 -0.707107
v 0.530330 9.203033 -0.707107
v 0.750000 6.850000 0.000000
v 0.750000 9.150001 0.000000
v 0.530330 6.903033 0.707107
v 0.530330 9.096967 0.707107
v 0.000000 6.925000 1.000000
v 0.000000 9.075001 1.000000
v -0.448299 6.906431 0.752411
v -0.506358 9.095975 0.720346
v -0.530330 6.903033 0.707107
v -0.530330 9.096967 0.707107
v -0.750000 6.850000 0.000000
v -0.750000 9.150001 0.000000
v -0.530330 6.796967 -0.707107
v -0.530330 9.203033 -0.707107
vn 0.4835 -0.0000 -0.8754
vn 0.9550 -0.0000 -0.2967
vn 0.9550 -0.0000 0.2967
vn 0.4835 -0.0000 0.8754
vn -0.4835 -0.0000 0.8754
vn -0.9550 -0.0000 0.2967
vn -0.0000 1.0000 -0.0000
vn -0.9550 -0.0000 -0.2967
vn -0.4835 -0.0000 -0.8754
vn -0.0000 -1.0000 -0.0000
vn -0.9993 -0.0000 0.0375
vn -0.9420 0.0120 -0.3353
vn 0.9993 -0.0000 0.0375
vn -0.0000 -0.0000 1.0000
vn -0.0000 -0.9972 0.0748
vn -0.0000 0.9972 0.0748
vn -0.0000 0.8944 0.4472
vn 0.9420 -0.0120 -0.3353
vn -0.0000 -0.9806 0.1961
vn -0.0000 0.9806 0.1961
vn -0.0000 -0.7071 0.7071
vn -0.9785 0.0176 -0.2055
vn 0.9785 -0.0176 -0.2055
vn -0.0000 -0.8944 0.4472
vn -0.0000 0.0995 -0.9950
vn -0.0000 0.7071 0.7071
vn -0.9786 0.0205 -0.2046
vn 0.9795 -0.0200 -0.2004
vn 0.9795 0.0200 -0.2004
vn -0.9786 -0.0205 -0.2046
vn -0.0000 -0.0995 -0.9950
vn 0.9785 0.0176 -0.2055
vn -0.9785 -0.0176 -0.2055
vn 0.9420 0.0120 -0.3353
vn -0.9420 -0.0120 -0.3353
vt 0.901662 0.066366
vt 0.901662 0.008069
vt 0.910247 0.008069
vt 0.910237 0.010390
vt 0.910010 0.066366
vt 0.665823 0.989381
vt 0.607526 0.989381
vt 0.607526 0.808683
vt 0.656476 0.808484
vt 0.665823 0.808446
vt 0.897592 0.585429
vt 0.889007 0.585429
vt 0.889007 0.503652
vt 0.898163 0.503652
vt 0.089846 0.810424
vt 0.089846 0.991931
vt 0.008069 0.991931
vt 0.008069 0.810996
vt 0.889007 0.438423
vt 0.898734 0.438423
vt 0.155075 0.809853
vt 0.155075 0.991931
vt 0.861841 0.799423
vt 0.852114 0.799423
vt 0.852114 0.718563
vt 0.862078 0.718563
vt 0.767425 0.650013
vt 0.767425 0.832327
vt 0.686565 0.832327
vt 0.686565 0.650249
vt 0.852114 0.650013
vt 0.861841 0.650013
vt 0.861852 0.653111
vt 0.835976 0.650249
vt 0.835976 0.832327
vt 0.825372 0.650213
vt 0.887944 0.798634
vt 0.878216 0.798634
vt 0.878216 0.717397
vt 0.887372 0.717397
vt 0.805484 0.620501
vt 0.724247 0.620501
vt 0.724247 0.438423
vt 0.805484 0.438995
vt 0.885523 0.363992
vt 0.827230 0.422285
vt 0.744819 0.422285
vt 0.686565 0.363992
vt 0.686592 0.281553
vt 0.744886 0.223260
vt 0.827297 0.223260
vt 0.885551 0.281553
vt 0.878216 0.650013
vt 0.886801 0.650013
vt 0.872869 0.620501
vt 0.872869 0.439566
vt 0.901662 0.148811
vt 0.910247 0.148811
vt 0.525081 0.989381
vt 0.525081 0.808446
vt 0.885523 0.066343
vt 0.885523 0.148782
vt 0.827250 0.207094
vt 0.744838 0.207122
vt 0.686565 0.148848
vt 0.686565 0.066409
vt 0.744839 0.008097
vt 0.827250 0.008069
vt 0.616592 0.753457
vt 0.605825 0.753132
vt 0.615412 0.328133
vt 0.629409 0.328555
vt 0.616070 0.234843
vt 0.632538 0.224825
vt 0.567190 0.418355
vt 0.553192 0.417955
vt 0.568151 0.008069
vt 0.578919 0.008377
vt 0.697337 0.633874
vt 0.686565 0.633874
vt 0.686565 0.438423
vt 0.697337 0.438423
vt 0.311590 0.299605
vt 0.323802 0.304662
vt 0.266575 0.438841
vt 0.288119 0.008069
vt 0.487399 0.008069
vt 0.452146 0.142426
vt 0.387759 0.115762
vt 0.311590 0.147305
vt 0.280040 0.223455
vt 0.463928 0.147305
vt 0.508943 0.438841
vt 0.387759 0.331148
vt 0.463928 0.299605
vt 0.495478 0.223455
vt 0.201979 0.655905
vt 0.228893 0.793715
vt 0.029613 0.793715
vt 0.008069 0.362943
vt 0.056116 0.500923
vt 0.053084 0.502179
vt 0.021534 0.578329
vt 0.053084 0.654479
vt 0.129253 0.686022
vt 0.250437 0.362943
vt 0.205422 0.654479
vt 0.236972 0.578329
vt 0.205422 0.502178
vt 0.129253 0.470636
vt 0.196577 0.255209
vt 0.061929 0.255209
vt 0.094244 0.147375
vt 0.164262 0.147375
vt 0.581188 0.418756
vt 0.579965 0.536842
vt 0.563516 0.546771
vt 0.455084 0.546575
vt 0.320435 0.546575
vt 0.352750 0.654409
vt 0.422768 0.654409
vt 0.389732 0.762408
vt 0.385066 0.762408
vt 0.613642 0.136727
vt 0.635809 0.116368
vt 0.582134 0.649374
vt 0.560004 0.669539
vt 0.131226 0.008069
vt 0.131226 0.039376
vt 0.126560 0.039376
vt 0.126560 0.008069
vt 0.605825 0.038608
vt 0.639076 0.008069
vt 0.589686 0.762060
vt 0.556492 0.792308
vt 0.539064 0.648142
vt 0.525081 0.760212
vt 0.656710 0.138027
vt 0.670427 0.040557
vt 0.389732 0.793715
vt 0.385066 0.793715
vt 0.547662 0.535918
vt 0.648371 0.235817
vt 0.708109 0.633874
vt 0.708109 0.438423
vt 0.589686 0.008685
vt 0.643406 0.328977
vt 0.627359 0.753782
s 0
f 3/1/1 7/2/1 52/3/1 48/4/1 50/5/1
f 6/6/1 1/7/1 49/8/1 47/9/1 51/10/1
f 52/11/2 7/12/2 11/13/2 54/14/2
f 53/15/2 10/16/2 6/17/2 51/18/2
f 54/14/3 11/13/3 15/19/3 56/20/3
f 55/21/3 14/22/3 10/16/3 53/15/3
f 56/23/4 15/24/4 19/25/4 58/26/4
f 57/27/4 18/28/4 14/29/4 55/30/4
f 58/26/5 19/25/5 24/31/5 62/32/5 60/33/5
f 61/34/5 21/35/5 18/28/5 57/27/5 59/36/5
f 62/37/6 24/38/6 28/39/6 64/40/6
f 25/41/6 21/42/6 61/43/6 63/44/6
f 19/45/7 15/46/7 11/47/7 7/48/7 3/49/7 31/50/7 28/51/7 24/52/7
f 64/40/8 28/39/8 31/53/8 66/54/8
f 29/55/8 25/41/8 63/44/8 65/56/8
f 31/57/9 3/1/9 50/5/9 66/58/9
f 1/7/9 29/59/9 65/60/9 49/8/9
f 29/61/10 1/62/10 6/63/10 10/64/10 14/65/10 18/66/10 21/67/10 25/68/10
f 37/69/11 4/70/11 8/71/11 38/72/11
f 38/72/12 8/71/12 17/73/12 41/74/12
f 39/75/13 16/76/13 12/77/13 40/78/13
f 40/79/14 12/80/14 4/81/14 37/82/14
f 51/83/15 47/84/15 13/85/15 9/86/15 2/87/15 59/88/15 57/89/15 55/90/15 53/91/15
f 61/92/15 59/88/15 2/87/15 5/93/15 13/85/15 47/84/15 49/94/15 65/95/15 63/96/15
f 60/97/16 4/98/16 12/99/16 16/100/16 48/101/16 52/102/16 54/103/16 56/104/16 58/105/16
f 48/101/16 16/100/16 8/106/16 4/98/16 60/97/16 62/107/16 64/108/16 66/109/16 50/110/16
f 17/111/17 23/112/17 32/113/17 26/114/17
f 39/75/18 13/115/18 22/116/18 42/117/18
f 13/85/19 5/93/19 20/118/19 22/119/19
f 8/106/20 16/100/20 23/112/20 17/111/20
f 30/120/21 27/121/21 34/122/21 35/123/21
f 41/74/22 17/73/22 26/124/22 43/125/22
f 42/117/23 22/116/23 30/126/23 44/127/23
f 22/119/24 20/118/24 27/121/24 30/120/24
f 45/128/25 33/129/25 36/130/25 46/131/25
f 26/114/26 32/113/26 36/130/26 33/129/26
f 43/125/27 26/124/27 33/132/27 45/133/27
f 44/127/28 30/126/28 35/134/28 46/135/28
f 32/136/29 44/127/29 46/135/29 36/137/29
f 27/138/30 43/125/30 45/133/30 34/139/30
f 34/122/31 45/140/31 46/141/31 35/123/31
f 23/142/32 42/117/32 44/127/32 32/136/32
f 20/143/33 41/74/33 43/125/33 27/138/33
f 16/76/34 39/75/34 42/117/34 23/142/34
f 9/144/14 40/79/14 37/82/14 2/145/14
f 13/115/13 39/75/13 40/78/13 9/146/13
f 5/147/35 38/72/35 41/74/35 20/143/35
f 2/148/11 37/69/11 38/72/11 5/147/11
