# Blender 4.1.0
# www.blender.org
mtllib flamethrower.mtl
o Flamethrower
v -0.000000 -0.050000 -0.500000
v 0.000000 -0.100000 0.500000
v 0.000000 -0.050000 0.750000
v -0.000000 -0.275000 -1.000000
v 0.000000 -0.050000 0.500000
v -0.086602 -0.050000 0.500000
v -0.043301 -0.025000 0.750000
v -0.000000 -0.175000 -0.500000
v -0.043301 -0.025000 -0.500000
v -0.086602 0.050000 0.500000
v -0.043301 0.025000 0.750000
v -0.064952 -0.237500 -1.000000
v -0.043301 -0.025000 0.500000
v 0.000000 0.100000 0.500000
v 0.000000 0.050000 0.750000
v -0.064952 -0.137500 -0.500000
v -0.043301 0.025000 -0.500000
v 0.086603 0.050000 0.500000
v -0.064952 0.037500 -1.000000
v 0.043301 0.025000 0.750000
v 0.086603 -0.050000 0.500000
v -0.043301 0.025000 0.500000
v -0.064952 0.037500 -0.500000
v 0.043301 -0.025000 0.750000
v -0.000000 0.050000 -0.500000
v -0.000000 0.075000 -1.000000
v 0.000000 0.050000 0.500000
v -0.000000 0.075000 -0.500000
v 0.043301 0.025000 -0.500000
v 0.064952 0.037500 -1.000000
v 0.043301 0.025000 0.500000
v 0.064952 0.037500 -0.500000
v 0.043301 -0.025000 -0.500000
v 0.064952 -0.237500 -1.000000
v 0.043301 -0.025000 0.500000
v 0.064952 -0.137500 -0.500000
vn -0.5000 -0.8660 -0.0000
vn -1.0000 -0.0000 -0.0000
vn -0.5000 0.8660 -0.0000
vn 0.5000 0.8660 -0.0000
vn -0.0000 -0.0000 1.0000
vn 1.0000 -0.0000 -0.0000
vn 0.5000 -0.8660 -0.0000
vn -0.0000 -0.0000 -1.0000
vn -0.4927 -0.8533 0.1707
vn 0.4927 -0.8533 0.1707
vn -0.9853 -0.0000 0.1707
vn -0.4927 0.8533 0.1707
vn 0.4927 0.8533 0.1707
vn 0.9853 -0.0000 0.1707
vt 1.000000 0.500000
vt 1.000000 1.000000
vt 0.833333 1.000000
vt 0.833333 0.500000
vt 0.666667 1.000000
vt 0.666667 0.500000
vt 0.500000 1.000000
vt 0.500000 0.500000
vt 0.333333 1.000000
vt 0.333333 0.500000
vt 0.250000 0.010000
vt 0.457846 0.130000
vt 0.457846 0.370000
vt 0.042154 0.130000
vt 0.042154 0.370000
vt 0.166667 1.000000
vt 0.166667 0.500000
vt -0.000000 1.000000
vt -0.000000 0.500000
vt 0.542154 0.370000
vt 0.750000 0.490000
vt 0.957846 0.370000
vt 0.957846 0.130000
vt 0.750000 0.010000
vt 0.542154 0.130000
vt 0.250000 0.071971
vt 0.388564 0.137395
vt 0.250000 0.250000
vt 0.111436 0.137395
vt 0.250000 0.490000
vt 0.853923 0.430000
vt 0.646077 0.430000
s 0
f 1/1/1 5/2/1 13/3/1 9/4/1
f 9/4/2 13/3/2 22/5/2 17/6/2
f 17/6/3 22/5/3 27/7/3 25/8/3
f 25/8/4 27/7/4 31/9/4 29/10/4
f 27/11/5 22/12/5 13/13/5
f 31/14/5 27/11/5 35/15/5
f 29/10/6 31/9/6 35/16/6 33/17/6
f 33/17/7 35/16/7 5/18/7 1/19/7
f 33/20/8 1/21/8 9/22/8 17/23/8 25/24/8 29/25/8
f 4/1/9 8/2/9 16/3/9 12/4/9
f 12/4/2 16/3/2 23/5/2 19/6/2
f 19/6/3 23/5/3 28/7/3 26/8/3
f 26/8/4 28/7/4 32/9/4 30/10/4
f 25/26/5 17/27/5 1/28/5 29/29/5
f 28/11/5 23/12/5 17/27/5 25/26/5 29/29/5 32/14/5
f 32/14/5 29/29/5 1/28/5 17/27/5 23/12/5 16/13/5 8/30/5 36/15/5
f 30/10/6 32/9/6 36/16/6 34/17/6
f 34/17/10 36/16/10 8/18/10 4/19/10
f 30/25/8 34/20/8 4/21/8 12/22/8 19/23/8 26/24/8
f 2/1/9 3/2/9 7/3/9 6/4/9
f 6/4/11 7/3/11 11/5/11 10/6/11
f 10/6/12 11/5/12 15/7/12 14/8/12
f 14/8/13 15/7/13 20/9/13 18/10/13
f 20/15/5 15/30/5 11/12/5 7/12/5 3/30/5 24/15/5
f 18/10/14 20/9/14 24/16/14 21/17/14
f 21/17/10 24/16/10 3/18/10 2/19/10
f 14/21/8 27/21/8 13/31/8 6/22/8 10/22/8
f 6/22/8 13/31/8 5/21/8 35/32/8 27/21/8 14/21/8 18/20/8 21/20/8 2/21/8
o GasTank
v -0.000000 -0.395728 -0.175728
v -0.000000 -0.021845 0.198155
v -0.000000 -0.450971 -0.054194
v -0.000000 -0.185806 0.210971
v -0.108253 -0.406777 -0.098388
v -0.108253 -0.141612 0.166777
v -0.108253 -0.318388 -0.186777
v -0.108253 -0.053223 0.078388
v 0.000000 -0.274194 -0.230971
v -0.000000 -0.009029 0.034194
v 0.108253 -0.318388 -0.186777
v 0.108253 -0.053223 0.078388
v 0.108253 -0.406777 -0.098388
v 0.108253 -0.141612 0.166777
vn -0.1987 -0.8922 -0.4056
vn -0.3513 0.0730 0.9334
vn -0.5000 -0.6124 0.6124
vn -0.3974 -0.6489 -0.6489
vn -0.7026 0.5032 0.5032
vn -1.0000 -0.0000 -0.0000
vn -0.1987 -0.4056 -0.8922
vn -0.3513 0.9334 0.0730
vn -0.5000 0.6124 -0.6124
vn 0.1987 -0.4056 -0.8922
vn 0.3513 0.9334 0.0730
vn 0.5000 0.6124 -0.6124
vn 0.3974 -0.6489 -0.6489
vn 0.7026 0.5032 0.5032
vn 1.0000 -0.0000 -0.0000
vn 0.1987 -0.8922 -0.4056
vn 0.3513 0.0730 0.9334
vn 0.5000 -0.6124 0.6124
vt 0.750000 0.250000
vt 0.750000 0.490000
vt 0.957846 0.370000
vt 0.250000 0.250000
vt 0.457846 0.370000
vt 0.250000 0.490000
vt 1.000000 0.500000
vt 1.000000 1.000000
vt 0.833333 1.000000
vt 0.833333 0.500000
vt 0.957846 0.130000
vt 0.457846 0.130000
vt 0.666667 1.000000
vt 0.666667 0.500000
vt 0.750000 0.010000
vt 0.250000 0.010000
vt 0.500000 1.000000
vt 0.500000 0.500000
vt 0.542154 0.130000
vt 0.042154 0.130000
vt 0.333333 1.000000
vt 0.333333 0.500000
vt 0.542154 0.370000
vt 0.042154 0.370000
vt 0.166667 1.000000
vt 0.166667 0.500000
vt -0.000000 1.000000
vt -0.000000 0.500000
s 0
f 37/33/15 39/34/15 41/35/15
f 38/36/16 42/37/16 40/38/16
f 39/39/17 40/40/17 42/41/17 41/42/17
f 37/33/18 41/35/18 43/43/18
f 38/36/19 44/44/19 42/37/19
f 41/42/20 42/41/20 44/45/20 43/46/20
f 37/33/21 43/43/21 45/47/21
f 38/36/22 46/48/22 44/44/22
f 43/46/23 44/45/23 46/49/23 45/50/23
f 37/33/24 45/47/24 47/51/24
f 38/36/25 48/52/25 46/48/25
f 45/50/26 46/49/26 48/53/26 47/54/26
f 37/33/27 47/51/27 49/55/27
f 38/36/28 50/56/28 48/52/28
f 47/54/29 48/53/29 50/57/29 49/58/29
f 37/33/30 49/55/30 39/34/30
f 38/36/31 40/38/31 50/56/31
f 49/58/32 50/57/32 40/59/32 39/60/32
