# Blender 4.0.2
# www.blender.org
mtllib hunting_rifle.mtl
o Body
v 0.060000 0.100000 -1.010000
v 0.040000 -0.030000 -0.920000
v 0.060000 0.080000 1.030000
v 0.040000 -0.130000 1.030000
v -0.060000 0.100000 -1.010000
v -0.040000 -0.030000 -0.920000
v -0.060000 0.080000 1.030000
v -0.040000 -0.130000 1.030000
v -0.040000 -0.180000 1.220000
v -0.060000 -0.020000 1.330000
v 0.060000 -0.020000 1.330000
v 0.040000 -0.180000 1.220000
v -0.040000 -0.350000 1.340000
v -0.060000 0.040000 1.400000
v 0.060000 0.040000 1.400000
v 0.040000 -0.350000 1.340000
v -0.040000 -0.260000 1.520000
v -0.060000 0.080000 2.000000
v 0.060000 0.080000 2.000000
v 0.040000 -0.260000 1.520000
v -0.040000 -0.500000 2.340000
v -0.060000 0.020000 2.060000
v 0.060000 0.020000 2.060000
v 0.040000 -0.500000 2.340000
v -0.040000 -0.450000 2.370000
v -0.060000 0.020000 2.350000
v 0.060000 0.020000 2.350000
v 0.040000 -0.450000 2.370000
v 0.100000 0.010000 -0.980000
v -0.100000 -0.025000 1.030000
v 0.100000 -0.025000 1.030000
v -0.100000 0.010000 -0.980000
v -0.100000 -0.100000 1.275000
v 0.100000 -0.100000 1.275000
v -0.100000 -0.155000 1.370000
v 0.100000 -0.155000 1.370000
v -0.100000 -0.090000 1.760000
v 0.100000 -0.090000 1.760000
v -0.100000 -0.240000 2.210000
v 0.100000 -0.240000 2.210000
v -0.060000 -0.015000 2.385000
v 0.060000 -0.015000 2.385000
vn -0.0000 1.0000 0.0098
vn -0.8492 -0.5075 -0.1458
vn -0.9249 0.3802 0.0052
vn -0.0000 -0.9987 -0.0512
vn 0.9249 0.3802 0.0052
vn -0.0000 -0.3162 -0.9487
vn -0.0000 0.7593 -0.6508
vn -0.0000 -0.9671 -0.2545
vn -0.0000 0.9487 0.3162
vn 0.9238 0.3647 0.1171
vn -0.9198 -0.3786 0.1029
vn -0.9025 -0.2976 -0.3114
vn -0.0000 -0.5767 -0.8170
vn 0.9594 0.2818 -0.0085
vn -0.0000 -0.9597 -0.2809
vn -0.0000 -0.8944 0.4472
vn 0.9726 0.2313 -0.0245
vn -0.0000 0.9978 -0.0665
vn -0.0000 1.0000 -0.0000
vn 0.9833 0.1684 0.0693
vn -0.0000 0.7071 0.7071
vn -0.9653 -0.2498 -0.0767
vn -0.9594 -0.0650 0.2744
vn -0.0000 -0.5145 0.8575
vn 0.9895 0.1439 0.0155
vn 0.9594 -0.0650 0.2744
vn -0.9895 0.1439 0.0155
vn -0.0000 -0.0345 0.9994
vn -0.9833 0.1684 0.0693
vn 0.9653 -0.2498 -0.0767
vn 0.9198 -0.3786 0.1029
vn 0.9025 -0.2976 -0.3114
vn -0.9594 0.2818 -0.0085
vn -0.9726 0.2313 -0.0245
vn 0.8492 -0.5075 -0.1458
vn -0.0000 -0.8320 -0.5547
vn 0.7657 -0.6428 -0.0219
vn -0.7657 -0.6428 -0.0219
vn -0.9238 0.3647 0.1171
vt 0.362511 0.000000
vt 0.397576 0.000000
vt 0.397576 0.595200
vt 0.362511 0.595200
vt 0.071663 0.594068
vt 0.099955 0.599267
vt 0.106455 0.656286
vt 0.083071 0.668044
vt 0.040209 0.590025
vt 0.119020 -0.000000
vt 0.144918 0.012063
vt 0.321602 0.031616
vt 0.344979 0.031616
vt 0.344979 0.599493
vt 0.321602 0.599493
vt 0.159152 0.012063
vt 0.185049 0.000000
vt 0.263861 0.590025
vt 0.232407 0.594068
vt 0.304070 0.012551
vt 0.315758 0.000000
vt 0.350823 0.000000
vt 0.362511 0.012551
vt 0.362511 0.684591
vt 0.397576 0.684591
vt 0.397576 0.703851
vt 0.362511 0.703851
vt 0.344979 0.656560
vt 0.321602 0.656560
vt 0.247545 0.680958
vt 0.220999 0.668044
vt 0.094946 0.697840
vt 0.150359 0.698238
vt 0.117021 0.746361
vt 0.060091 0.807686
vt 0.344979 0.698572
vt 0.321602 0.698572
vt 0.267698 0.698600
vt 0.209124 0.697840
vt 0.321602 0.746712
vt 0.344979 0.746712
vt 0.344979 0.994047
vt 0.321602 0.994047
vt 0.304070 0.870168
vt 0.243979 0.807686
vt 0.397576 0.878030
vt 0.362511 0.878030
vt 0.362511 0.896675
vt 0.397576 0.896675
vt 0.397576 0.981232
vt 0.362511 0.981232
vt 0.289306 0.890071
vt 0.219504 0.944086
vt 0.152035 0.993481
vt 0.084566 0.944086
vt 0.362511 0.992108
vt 0.397576 0.992108
vt 0.136415 1.000000
vt 0.011355 0.985435
vt 0.426797 0.139633
vt 0.403420 0.139633
vt 0.403420 0.123137
vt 0.426797 0.123137
vt 0.301327 0.973825
vt 0.292715 0.985435
vt 0.152035 0.993481
vt 0.167654 1.000000
vt 0.014764 0.890071
vt 0.002743 0.973825
vt 0.397576 0.000000
vt 0.432641 0.000000
vt 0.000000 0.870168
vt 0.187049 0.746361
vt 0.153711 0.698238
vt 0.197615 0.656286
vt 0.056525 0.680958
vt 0.036372 0.698600
vt 0.204115 0.599267
vt 0.152035 0.031802
vt 0.152035 0.031802
s 0
usemtl Material
f 1/1/1 5/2/1 7/3/1 3/4/1
f 30/5/2 8/6/2 9/7/2 33/8/2
f 30/5/3 7/9/3 5/10/3 32/11/3
f 6/12/4 2/13/4 4/14/4 8/15/4
f 29/16/5 1/17/5 3/18/5 31/19/5
f 32/20/6 5/21/6 1/22/6 29/23/6
f 11/24/7 10/25/7 14/26/7 15/27/7
f 8/15/8 4/14/8 12/28/8 9/29/8
f 3/4/9 7/3/9 10/25/9 11/24/9
f 31/19/10 3/18/10 11/30/10 34/31/10
f 35/32/11 13/33/11 17/34/11 37/35/11
f 33/8/12 9/7/12 13/33/12 35/32/12
f 9/29/13 12/28/13 16/36/13 13/37/13
f 34/31/14 11/30/14 15/38/14 36/39/14
f 17/40/15 20/41/15 24/42/15 21/43/15
f 13/37/16 16/36/16 20/41/16 17/40/16
f 36/39/17 15/38/17 19/44/17 38/45/17
f 15/27/18 14/26/18 18/46/18 19/47/18
f 23/48/19 22/49/19 26/50/19 27/51/19
f 38/45/20 19/44/20 23/52/20 40/53/20
f 19/47/21 18/46/21 22/49/21 23/48/21
f 37/35/22 17/34/22 21/54/22 39/55/22
f 42/56/21 27/51/21 26/50/21 41/57/21
f 39/55/23 21/54/23 25/58/23 41/59/23
f 21/60/24 24/61/24 28/62/24 25/63/24
f 40/53/25 23/52/25 27/64/25 42/65/25
f 24/66/26 40/53/26 42/65/26 28/67/26
f 22/68/27 39/55/27 41/59/27 26/69/27
f 28/62/28 42/70/28 41/71/28 25/63/28
f 18/72/29 37/35/29 39/55/29 22/68/29
f 20/73/30 38/45/30 40/53/30 24/66/30
f 16/74/31 36/39/31 38/45/31 20/73/31
f 12/75/32 34/31/32 36/39/32 16/74/32
f 10/76/33 33/8/33 35/32/33 14/77/33
f 14/77/34 35/32/34 37/35/34 18/72/34
f 4/78/35 31/19/35 34/31/35 12/75/35
f 6/12/36 32/20/36 29/23/36 2/13/36
f 2/79/37 29/16/37 31/19/37 4/78/37
f 8/6/38 30/5/38 32/11/38 6/80/38
f 7/9/39 30/5/39 33/8/39 10/76/39
o Barrel
v 0.000000 0.150000 -2.400000
v 0.000000 0.150000 1.000000
v 0.043301 0.125000 -2.400000
v 0.043301 0.125000 1.000000
v 0.043301 0.075000 -2.400000
v 0.043301 0.075000 1.000000
v 0.000000 0.050000 -2.400000
v 0.000000 0.050000 1.000000
v -0.043301 0.075000 -2.400000
v -0.043301 0.075000 1.000000
v -0.043301 0.125000 -2.400000
v -0.043301 0.125000 1.000000
vn 0.5000 0.8660 -0.0000
vn 1.0000 -0.0000 -0.0000
vn 0.5000 -0.8660 -0.0000
vn -0.5000 -0.8660 -0.0000
vn -0.0000 -0.0000 1.0000
vn -1.0000 -0.0000 -0.0000
vn -0.5000 0.8660 -0.0000
vn -0.0000 -0.0000 -1.0000
vt 1.000000 0.500000
vt 1.000000 1.000000
vt 0.833333 1.000000
vt 0.833333 0.500000
vt 0.666667 1.000000
vt 0.666667 0.500000
vt 0.500000 1.000000
vt 0.500000 0.500000
vt 0.333333 1.000000
vt 0.333333 0.500000
vt 0.457846 0.370000
vt 0.250000 0.490000
vt 0.042154 0.370000
vt 0.042154 0.130000
vt 0.250000 0.010000
vt 0.457846 0.130000
vt 0.166667 1.000000
vt 0.166667 0.500000
vt -0.000000 1.000000
vt -0.000000 0.500000
vt 0.750000 0.490000
vt 0.957846 0.370000
vt 0.957846 0.130000
vt 0.750000 0.010000
vt 0.542154 0.130000
vt 0.542154 0.370000
s 0
f 43/81/40 44/82/40 46/83/40 45/84/40
f 45/84/41 46/83/41 48/85/41 47/86/41
f 47/86/42 48/85/42 50/87/42 49/88/42
f 49/88/43 50/87/43 52/89/43 51/90/43
f 46/91/44 44/92/44 54/93/44 52/94/44 50/95/44 48/96/44
f 51/90/45 52/89/45 54/97/45 53/98/45
f 53/98/46 54/97/46 44/99/46 43/100/46
f 43/101/47 45/102/47 47/103/47 49/104/47 51/105/47 53/106/47
o Bolt
v 0.010000 0.110000 0.835000
v 0.141555 0.012500 0.940000
v -0.000825 0.091250 0.847500
v 0.119904 -0.000000 0.940000
v -0.000825 0.091250 0.872500
v 0.098253 0.012500 0.940000
v 0.010000 0.110000 0.885000
v 0.098253 0.037500 0.940000
v 0.020825 0.128750 0.872500
v 0.119904 0.050000 0.940000
v 0.020825 0.128750 0.847500
v 0.141555 0.037500 0.940000
v 0.122737 0.044911 0.850322
v 0.104257 0.030581 0.859161
v 0.088948 0.039419 0.876839
v 0.092119 0.062589 0.885678
v 0.110599 0.076919 0.876839
v 0.125908 0.068081 0.859161
v 0.120000 0.041500 1.003971
v 0.120000 0.062467 0.976647
v 0.120000 0.057971 0.942500
v 0.147557 0.026132 0.999853
v 0.158971 0.040733 0.970823
v 0.147557 0.042603 0.938382
v 0.147557 -0.004603 0.991618
v 0.158971 -0.002733 0.959177
v 0.147557 0.011868 0.930147
v 0.120000 -0.019971 0.987500
v 0.120000 -0.024467 0.953353
v 0.120000 -0.003500 0.926029
v 0.120000 0.030647 0.921533
v 0.120000 0.007353 1.008467
v 0.092443 -0.004603 0.991618
v 0.081029 -0.002733 0.959177
v 0.092443 0.011868 0.930147
v 0.092443 0.026132 0.999853
v 0.081029 0.040733 0.970823
v 0.092443 0.042603 0.938382
v -0.000000 0.140500 0.475000
v -0.000000 0.140500 0.925000
v 0.035074 0.120250 0.475000
v 0.035074 0.120250 0.925000
v 0.035074 0.079750 0.475000
v 0.035074 0.079750 0.925000
v 0.000000 0.059500 0.475000
v 0.000000 0.059500 0.925000
v -0.035074 0.079750 0.475000
v -0.035074 0.079750 0.925000
v -0.035074 0.120250 0.475000
v -0.035074 0.120250 0.925000
vn 0.4517 -0.8034 -0.3881
vn -0.5645 -0.7956 -0.2199
vn -0.9884 0.0381 0.1468
vn -0.4424 0.7971 0.4110
vn -0.0000 -0.0000 1.0000
vn 0.5645 0.7956 0.2199
vn 0.9779 -0.0263 -0.2074
vn -0.8660 0.5000 -0.0000
vn 0.3100 0.3471 -0.8851
vn 0.5000 0.8660 -0.0000
vn 0.2032 0.3972 0.8949
vn -0.2424 -0.3746 0.8949
vn -0.5000 -0.8660 -0.0000
vn -0.1455 -0.4420 -0.8851
vn 0.2157 0.1275 0.9681
vn 0.2157 0.5944 -0.7747
vn 0.4706 0.7000 0.5371
vn 0.4706 0.8748 -0.1152
vn 0.4315 0.2335 -0.8714
vn 0.9413 -0.0874 0.3261
vn 0.9413 0.0874 -0.3261
vn 0.4315 -0.2335 0.8714
vn 0.2157 -0.1275 -0.9681
vn 0.4706 -0.8748 0.1152
vn 0.4706 -0.7000 -0.5371
vn 0.2157 -0.5944 0.7747
vn -0.2157 -0.5944 0.7747
vn -0.2157 -0.1275 -0.9681
vn -0.4706 -0.8748 0.1152
vn -0.4706 -0.7000 -0.5371
vn -0.9413 0.0874 -0.3261
vn -0.4315 -0.2335 0.8714
vn -0.4315 0.2335 -0.8714
vn -0.9413 -0.0874 0.3261
vn -0.4706 0.8748 -0.1152
vn -0.2157 0.1275 0.9681
vn -0.2157 0.5944 -0.7747
vn -0.4706 0.7000 0.5371
vn 1.0000 -0.0000 -0.0000
vn 0.5000 -0.8660 -0.0000
vn -1.0000 -0.0000 -0.0000
vn -0.5000 0.8660 -0.0000
vn -0.0000 -0.0000 -1.0000
vt 1.000000 0.875000
vt 1.000000 1.000000
vt 0.833333 1.000000
vt 0.833333 0.875000
vt 0.666667 1.000000
vt 0.666667 0.875000
vt 0.500000 1.000000
vt 0.500000 0.875000
vt 0.333333 1.000000
vt 0.333333 0.875000
vt 0.457846 0.370000
vt 0.250000 0.490000
vt 0.042154 0.370000
vt 0.042154 0.130000
vt 0.250000 0.010000
vt 0.457846 0.130000
vt 0.166667 1.000000
vt 0.166667 0.875000
vt -0.000000 1.000000
vt -0.000000 0.875000
vt 0.750000 0.490000
vt 0.957846 0.370000
vt 0.957846 0.130000
vt 0.750000 0.010000
vt 0.542154 0.130000
vt 0.542154 0.370000
vt 0.166667 0.500000
vt -0.000000 0.500000
vt 0.333333 0.500000
vt 0.500000 0.500000
vt 0.666667 0.500000
vt 0.833333 0.500000
vt 1.000000 0.500000
vt 0.666667 0.750000
vt 0.583333 1.000000
vt 0.500000 0.750000
vt 0.583333 0.000000
vt 0.666667 0.250000
vt 0.500000 0.250000
vt 0.666667 0.500000
vt 0.500000 0.500000
vt 0.416667 0.000000
vt 0.333333 0.250000
vt 0.333333 0.750000
vt 0.333333 0.500000
vt 0.416667 1.000000
vt 0.250000 0.000000
vt 0.166667 0.250000
vt 0.166667 0.750000
vt 0.166667 0.500000
vt 0.250000 1.000000
vt 0.083333 1.000000
vt 0.000000 0.750000
vt 0.083333 0.000000
vt 0.000000 0.250000
vt 0.000000 0.500000
vt 1.000000 0.250000
vt 1.000000 0.500000
vt 0.833333 0.250000
vt 1.000000 0.750000
vt 0.916667 1.000000
vt 0.833333 0.750000
vt 0.916667 0.000000
vt 0.750000 1.000000
vt 0.750000 0.000000
vt 0.457846 0.370000
vt 0.250000 0.490000
vt 0.042154 0.370000
vt 0.042154 0.130000
vt 0.957846 0.370000
vt 0.957846 0.130000
vt 0.542154 0.130000
vt 0.542154 0.370000
s 0
f 67/107/48 56/108/48 58/109/48 68/110/48
f 68/110/49 58/109/49 60/111/49 69/112/49
f 69/112/50 60/111/50 62/113/50 70/114/50
f 70/114/51 62/113/51 64/115/51 71/116/51
f 58/117/52 56/118/52 66/119/52 64/120/52 62/121/52 60/122/52
f 71/116/53 64/115/53 66/123/53 72/124/53
f 72/124/54 66/123/54 56/125/54 67/126/54
f 55/127/55 57/128/55 59/129/55 61/130/55 63/131/55 65/132/55
f 65/133/56 72/124/56 67/126/56 55/134/56
f 63/135/57 71/116/57 72/124/57 65/133/57
f 61/136/58 70/114/58 71/116/58 63/135/58
f 59/137/59 69/112/59 70/114/59 61/136/59
f 57/138/60 68/110/60 69/112/60 59/137/60
f 55/139/61 67/107/61 68/110/61 57/138/61
f 73/140/62 86/141/62 76/142/62
f 85/143/63 75/144/63 78/145/63
f 74/146/64 73/140/64 76/142/64 77/147/64
f 75/144/65 74/146/65 77/147/65 78/145/65
f 85/148/66 78/145/66 81/149/66
f 77/147/67 76/142/67 79/150/67 80/151/67
f 78/145/68 77/147/68 80/151/68 81/149/68
f 76/142/69 86/152/69 79/150/69
f 85/153/70 81/149/70 84/154/70
f 80/151/71 79/150/71 82/155/71 83/156/71
f 81/149/72 80/151/72 83/156/72 84/154/72
f 79/150/73 86/157/73 82/155/73
f 82/155/74 86/158/74 87/159/74
f 85/160/75 84/154/75 89/161/75
f 83/156/76 82/155/76 87/159/76 88/162/76
f 84/154/77 83/156/77 88/162/77 89/161/77
f 89/163/78 88/164/78 91/138/78 92/165/78
f 87/166/79 86/167/79 90/168/79
f 85/169/80 89/163/80 92/165/80
f 88/164/81 87/166/81 90/168/81 91/138/81
f 92/165/82 91/138/82 74/146/82 75/144/82
f 90/168/83 86/170/83 73/140/83
f 85/171/84 92/165/84 75/144/84
f 91/138/85 90/168/85 73/140/85 74/146/85
f 93/139/57 94/108/57 96/109/57 95/138/57
f 95/138/86 96/109/86 98/111/86 97/137/86
f 97/137/87 98/111/87 100/113/87 99/136/87
f 99/136/60 100/113/60 102/115/60 101/135/60
f 96/172/52 94/173/52 104/174/52 102/175/52 100/121/52 98/122/52
f 101/135/88 102/115/88 104/123/88 103/133/88
f 103/133/89 104/123/89 94/125/89 93/134/89
f 93/127/90 95/176/90 97/177/90 99/130/90 101/178/90 103/179/90
