# Blender 3.6.2
# www.blender.org
mtllib muzzleFlash.mtl
o MuzzleFlash
v 0.000000 0.000000 0.500000
v 0.000000 -1.000000 0.000000
v 0.707107 -0.707107 0.000000
v 1.000000 0.000000 -0.000000
v 0.707107 0.707107 -0.000000
v 0.000000 1.000000 -0.000000
v -0.707107 0.707107 -0.000000
v -1.000000 0.000000 -0.000000
v -0.707107 -0.707107 0.000000
v 0.000000 -0.000000 -4.000000
vn 0.1821 -0.4397 0.8795
vn 0.3729 -0.9002 -0.2250
vn 0.4397 -0.1821 0.8795
vn 0.9002 -0.3729 -0.2250
vn 0.4397 0.1821 0.8795
vn 0.9002 0.3729 -0.2250
vn 0.1821 0.4397 0.8795
vn 0.3729 0.9002 -0.2250
vn -0.1821 0.4397 0.8795
vn -0.3729 0.9002 -0.2250
vn -0.4397 0.1821 0.8795
vn -0.9002 0.3729 -0.2250
vn -0.4397 -0.1821 0.8795
vn -0.9002 -0.3729 -0.2250
vn -0.1821 -0.4397 0.8795
vn -0.3729 -0.9002 -0.2250
vt 0.750000 0.250000
vt 0.750000 0.490000
vt 0.919706 0.419706
vt 0.250000 0.490000
vt 0.250000 0.250000
vt 0.419706 0.419706
vt 0.990000 0.250000
vt 0.490000 0.250000
vt 0.919706 0.080294
vt 0.419706 0.080294
vt 0.750000 0.010000
vt 0.250000 0.010000
vt 0.580294 0.080294
vt 0.080294 0.080294
vt 0.510000 0.250000
vt 0.010000 0.250000
vt 0.580294 0.419706
vt 0.080294 0.419706
s 0
f 1/1/1 2/2/1 3/3/1
f 2/4/2 10/5/2 3/6/2
f 1/1/3 3/3/3 4/7/3
f 3/6/4 10/5/4 4/8/4
f 1/1/5 4/7/5 5/9/5
f 4/8/6 10/5/6 5/10/6
f 1/1/7 5/9/7 6/11/7
f 5/10/8 10/5/8 6/12/8
f 1/1/9 6/11/9 7/13/9
f 6/12/10 10/5/10 7/14/10
f 1/1/11 7/13/11 8/15/11
f 7/14/12 10/5/12 8/16/12
f 1/1/13 8/15/13 9/17/13
f 8/16/14 10/5/14 9/18/14
f 1/1/15 9/17/15 2/2/15
f 9/18/16 10/5/16 2/4/16
