# Blender 3.6.4
# www.blender.org
mtllib muzzle_flash_plasma.mtl
o PlasmaFlash
v -0.000000 -0.000000 0.100000
v -0.000000 -0.000000 0.100000
v 0.000000 0.000000 -0.800000
v -0.346410 -0.200000 -0.000000
v 0.000000 0.400000 0.000000
v 0.346410 -0.200000 -0.000000
v -0.096108 0.000000 -0.031138
v 0.000000 0.090323 -0.077419
v -0.061005 0.035221 -0.030190
v -0.056772 -0.032777 -0.083611
v -0.000000 -0.099872 -0.001024
v 0.056772 -0.032777 -0.083611
v 0.096108 -0.000000 -0.031138
v -0.000000 -0.099872 -0.001024
v 0.000000 0.090323 -0.077419
v 0.061005 0.035221 -0.030190
v -0.087387 0.050453 0.000000
v -0.000000 0.000000 0.100000
v 0.000000 -0.000000 0.100000
v -0.000000 -0.100906 -0.000000
v 0.087387 0.050453 0.000000
vn -0.7044 0.7044 -0.0880
vn -0.7044 -0.7044 -0.0880
vn 0.7044 -0.7044 -0.0880
vn 0.7044 0.7044 -0.0880
vn -0.4989 0.5160 -0.6963
vn -0.4989 0.5160 0.6963
vn -0.0000 -0.0000 -1.0000
vn 0.1974 -0.6901 0.6963
vn 0.1974 -0.6901 -0.6963
vn 0.6963 0.1741 -0.6963
vn 0.6963 0.1741 0.6963
vn -0.6963 0.1741 0.6963
vn -0.6963 0.1741 -0.6963
vn -0.1974 -0.6901 -0.6963
vn -0.1974 -0.6901 0.6963
vn 0.4989 0.5160 0.6963
vn 0.4989 0.5160 -0.6963
vt 0.480659 0.250000
vt 0.396412 0.334531
vt 0.250000 0.466774
vt 0.250000 0.250000
vt 0.386252 0.171335
vt 0.250000 0.010307
vt 0.113748 0.171335
vt 0.250000 0.010307
vt 0.250000 0.010307
vt 0.019341 0.250000
vt 0.250000 0.466774
vt 0.103588 0.334531
vt 0.459728 0.250000
vt 0.396412 0.322455
vt 0.365329 0.324732
vt 0.250000 0.450668
vt 0.250000 0.010000
vt 0.750000 0.010000
vt 0.750000 0.010000
vt 0.750000 0.010000
vt 0.750000 0.010000
vt 0.040272 0.250000
vt 0.250000 0.010000
vt 0.042420 0.252458
vt 0.042420 0.252458
vt 0.396412 0.322455
vt 0.250000 0.435806
vt 0.040272 0.250000
vt 0.250000 0.435806
vt 0.103588 0.322455
vt 0.459728 0.250000
vt 0.457580 0.252458
vt 0.134671 0.324732
vt 0.103588 0.322455
s 0
f 7/1/1 9/2/1 8/3/1 3/4/1
f 10/5/2 7/1/2 3/4/2 11/6/2
f 12/7/3 14/8/3 11/9/3 3/4/3 13/10/3
f 15/11/4 16/12/4 13/10/4 3/4/4 8/3/4
f 17/13/5 9/14/5 7/15/5 10/16/5 4/4/5
f 17/13/6 4/4/6 1/17/6 18/17/6
f 2/18/7 18/19/7 1/20/7 19/21/7
f 1/17/8 4/4/8 20/22/8 19/23/8
f 10/16/9 11/24/9 14/25/9 20/22/9 4/4/9
f 21/13/10 16/26/10 15/27/10 5/4/10
f 5/4/11 2/17/11 21/13/11
f 2/17/12 5/4/12 17/28/12 18/17/12
f 8/29/13 9/30/13 17/28/13 5/4/13 15/27/13
f 20/31/14 14/32/14 12/16/14 6/4/14
f 6/4/15 2/17/15 19/17/15 20/31/15
f 6/4/16 21/22/16 2/17/16
f 13/33/17 16/34/17 21/22/17 6/4/17 12/16/17
