# Blender 4.0.1
# www.blender.org
mtllib nailgun.mtl
o Body
v 0.100000 -0.055000 -0.300000
v 0.050000 0.040000 0.300000
v 0.100000 -0.000000 -0.300000
v 0.050000 0.040000 0.100000
v 0.100000 -0.050000 0.100000
v 0.021716 0.028284 0.300000
v 0.100000 0.050000 0.100000
v 0.021716 0.028284 0.100000
v -0.000000 -0.105000 -0.300000
v 0.010000 -0.000000 0.300000
v 0.010000 -0.000000 0.100000
v -0.000000 0.050000 -0.300000
v 0.021716 -0.028284 0.300000
v 0.021716 -0.028284 0.100000
v 0.050000 -0.040000 0.300000
v 0.050000 -0.040000 0.100000
v 0.078284 -0.028284 0.300000
v 0.078284 -0.028284 0.100000
v 0.090000 -0.000000 0.300000
v 0.090000 -0.000000 0.100000
v 0.078284 0.028284 0.300000
v 0.078284 0.028284 0.100000
v 0.082929 0.017071 0.100000
v 0.000000 -0.080000 0.100000
v 0.000000 0.100000 0.100000
v -0.100000 -0.055000 -0.300000
v -0.050000 0.040000 0.300000
v -0.100000 -0.000000 -0.300000
v -0.050000 0.040000 0.100000
v -0.100000 -0.050000 0.100000
v -0.021716 0.028284 0.300000
v -0.100000 0.050000 0.100000
v -0.021716 0.028284 0.100000
v -0.010000 -0.000000 0.300000
v -0.010000 -0.000000 0.100000
v -0.021716 -0.028284 0.300000
v -0.021716 -0.028284 0.100000
v -0.050000 -0.040000 0.300000
v -0.050000 -0.040000 0.100000
v -0.078284 -0.028284 0.300000
v -0.078284 -0.028284 0.100000
v -0.090000 -0.000000 0.300000
v -0.090000 -0.000000 0.100000
v -0.078284 0.028284 0.300000
v -0.078284 0.028284 0.100000
v -0.082929 0.017071 0.100000
v -0.100000 -0.050000 -0.100000
v -0.100000 0.050000 -0.100000
v 0.100000 -0.050000 -0.100000
v 0.100000 0.050000 -0.100000
v -0.000000 0.100000 -0.100000
v -0.000000 -0.080000 -0.100000
vn 1.0000 -0.0000 -0.0000
vn -0.0000 -0.0000 1.0000
vn -0.0000 -0.0000 -1.0000
vn 0.2873 -0.9578 -0.0000
vn 0.4364 0.8729 -0.2182
vn -0.3827 0.9239 -0.0000
vn -0.9239 0.3827 -0.0000
vn -0.9239 -0.3827 -0.0000
vn -0.3827 -0.9239 -0.0000
vn 0.3827 -0.9239 -0.0000
vn 0.9239 -0.3827 -0.0000
vn 0.9239 0.3827 -0.0000
vn 0.3827 0.9239 -0.0000
vn -1.0000 -0.0000 -0.0000
vn -0.2873 -0.9578 -0.0000
vn -0.4364 0.8729 -0.2182
vn -0.4472 0.8944 -0.0000
vn 0.4472 0.8944 -0.0000
vn 0.4471 -0.8942 0.0224
vn -0.2853 -0.9510 0.1189
vn -0.4471 -0.8942 0.0224
vn 0.2853 -0.9510 0.1189
vt 0.481141 0.709880
vt 0.236627 0.709880
vt 0.236627 0.473253
vt 0.394378 0.473253
vt 0.236627 0.727584
vt 0.202370 0.693328
vt 0.220851 0.648709
vt 0.202370 0.604090
vt 0.157751 0.585608
vt 0.113132 0.604090
vt 0.105805 0.621779
vt 0.000000 0.569833
vt 0.236627 0.490958
vt 0.157751 0.711809
vt 0.000000 0.727584
vt 0.094651 0.648709
vt 0.113132 0.693328
vt 0.567904 0.883406
vt 0.567904 0.473253
vt 0.804530 0.552129
vt 0.804530 0.883406
vt 0.236627 0.245479
vt 0.000000 0.245479
vt 0.000000 0.000000
vt 0.236626 0.000000
vt 0.646779 0.236627
vt 0.896048 0.236627
vt 0.896048 0.473253
vt 0.646779 0.473253
vt 0.124577 0.727584
vt 0.124577 0.964211
vt 0.089237 0.964211
vt 0.089237 0.727584
vt 0.804530 0.946987
vt 0.804530 0.710360
vt 0.849149 0.710360
vt 0.849149 0.946987
vt 0.893768 0.710360
vt 0.893768 0.946987
vt 0.893768 0.473253
vt 0.893768 0.708094
vt 0.849149 0.710360
vt 0.849149 0.475519
vt 0.804530 0.708094
vt 0.804530 0.473253
vt 0.089237 0.727584
vt 0.089237 0.964211
vt 0.044619 0.964211
vt 0.044619 0.727584
vt -0.000000 0.727584
vt 0.017689 0.964211
vt 0.000000 0.964211
vt 0.172841 0.727584
vt 0.172841 0.964211
vt 0.567904 0.965850
vt 0.567904 0.917555
vt 0.602053 0.883406
vt 0.650348 0.883406
vt 0.684498 0.917555
vt 0.684498 0.965850
vt 0.650348 1.000000
vt 0.602053 1.000000
vt 0.236627 0.473253
vt 0.236627 0.236627
vt 0.236626 0.000000
vt 0.646779 -0.000000
vt 0.560016 0.236627
vt 0.473253 0.473253
vt 0.567904 0.946506
vt 0.236627 0.946506
vt 0.646779 -0.000000
vt 0.896048 -0.000000
vt 0.236627 0.490958
vt 0.000000 0.490958
s 0
f 49/1/1 50/2/1 7/3/1 5/4/1
f 24/5/2 14/6/2 11/7/2 8/8/2 4/9/2 22/10/2 23/11/2 7/12/2 25/13/2
f 16/14/2 14/6/2 24/5/2 5/15/2 7/12/2 23/11/2 20/16/2 18/17/2
f 9/18/3 12/19/3 3/20/3 1/21/3
f 52/22/4 49/23/4 5/24/4 24/25/4
f 51/26/5 50/27/5 3/28/5 12/29/5
f 47/1/14 30/4/14 32/3/14 48/2/14
f 24/5/2 25/13/2 32/12/2 46/11/2 45/10/2 29/9/2 33/8/2 35/7/2 37/6/2
f 39/14/2 41/17/2 43/16/2 46/11/2 32/12/2 30/15/2 24/5/2 37/6/2
f 9/18/3 26/21/3 28/20/3 12/19/3
f 52/22/15 24/25/15 30/24/15 47/23/15
f 51/26/16 12/29/16 28/28/16 48/27/16
f 26/69/14 47/1/14 48/2/14 28/70/14
f 1/69/1 3/70/1 50/2/1 49/1/1
f 25/71/17 51/26/17 48/27/17 32/72/17
f 25/71/18 7/72/18 50/27/18 51/26/18
f 9/73/19 1/74/19 49/23/19
f 9/73/20 52/22/20 47/23/20
f 26/74/21 9/73/21 47/23/21
f 52/22/22 9/73/22 49/23/22
f 2/30/6 4/31/6 8/32/6 6/33/6
f 6/34/7 8/35/7 11/36/7 10/37/7
f 10/37/8 11/36/8 14/38/8 13/39/8
f 13/40/9 14/41/9 16/42/9 15/43/9
f 15/43/10 16/42/10 18/44/10 17/45/10
f 17/46/11 18/47/11 20/48/11 19/49/11
f 21/50/12 19/49/12 20/48/12 23/51/12 22/52/12
f 4/31/13 2/30/13 21/53/13 22/54/13
f 21/55/2 2/56/2 6/57/2 10/58/2 13/59/2 15/60/2 17/61/2 19/62/2
f 25/63/14 51/64/14 12/65/14 9/66/14 52/67/14 24/68/14
f 27/30/13 31/33/13 33/32/13 29/31/13
f 31/34/12 34/37/12 35/36/12 33/35/12
f 34/37/11 36/39/11 37/38/11 35/36/11
f 36/40/10 38/43/10 39/42/10 37/41/10
f 38/43/9 40/45/9 41/44/9 39/42/9
f 40/46/8 42/49/8 43/48/8 41/47/8
f 44/50/7 45/52/7 46/51/7 43/48/7 42/49/7
f 29/31/6 45/54/6 44/53/6 27/30/6
f 44/55/2 42/62/2 40/61/2 38/60/2 36/59/2 34/58/2 31/57/2 27/56/2
o BarrelL
v 0.050000 0.025000 0.500000
v 0.050000 0.035000 0.600000
v 0.050000 0.025000 0.000000
v 0.050000 0.035000 0.500000
v 0.032322 0.017678 0.500000
v 0.025251 0.024749 0.600000
v 0.032322 0.017678 0.000000
v 0.025251 0.024749 0.500000
v 0.025000 0.000000 0.500000
v 0.015000 0.000000 0.600000
v 0.025000 -0.000000 0.000000
v 0.015000 0.000000 0.500000
v 0.032322 -0.017678 0.500000
v 0.025251 -0.024749 0.600000
v 0.032322 -0.017678 0.000000
v 0.025251 -0.024749 0.500000
v 0.050000 -0.025000 0.500000
v 0.050000 -0.035000 0.600000
v 0.050000 -0.025000 0.000000
v 0.050000 -0.035000 0.500000
v 0.067678 -0.017678 0.500000
v 0.074749 -0.024749 0.600000
v 0.067678 -0.017678 0.000000
v 0.074749 -0.024749 0.500000
v 0.075000 0.000000 0.500000
v 0.085000 0.000000 0.600000
v 0.075000 -0.000000 0.000000
v 0.085000 0.000000 0.500000
v 0.067678 0.017678 0.500000
v 0.074749 0.024749 0.600000
v 0.067678 0.017678 0.000000
v 0.074749 0.024749 0.500000
vn -0.3827 0.9239 -0.0000
vn -0.9239 0.3827 -0.0000
vn -0.9239 -0.3827 -0.0000
vn -0.3827 -0.9239 -0.0000
vn 0.3827 -0.9239 -0.0000
vn 0.9239 -0.3827 -0.0000
vn -0.0000 -0.0000 -1.0000
vn 0.9239 0.3827 -0.0000
vn 0.3827 0.9239 -0.0000
vn -0.0000 -0.0000 1.0000
vt 0.734200 0.342011
vt 0.734200 0.000000
vt 0.826748 0.000000
vt 0.826748 0.342011
vt 0.957630 0.000000
vt 0.957630 0.342011
vt 0.510770 0.684023
vt 0.510770 0.342011
vt 0.603318 0.342011
vt 0.603318 0.684023
vt 0.734200 0.342011
vt 0.734200 0.684023
vt 0.826748 0.342011
vt 0.826748 0.684023
vt 0.957630 0.342011
vt 0.957630 0.684023
vt 0.510770 0.776570
vt 0.603318 0.684023
vt 0.734200 0.684023
vt 0.826748 0.776570
vt 0.826748 0.907452
vt 0.734200 1.000000
vt 0.603318 1.000000
vt 0.510770 0.907452
vt 0.510770 0.342011
vt 0.510770 0.000000
vt 0.603318 0.000000
vt 0.603318 0.342011
vt 0.510770 0.129567
vt 0.442368 0.129567
vt 0.442368 0.000000
vt 0.510770 0.000000
vt 0.510770 0.938405
vt 0.442368 0.938405
vt 0.442368 0.755170
vt 0.510770 0.755170
vt 0.510770 0.755170
vt 0.442368 0.755170
vt 0.442368 0.625603
vt 0.510770 0.625603
vt 0.442368 0.442368
vt 0.510770 0.442368
vt 0.895150 0.996824
vt 0.826748 0.996824
vt 0.826748 0.867258
vt 0.895150 0.867258
vt 0.826748 0.684023
vt 0.895150 0.684023
vt 0.286625 0.063195
vt 0.155743 0.063195
vt 0.063195 0.155743
vt 0.063195 0.286625
vt 0.155743 0.379173
vt 0.286625 0.379173
vt 0.312802 0.442368
vt 0.129567 0.442368
vt -0.000000 0.312802
vt -0.000000 0.129567
vt 0.129567 -0.000000
vt 0.312802 -0.000000
vt 0.379173 0.155743
vt 0.442368 0.312802
vt 0.379173 0.286625
vt 0.510770 0.442368
vt 0.442368 0.442368
vt 0.442368 0.312802
vt 0.510770 0.312802
vt 0.442368 0.571935
vt 0.442368 0.755170
vt 0.312802 0.884736
vt 0.129567 0.884736
vt -0.000000 0.755170
vt -0.000000 0.571935
vt 0.129567 0.442368
vt 0.312802 0.442368
s 0
f 53/75/23 55/76/23 59/77/23 57/78/23
f 57/78/24 59/77/24 63/79/24 61/80/24
f 61/81/25 63/82/25 67/83/25 65/84/25
f 65/84/26 67/83/26 71/85/26 69/86/26
f 69/86/27 71/85/27 75/87/27 73/88/27
f 73/88/28 75/87/28 79/89/28 77/90/28
f 71/91/29 67/92/29 63/93/29 59/94/29 55/95/29 83/96/29 79/97/29 75/98/29
f 77/99/30 79/100/30 83/101/30 81/102/30
f 83/101/31 55/76/31 53/75/31 81/102/31
f 54/103/23 56/104/23 60/105/23 58/106/23
f 58/107/24 60/108/24 64/109/24 62/110/24
f 62/111/25 64/112/25 68/113/25 66/114/25
f 66/114/26 68/113/26 72/115/26 70/116/26
f 70/117/27 72/118/27 76/119/27 74/120/27
f 74/120/28 76/119/28 80/121/28 78/122/28
f 73/123/29 77/124/29 81/125/29 53/126/29 57/127/29 61/128/29 64/129/29 60/130/29 56/131/29 84/132/29 80/133/29 76/134/29 72/104/29 69/135/29
f 68/136/29 64/129/29 61/128/29 65/137/29 69/135/29 72/104/29
f 78/138/30 80/139/30 84/140/30 82/141/30
f 82/141/31 84/140/31 56/104/31 54/103/31
f 82/142/32 54/143/32 58/144/32 62/145/32 66/146/32 70/147/32 74/148/32 78/149/32
o Magazine
v -0.450000 -0.025000 0.050000
v -0.450000 0.025000 0.050000
v -0.450000 -0.025000 -0.050000
v -0.450000 0.025000 -0.050000
v -0.050000 -0.025000 0.050000
v -0.050000 0.025000 0.050000
v -0.050000 -0.025000 -0.050000
v -0.050000 0.025000 -0.050000
vn -1.0000 -0.0000 -0.0000
vn -0.0000 -0.0000 -1.0000
vn 1.0000 -0.0000 -0.0000
vn -0.0000 -0.0000 1.0000
vn -0.0000 -1.0000 -0.0000
vn -0.0000 1.0000 -0.0000
vt 0.000000 0.333333
vt 0.000000 0.000000
vt 0.333333 0.000000
vt 0.333333 0.333333
vt 0.000000 0.666667
vt 0.333333 0.666667
vt 0.666667 0.333333
vt 0.333333 0.000000
vt 0.666667 -0.000000
vt 0.666667 0.666667
vt 0.333333 0.333333
vt 0.333333 1.000000
vt 0.000000 1.000000
vt 0.666667 1.000000
s 0
f 85/150/33 86/151/33 88/152/33 87/153/33
f 87/154/34 88/150/34 92/153/34 91/155/34
f 91/156/35 92/153/35 90/157/35 89/158/35
f 89/159/36 90/155/36 86/160/36 85/156/36
f 87/161/37 91/162/37 89/154/37 85/155/37
f 92/163/38 88/161/38 86/155/38 90/159/38
o BarrelR
v -0.050000 0.025000 0.500000
v -0.050000 0.035000 0.600000
v -0.050000 0.025000 0.000000
v -0.050000 0.035000 0.500000
v -0.067678 0.017678 0.500000
v -0.074749 0.024749 0.600000
v -0.067678 0.017678 0.000000
v -0.074749 0.024749 0.500000
v -0.075000 0.000000 0.500000
v -0.085000 0.000000 0.600000
v -0.075000 -0.000000 0.000000
v -0.085000 0.000000 0.500000
v -0.067678 -0.017678 0.500000
v -0.074749 -0.024749 0.600000
v -0.067678 -0.017678 0.000000
v -0.074749 -0.024749 0.500000
v -0.050000 -0.025000 0.500000
v -0.050000 -0.035000 0.600000
v -0.050000 -0.025000 0.000000
v -0.050000 -0.035000 0.500000
v -0.032322 -0.017678 0.500000
v -0.025251 -0.024749 0.600000
v -0.032322 -0.017678 0.000000
v -0.025251 -0.024749 0.500000
v -0.025000 0.000000 0.500000
v -0.015000 0.000000 0.600000
v -0.025000 -0.000000 0.000000
v -0.015000 0.000000 0.500000
v -0.032322 0.017678 0.500000
v -0.025251 0.024749 0.600000
v -0.032322 0.017678 0.000000
v -0.025251 0.024749 0.500000
vn -0.3827 0.9239 -0.0000
vn -0.9239 0.3827 -0.0000
vn -0.9239 -0.3827 -0.0000
vn -0.3827 -0.9239 -0.0000
vn 0.3827 -0.9239 -0.0000
vn 0.9239 -0.3827 -0.0000
vn -0.0000 -0.0000 -1.0000
vn 0.9239 0.3827 -0.0000
vn 0.3827 0.9239 -0.0000
vn -0.0000 -0.0000 1.0000
vt 0.734200 0.342011
vt 0.734200 0.000000
vt 0.826748 0.000000
vt 0.826748 0.342011
vt 0.957630 0.000000
vt 0.957630 0.342011
vt 0.510770 0.684023
vt 0.510770 0.342011
vt 0.603318 0.342011
vt 0.603318 0.684023
vt 0.734200 0.342011
vt 0.734200 0.684023
vt 0.826748 0.342011
vt 0.826748 0.684023
vt 0.957630 0.342011
vt 0.957630 0.684023
vt 0.510770 0.776570
vt 0.603318 0.684023
vt 0.734200 0.684023
vt 0.826748 0.776570
vt 0.826748 0.907452
vt 0.734200 1.000000
vt 0.603318 1.000000
vt 0.510770 0.907452
vt 0.510770 0.342011
vt 0.510770 0.000000
vt 0.603318 0.000000
vt 0.603318 0.342011
vt 0.510770 0.129567
vt 0.442368 0.129567
vt 0.442368 0.000000
vt 0.510770 0.000000
vt 0.510770 0.938405
vt 0.442368 0.938405
vt 0.442368 0.755170
vt 0.510770 0.755170
vt 0.510770 0.755170
vt 0.442368 0.755170
vt 0.442368 0.625603
vt 0.510770 0.625603
vt 0.442368 0.442368
vt 0.510770 0.442368
vt 0.895150 0.996824
vt 0.826748 0.996824
vt 0.826748 0.867258
vt 0.895150 0.867258
vt 0.826748 0.684023
vt 0.895150 0.684023
vt 0.286625 0.063195
vt 0.155743 0.063195
vt 0.063195 0.155743
vt 0.063195 0.286625
vt 0.155743 0.379173
vt 0.286625 0.379173
vt 0.312802 0.442368
vt 0.129567 0.442368
vt -0.000000 0.312802
vt -0.000000 0.129567
vt 0.129567 -0.000000
vt 0.312802 -0.000000
vt 0.379173 0.155743
vt 0.442368 0.312802
vt 0.379173 0.286625
vt 0.510770 0.442368
vt 0.442368 0.442368
vt 0.442368 0.312802
vt 0.510770 0.312802
vt 0.442368 0.571935
vt 0.442368 0.755170
vt 0.312802 0.884736
vt 0.129567 0.884736
vt -0.000000 0.755170
vt -0.000000 0.571935
vt 0.129567 0.442368
vt 0.312802 0.442368
s 0
f 93/164/39 95/165/39 99/166/39 97/167/39
f 97/167/40 99/166/40 103/168/40 101/169/40
f 101/170/41 103/171/41 107/172/41 105/173/41
f 105/173/42 107/172/42 111/174/42 109/175/42
f 109/175/43 111/174/43 115/176/43 113/177/43
f 113/177/44 115/176/44 119/178/44 117/179/44
f 111/180/45 107/181/45 103/182/45 99/183/45 95/184/45 123/185/45 119/186/45 115/187/45
f 117/188/46 119/189/46 123/190/46 121/191/46
f 123/190/47 95/165/47 93/164/47 121/191/47
f 94/192/39 96/193/39 100/194/39 98/195/39
f 98/196/40 100/197/40 104/198/40 102/199/40
f 102/200/41 104/201/41 108/202/41 106/203/41
f 106/203/42 108/202/42 112/204/42 110/205/42
f 110/206/43 112/207/43 116/208/43 114/209/43
f 114/209/44 116/208/44 120/210/44 118/211/44
f 113/212/45 117/213/45 121/214/45 93/215/45 97/216/45 101/217/45 104/218/45 100/219/45 96/220/45 124/221/45 120/222/45 116/223/45 112/193/45 109/224/45
f 108/225/45 104/218/45 101/217/45 105/226/45 109/224/45 112/193/45
f 118/227/46 120/228/46 124/229/46 122/230/46
f 122/230/47 124/229/47 96/193/47 94/192/47
f 122/231/48 94/232/48 98/233/48 102/234/48 106/235/48 110/236/48 114/237/48 118/238/48
