# Blender 4.0.1
# www.blender.org
mtllib plasma_cannon.mtl
o plasmaCannon
v 0.000000 0.100000 0.500000
v 0.000000 0.100000 -0.500000
v 0.035000 0.228204 0.469711
v -0.215131 -0.083791 0.469711
v 0.180131 -0.144413 0.469711
v 0.025000 0.120000 -0.300000
v -0.070711 0.070711 0.500000
v -0.070711 0.070711 -0.500000
v 0.035000 0.165000 0.485000
v 0.125394 -0.112811 0.485000
v -0.160394 -0.052189 0.485000
v 0.025000 0.150000 0.100000
v -0.100000 0.000000 0.500000
v -0.025000 0.120000 -0.300000
v -0.180131 -0.144413 0.469711
v 0.215131 -0.083791 0.469711
v -0.100000 -0.000000 -0.500000
v -0.035000 0.228204 0.469711
v -0.070711 -0.070711 0.500000
v -0.025000 0.150000 0.100000
v -0.070711 -0.070711 -0.500000
v 0.160394 -0.052189 0.485000
v -0.125394 -0.112811 0.485000
v -0.035000 0.165000 0.485000
v 0.000000 -0.100000 0.500000
v 0.022050 0.188982 0.541019
v 0.152638 -0.113587 0.541019
v -0.174688 -0.075395 0.541019
v 0.124091 -0.097105 0.516481
v 0.000000 -0.100000 -0.500000
v 0.022050 0.156018 0.516481
v -0.146141 -0.058913 0.516481
v -0.124091 -0.097105 0.516481
v 0.146141 -0.058913 0.516481
v -0.022050 0.156018 0.516481
v 0.070711 -0.070711 0.500000
v 0.174688 -0.075395 0.541019
v -0.022050 0.188982 0.541019
v 0.070711 -0.070711 -0.500000
v -0.152638 -0.113587 0.541019
v 0.100000 0.000000 0.500000
v 0.105483 -0.068539 0.570194
v 0.006615 0.125621 0.570194
v -0.112098 -0.057081 0.570194
v -0.111992 -0.057020 0.564767
v 0.100000 -0.000000 -0.500000
v 0.105377 -0.068478 0.564767
v 0.006615 0.125498 0.564767
v -0.105377 -0.068478 0.564767
v -0.006615 0.125498 0.564767
v 0.070711 0.070711 0.500000
v 0.111992 -0.057020 0.564767
v 0.112098 -0.057082 0.570194
v 0.070711 0.070711 -0.500000
v -0.105483 -0.068539 0.570194
v -0.006615 0.125621 0.570194
v 0.042500 0.171602 0.362355
v -0.169862 -0.048995 0.362355
v 0.127362 -0.122607 0.362355
v 0.042500 0.140000 0.445000
v -0.142494 -0.033194 0.445000
v 0.099994 -0.106806 0.445000
v 0.142494 -0.033194 0.445000
v -0.099994 -0.106806 0.445000
v -0.042500 0.140000 0.445000
v 0.169862 -0.048995 0.362355
v -0.127362 -0.122607 0.362355
v -0.042500 0.171602 0.362355
v -0.044142 0.081716 -0.322971
v 0.000000 0.100000 -0.312000
v 0.000000 0.100000 0.118750
v 0.000000 0.100000 0.312431
v 0.000000 0.100000 0.445000
v -0.049656 0.079432 0.441208
v -0.049656 0.079432 0.298090
v -0.046665 0.080671 0.125999
v -0.044142 0.081716 0.029245
v -0.049480 0.079505 0.445000
v -0.099649 -0.000848 0.303173
v -0.099475 -0.001267 0.445000
v -0.099475 -0.001267 0.322188
v -0.070711 -0.070711 0.310055
v -0.070711 -0.070711 0.445000
v -0.042921 -0.082221 0.297288
v -0.042921 -0.082221 0.442193
v -0.043080 -0.082156 0.445000
v 0.042921 -0.082221 0.297288
v 0.043080 -0.082156 0.302814
v 0.043080 -0.082156 0.445000
v 0.070711 -0.070711 0.310055
v 0.070711 -0.070711 0.445000
v 0.099649 -0.000848 0.434971
v 0.099649 -0.000848 0.303173
v 0.099475 -0.001267 0.445000
v 0.046665 0.080671 -0.272646
v 0.046665 0.080671 0.125999
v 0.044142 0.081716 -0.322971
v 0.049656 0.079432 0.298090
v 0.049480 0.079505 0.305395
v 0.049480 0.079505 0.445000
vn -0.3827 0.9239 -0.0000
vn -0.9239 0.3827 -0.0000
vn -0.9239 -0.3827 -0.0000
vn -0.3827 -0.9239 -0.0000
vn 0.3827 -0.9239 -0.0000
vn 0.9239 -0.3827 -0.0000
vn -0.0000 -0.0000 -1.0000
vn 0.9239 0.3827 -0.0000
vn 0.3827 0.9239 -0.0000
vn -0.0000 -0.0000 1.0000
vn 0.9957 0.0666 0.0645
vn -0.0000 -0.8480 0.5300
vn -0.9957 0.0666 0.0645
vn -0.0000 0.8846 -0.4664
vn 0.9719 -0.0225 0.2343
vn -0.0000 0.4182 0.9083
vn -0.0000 0.8762 0.4819
vn -0.0000 -0.9616 -0.2744
vn -0.9719 -0.0225 0.2343
vn -0.0000 -0.9997 0.0227
vn -0.0000 -0.8453 -0.5343
vn -0.9687 -0.1667 0.1840
vn 0.9687 -0.1667 0.1840
vn -0.0000 0.5719 -0.8203
vn -0.9960 0.0882 0.0127
vn 0.9962 0.0856 0.0127
vn -0.5555 0.8290 0.0645
vn 0.7344 0.4240 0.5300
vn 0.4402 -0.8956 0.0645
vn -0.7661 -0.4423 -0.4664
vn -0.4664 0.8530 0.2343
vn -0.3622 -0.2091 0.9083
vn -0.7588 -0.4381 0.4819
vn 0.8328 0.4808 -0.2744
vn 0.5055 -0.8304 0.2343
vn 0.8658 0.4999 0.0225
vn 0.7321 0.4226 -0.5343
vn 0.6287 -0.7556 0.1840
vn -0.3400 0.9222 0.1840
vn -0.4953 -0.2860 -0.8203
vn 0.4218 -0.9066 0.0125
vn -0.5697 0.8217 0.0141
vn -0.4402 -0.8956 0.0645
vn -0.7344 0.4240 0.5300
vn 0.5555 0.8290 0.0645
vn 0.7661 -0.4423 -0.4664
vn -0.5055 -0.8304 0.2343
vn 0.3622 -0.2091 0.9083
vn 0.7588 -0.4381 0.4819
vn -0.8328 0.4808 -0.2744
vn 0.4664 0.8530 0.2343
vn -0.8658 0.4999 0.0226
vn -0.7321 0.4226 -0.5343
vn 0.3400 0.9222 0.1841
vn -0.6287 -0.7556 0.1840
vn 0.4953 -0.2860 -0.8203
vn 0.5753 0.8178 0.0140
vn -0.4235 -0.9058 0.0125
vn 0.9293 0.3691 -0.0146
vn -0.0000 0.3511 0.9363
vn -0.9401 0.3405 -0.0151
vn -0.0000 0.5145 -0.8575
vn -0.0000 0.9972 -0.0748
vt 0.628607 0.619775
vt 0.654629 0.614955
vt 0.654629 0.753577
vt 0.612945 0.748339
vt 0.612945 0.010988
vt 0.654629 0.016225
vt 0.654629 0.056780
vt 0.625460 0.053115
vt 0.625357 0.055898
vt 0.625357 0.161426
vt 0.654629 0.154530
vt 0.654629 0.297341
vt 0.627120 0.288539
vt 0.628607 0.360068
vt 0.468006 0.039192
vt 0.468006 0.781536
vt 0.411059 0.781607
vt 0.411059 0.039263
vt 0.410325 0.080042
vt 0.370077 0.077331
vt 0.370077 0.036502
vt 0.370077 0.778847
vt 0.370077 0.177507
vt 0.410568 0.185343
vt 0.410325 0.171211
vt 0.198269 0.202030
vt 0.219170 0.189606
vt 0.299685 0.786614
vt 0.243274 0.794284
vt 0.143880 0.057288
vt 0.200290 0.049617
vt 0.205757 0.090152
vt 0.183714 0.093149
vt 0.183866 0.095235
vt 0.124197 0.100343
vt 0.108066 0.101960
vt 0.102599 0.061425
vt 0.201993 0.798422
vt 0.121479 0.201414
vt 0.138971 0.209197
vt 0.138329 0.205134
vt 0.535021 0.160176
vt 0.590969 0.154507
vt 0.590969 0.754605
vt 0.534342 0.755184
vt 0.534342 0.014372
vt 0.590969 0.013793
vt 0.590969 0.054538
vt 0.535357 0.055106
vt 0.535021 0.062539
vt 0.651961 0.913778
vt 0.612945 0.874736
vt 0.612945 0.818078
vt 0.651961 0.776995
vt 0.707138 0.775552
vt 0.746155 0.814595
vt 0.746155 0.871252
vt 0.707139 0.912336
vt 0.489981 0.751800
vt 0.489981 0.010988
vt 0.694458 0.056588
vt 0.711548 0.015951
vt 0.711548 0.753303
vt 0.690161 0.622873
vt 0.692192 0.585756
vt 0.692192 0.291815
vt 0.694600 0.164912
vt 0.694458 0.159526
vt 0.418802 0.803582
vt 0.459040 0.843819
vt 0.459040 0.900766
vt 0.418803 0.941064
vt 0.361898 0.941106
vt 0.321660 0.900869
vt 0.321660 0.843922
vt 0.361897 0.803624
vt 0.818632 0.824232
vt 0.800469 0.736105
vt 0.846700 0.737196
vt 0.855126 0.770851
vt 0.094234 0.913949
vt 0.104666 0.883138
vt 0.153348 0.881598
vt 0.153348 0.912080
vt 0.849404 0.097060
vt 0.854529 0.062083
vt 0.899517 0.055072
vt 0.895304 0.144071
vt 0.489981 0.904235
vt 0.489981 0.830055
vt 0.538072 0.838736
vt 0.548377 0.914777
vt 0.843029 0.692135
vt 0.861341 0.716081
vt 0.292675 0.956165
vt 0.259858 0.956165
vt 0.271344 0.908070
vt 0.281189 0.908070
vt 0.516195 0.777159
vt 0.546492 0.782629
vt 0.110251 0.859800
vt 0.140920 0.858830
vt 0.841929 0.041287
vt 0.855245 0.015732
vt 0.120541 0.824433
vt 0.111340 0.824724
vt 0.111190 0.820688
vt 0.120391 0.820397
vt 0.810943 0.014677
vt 0.809327 0.010988
vt 0.895233 0.683037
vt 0.894349 0.686963
vt 0.837421 0.971413
vt 0.800469 0.989012
vt 0.805794 0.910146
vt 0.869048 0.910146
vt 0.874373 0.989012
vt 0.809327 0.114733
vt 0.855090 0.213732
vt 0.810424 0.117335
vt 0.932444 0.821909
vt 0.917208 0.785088
vt 0.962179 0.790282
vt 0.962179 0.853536
vt 0.917208 0.858730
vt 0.870330 0.882902
vt 0.869039 0.888171
vt 0.895233 0.782524
vt 0.358092 0.143887
vt 0.321660 0.065718
vt 0.358461 0.052324
vt 0.376493 0.081514
vt 0.921492 0.159111
vt 0.921492 0.126323
vt 0.961614 0.131205
vt 0.970212 0.165039
vt 0.216662 0.089884
vt 0.228681 0.058646
vt 0.259849 0.067249
vt 0.239700 0.149461
vt 0.299685 0.060671
vt 0.288072 0.141473
vt 0.338496 0.010988
vt 0.357689 0.028137
vt 0.943370 0.235708
vt 0.976161 0.235708
vt 0.965587 0.282349
vt 0.955750 0.282349
vt 0.241732 0.015132
vt 0.266829 0.010988
vt 0.938233 0.106291
vt 0.963511 0.109367
vt 0.834053 0.332612
vt 0.809327 0.307820
vt 0.811811 0.281739
vt 0.837272 0.274123
vt 0.948208 0.592112
vt 0.944302 0.598677
vt 0.941068 0.596304
vt 0.944974 0.589738
vt 0.733523 0.752469
vt 0.733523 0.720541
vt 0.760950 0.724208
vt 0.760950 0.733787
vt 0.809327 0.239108
vt 0.811484 0.235708
vt 0.957533 0.637922
vt 0.931646 0.637922
vt 0.909200 0.295899
vt 0.921394 0.315783
vt 0.859248 0.297248
vt 0.859248 0.235708
vt 0.915773 0.243025
vt 0.954718 0.029732
vt 0.966710 0.084316
vt 0.926875 0.083175
vt 0.921492 0.020201
vt 0.966710 0.010988
vt 0.063742 0.170729
vt 0.010988 0.097329
vt 0.055442 0.079585
vt 0.078515 0.106582
vt 0.175323 0.912574
vt 0.178411 0.881569
vt 0.229931 0.881569
vt 0.237882 0.912574
vt 0.894138 0.455641
vt 0.903921 0.421768
vt 0.951409 0.420878
vt 0.930792 0.508970
vt 0.010988 0.955373
vt 0.021800 0.878812
vt 0.072258 0.874624
vt 0.072258 0.950288
vt 0.030854 0.040620
vt 0.057270 0.055327
vt 0.175323 0.934549
vt 0.208115 0.934549
vt 0.195734 0.981190
vt 0.185897 0.981190
vt 0.020939 0.823035
vt 0.052727 0.820397
vt 0.189172 0.858672
vt 0.221629 0.858672
vt 0.890275 0.400007
vt 0.909445 0.376233
vt 0.213991 0.824432
vt 0.204253 0.824432
vt 0.204282 0.820397
vt 0.214019 0.820397
vt 0.858094 0.370068
vt 0.857247 0.366154
vt 0.072164 0.012465
vt 0.072792 0.016452
vt 0.929403 0.743228
vt 0.922830 0.690354
vt 0.979355 0.683037
vt 0.979355 0.744577
vt 0.917208 0.763112
vt 0.858996 0.473267
vt 0.857247 0.466035
vt 0.881683 0.567763
vt 0.929200 0.899450
vt 0.917208 0.880705
vt 0.962426 0.889918
vt 0.957043 0.952892
vt 0.917208 0.954033
vt 0.778494 0.661475
vt 0.778276 0.698565
vt 0.754946 0.679494
vt 0.733523 0.382574
vt 0.778494 0.366154
vt 0.871863 0.624464
vt 0.857247 0.589738
vt 0.909670 0.605860
vt 0.909670 0.643068
vt 0.857247 0.659191
vt 0.734631 0.082716
vt 0.733523 0.010988
vt 0.787352 0.030788
vt 0.765323 0.327064
vt 0.733523 0.344179
vt 0.276585 0.853246
vt 0.291876 0.886094
vt 0.259858 0.871850
vt 0.259858 0.834642
vt 0.291876 0.820397
vt 0.800469 0.366154
vt 0.835271 0.368839
vt 0.835271 0.661061
vt 0.800469 0.658376
s 0
f 69/1/1 70/2/1 2/3/1 8/4/1 7/5/1 1/6/1 73/7/1 78/8/1 74/9/1 75/10/1 72/11/1 71/12/1 76/13/1 77/14/1
f 7/15/2 8/16/2 17/17/2 13/18/2
f 80/19/3 83/20/3 19/21/3 13/18/3 17/17/3 21/22/3 82/23/3 79/24/3 81/25/3
f 84/26/4 82/27/4 21/28/4 30/29/4 25/30/4 19/31/4 83/32/4 86/33/4 85/34/4
f 89/35/5 91/36/5 36/37/5 25/30/5 30/29/5 39/38/5 90/39/5 87/40/5 88/41/5
f 93/42/6 90/43/6 39/44/6 46/45/6 41/46/6 36/47/6 91/48/6 94/49/6 92/50/6
f 17/51/7 8/52/7 2/53/7 54/54/7 46/55/7 39/56/7 30/57/7 21/58/7
f 41/46/8 46/45/8 54/59/8 51/60/8
f 100/61/9 73/7/9 1/6/9 51/62/9 54/63/9 2/3/9 70/2/9 97/64/9 95/65/9 96/66/9 71/12/9 72/11/9 98/67/9 99/68/9
f 41/69/10 51/70/10 1/71/10 7/72/10 13/73/10 19/74/10 25/75/10 36/76/10
f 57/77/11 3/78/11 9/79/11 60/80/11
f 60/81/12 9/82/12 24/83/12 65/84/12
f 65/85/13 24/86/13 18/87/13 68/88/13
f 68/89/14 18/90/14 3/91/14 57/92/14
f 9/79/15 3/78/15 26/93/15 31/94/15
f 26/95/16 38/96/16 56/97/16 43/98/16
f 3/91/17 18/90/17 38/99/17 26/100/17
f 24/83/18 9/82/18 31/101/18 35/102/18
f 18/87/19 24/86/19 35/103/19 38/104/19
f 50/105/20 48/106/20 43/107/20 56/108/20
f 35/102/21 31/101/21 48/106/21 50/105/21
f 38/104/22 35/103/22 50/109/22 56/110/22
f 31/94/23 26/93/23 43/111/23 48/112/23
f 72/113/24 75/114/24 68/115/24 57/116/24 98/117/24
f 78/118/25 65/85/25 68/88/25 75/119/25 74/120/25
f 73/121/10 100/122/10 60/123/10 65/124/10 78/125/10
f 99/126/26 98/127/26 57/77/26 60/80/26 100/128/26
f 58/129/27 4/130/27 11/131/27 61/132/27
f 61/133/28 11/134/28 23/135/28 64/136/28
f 64/137/29 23/138/29 15/139/29 67/140/29
f 67/140/30 15/139/30 4/141/30 58/142/30
f 11/131/31 4/130/31 28/143/31 32/144/31
f 28/145/32 40/146/32 55/147/32 44/148/32
f 4/141/33 15/139/33 40/149/33 28/150/33
f 23/135/34 11/134/34 32/151/34 33/152/34
f 15/153/35 23/154/35 33/155/35 40/156/35
f 49/157/36 45/158/36 44/159/36 55/160/36
f 33/161/37 32/162/37 45/163/37 49/164/37
f 40/156/38 33/155/38 49/165/38 55/166/38
f 32/167/39 28/168/39 44/159/39 45/158/39
f 82/169/40 84/170/40 67/171/40 58/172/40 79/173/40
f 85/34/41 86/33/41 64/137/41 67/140/41 84/26/41
f 83/174/10 80/175/10 61/176/10 64/177/10 86/178/10
f 81/25/42 79/24/42 58/129/42 61/132/42 80/19/42
f 59/179/43 5/180/43 10/181/43 62/182/43
f 62/183/44 10/184/44 22/185/44 63/186/44
f 63/187/45 22/188/45 16/189/45 66/190/45
f 66/191/46 16/192/46 5/193/46 59/194/46
f 10/181/47 5/180/47 27/195/47 29/196/47
f 27/197/48 37/198/48 53/199/48 42/200/48
f 5/193/49 16/192/49 37/201/49 27/202/49
f 22/185/50 10/184/50 29/203/50 34/204/50
f 16/189/51 22/188/51 34/205/51 37/206/51
f 52/207/52 47/208/52 42/209/52 53/210/52
f 34/204/53 29/203/53 47/208/53 52/207/53
f 37/206/54 34/205/54 52/211/54 53/212/54
f 29/196/55 27/195/55 42/213/55 47/214/55
f 90/215/56 93/216/56 66/217/56 59/218/56 87/219/56
f 92/220/57 94/221/57 63/187/57 66/190/57 93/222/57
f 91/223/10 89/224/10 62/225/10 63/226/10 94/227/10
f 88/41/58 87/40/58 59/179/58 62/182/58 89/35/58
f 95/228/59 97/229/59 6/230/59 12/231/59 96/232/59
f 71/233/60 96/234/60 12/235/60 20/236/60 76/237/60
f 77/238/61 76/239/61 20/240/61 14/241/61 69/242/61
f 70/243/62 69/244/62 14/245/62 6/246/62 97/247/62
f 20/248/63 12/249/63 6/250/63 14/251/63
