# Blender 4.0.2
# www.blender.org
mtllib pump_shotgun.mtl
o Shotgun
v -0.025000 0.050000 -0.150000
v 0.000000 0.100000 0.585000
v 0.000000 0.160000 0.685000
v -0.025000 0.175000 -0.150000
v -0.025000 0.050000 -0.550000
v 0.021651 0.087500 0.585000
v -0.025000 0.140000 -0.570000
v 0.021651 0.147500 0.685000
v 0.021651 0.062500 0.585000
v 0.025000 0.050000 -0.150000
v 0.000000 0.050000 0.585000
v 0.021651 0.122500 0.685000
v 0.025000 0.175000 -0.150000
v 0.025000 0.050000 -0.550000
v -0.021651 0.062500 0.585000
v 0.000000 0.110000 0.685000
v 0.025000 0.140000 -0.570000
v -0.021651 0.087500 0.585000
v -0.025000 0.050000 -0.350000
v -0.025000 0.175000 -0.440000
v -0.021651 0.122500 0.685000
v 0.025000 0.050000 -0.350000
v 0.025000 0.175000 -0.440000
v -0.021651 0.147500 0.685000
v -0.025000 -0.037725 -0.784761
v -0.025000 -0.067725 -0.674761
v 0.025000 -0.067725 -0.674761
v 0.025000 -0.037725 -0.784761
v 0.025000 0.016138 -0.617381
v 0.025000 0.076138 -0.697381
v -0.025000 0.016138 -0.617381
v -0.025000 0.076138 -0.697381
v 0.003572 0.157937 -0.150000
v 0.000000 0.160000 -0.150000
v -0.015435 0.151088 -0.150000
v 0.021651 0.122500 -0.150000
v 0.021651 0.147500 -0.150000
v -0.021651 0.122500 -0.150000
v -0.021651 0.147500 -0.150000
v -0.021651 0.062500 -0.150000
v -0.021651 0.087500 -0.150000
v 0.020152 0.061635 -0.150000
v 0.021651 0.087500 -0.150000
v 0.021651 0.062500 -0.150000
v 0.000000 0.050000 -0.150000
v 0.012500 0.117217 -0.150000
v 0.012500 0.092783 -0.150000
v -0.012500 0.092783 -0.150000
v -0.012500 0.117217 -0.150000
v 0.000000 0.110000 0.122500
v 0.012500 0.117217 0.122500
v -0.012500 0.117217 0.122500
v 0.000000 0.100000 0.122500
v 0.012500 0.092783 0.122500
v -0.012500 0.092783 0.122500
vn -1.0000 -0.0000 -0.0000
vn 1.0000 -0.0000 -0.0000
vn -0.0000 -0.0000 1.0000
vn -0.0000 -1.0000 -0.0000
vn -0.0000 1.0000 -0.0000
vn -0.0000 0.9656 -0.2600
vn -0.0000 -0.9648 -0.2631
vn -0.0000 -0.5647 0.8253
vn -0.0000 0.6088 -0.7933
vn -0.0000 0.8939 -0.4482
vn -0.0000 -0.8935 0.4490
vn 0.5000 0.8660 -0.0000
vn 0.5000 -0.8660 -0.0000
vn -0.5000 -0.8660 -0.0000
vn -0.5000 0.8660 -0.0000
vt 0.266481 0.810189
vt 0.338882 0.725357
vt 0.499971 0.728767
vt 0.500193 0.783973
vt 0.665564 0.201330
vt 0.587809 0.155787
vt 0.676846 0.114309
vt 0.797523 0.146256
vt 0.266481 0.640525
vt 0.000000 0.687344
vt 0.032769 0.614309
vt 0.815487 0.821434
vt 0.817957 0.823573
vt 0.797523 0.836404
vt 0.797523 0.806464
vt 0.826160 0.812191
vt 0.932254 0.834399
vt 0.933290 0.833501
vt 0.947224 0.836404
vt 0.830457 0.834399
vt 0.860397 0.834399
vt 0.866724 0.828919
vt 0.895986 0.828919
vt 0.902314 0.834399
vt 0.866724 0.813949
vt 0.860397 0.808470
vt 0.830457 0.808470
vt 0.947224 0.806464
vt 0.947224 0.821434
vt 0.932254 0.808470
vt 0.902314 0.808470
vt 0.895986 0.813949
vt 0.315378 0.584369
vt 0.315378 0.554429
vt 0.553961 0.554429
vt 0.553961 0.584369
vt 0.337122 0.584369
vt 0.337122 0.614309
vt 0.000000 0.614309
vt 0.000000 0.584369
vt 0.498321 0.584369
vt 0.498321 0.614309
vt 0.076795 0.584369
vt 0.076795 0.554429
vt 0.500193 0.666740
vt 0.499971 0.721947
vt 0.032769 0.836404
vt 0.000000 0.763369
vt 0.931920 0.306464
vt 0.797523 0.306464
vt 0.797523 0.276524
vt 0.931920 0.276524
vt 0.797523 0.246584
vt 0.897957 0.246584
vt 0.897957 0.276524
vt 0.664785 0.114309
vt 0.664785 0.084369
vt 0.799143 0.084369
vt 0.799143 0.114309
vt 0.587809 0.294926
vt 0.665564 0.249383
vt 0.797523 0.304457
vt 0.676846 0.336404
vt 0.500193 0.283973
vt 0.499971 0.228767
vt 0.498321 0.114309
vt 0.498321 0.084369
vt 0.076795 0.054429
vt 0.076795 0.084369
vt 0.000000 0.084369
vt 0.000000 0.054429
vt 0.499971 0.221947
vt 0.500193 0.166740
vt 0.971272 0.929027
vt 0.970678 0.931167
vt 0.000000 0.931166
vt 0.003599 0.918202
vt 0.974277 0.918202
vt 1.000000 1.000000
vt 0.000000 1.000000
vt 0.000000 0.985030
vt 1.000000 0.985030
vt 0.000559 0.949610
vt 0.000000 0.944131
vt 0.996085 0.944131
vt 0.997408 0.957095
vt 0.326393 0.957095
vt 0.325629 0.949610
vt 0.996085 0.970060
vt 0.000000 0.970060
vt 0.000559 0.964580
vt 0.325629 0.964580
vt 0.857403 0.712392
vt 0.842433 0.725357
vt 0.812493 0.725357
vt 0.797523 0.712392
vt 0.812493 0.699428
vt 0.842433 0.699428
vt 1.000000 0.970060
vt 0.973244 0.940409
vt 0.974277 0.944131
vt 0.003599 0.944131
vt 0.537651 0.849369
vt 0.000000 0.849369
vt 0.003599 0.836404
vt 0.858028 0.836404
vt 0.856507 0.841884
vt 0.539729 0.841884
vt 0.880240 0.918202
vt 0.000000 0.918202
vt 0.000000 0.903232
vt 0.880240 0.903232
vt -0.000000 0.862333
vt 0.876793 0.862333
vt 0.878117 0.875297
vt 0.001323 0.875297
vt 0.000092 0.863230
vt 0.876793 0.888262
vt -0.000000 0.888262
vt 0.842433 0.673499
vt 0.857403 0.686463
vt 0.797523 0.686463
vt 0.812493 0.673499
vt 0.880240 0.888262
vt 0.858028 0.862333
vt 0.003599 0.862333
vt 0.539729 0.856854
vt 0.856507 0.856854
vt 0.553961 0.569738
vt 0.880308 0.569738
vt 0.880308 0.584369
vt 0.880308 0.555107
vt 0.553961 0.555107
vt 0.827463 0.725357
vt 0.827463 0.739988
vt 0.812493 0.735666
vt 0.797523 0.739988
vt 0.797523 0.725357
vt 0.812493 0.729678
s 0
f 19/1/1 20/2/1 7/3/1 5/4/1
f 30/5/2 29/6/2 27/7/2 28/8/2
f 22/9/2 23/2/2 13/10/2 10/11/2
f 34/12/3 33/13/3 13/14/3 4/15/3 35/16/3
f 44/17/3 42/18/3 10/19/3 13/14/3 33/13/3 37/20/3 36/21/3 46/22/3 47/23/3 43/24/3
f 49/25/3 38/26/3 39/27/3 35/16/3 4/15/3 1/28/3 10/19/3 42/18/3 45/29/3 40/30/3 41/31/3 48/32/3
f 19/33/4 22/34/4 10/35/4 1/36/4
f 23/37/5 20/38/5 4/39/5 13/40/5
f 17/41/6 7/42/6 20/38/6 23/37/6
f 5/43/4 14/44/4 22/34/4 19/33/4
f 14/45/2 17/46/2 23/2/2 22/9/2
f 1/47/1 4/48/1 20/2/1 19/1/1
f 26/49/7 25/50/7 28/51/7 27/52/7
f 29/51/8 31/53/8 26/54/8 27/55/8
f 32/56/9 30/57/9 28/58/9 25/59/9
f 31/60/1 32/61/1 25/62/1 26/63/1
f 5/64/1 7/65/1 32/61/1 31/60/1
f 7/66/10 17/67/10 30/57/10 32/56/10
f 14/68/11 5/69/11 31/70/11 29/71/11
f 17/72/2 14/73/2 29/6/2 30/5/2
f 33/74/12 34/75/12 3/76/12 8/77/12 37/78/12
f 37/79/2 8/80/2 12/81/2 36/82/2
f 46/83/13 36/84/13 12/85/13 16/86/13 50/87/13 51/88/13
f 50/87/14 16/86/14 21/89/14 38/90/14 49/91/14 52/92/14
f 12/93/3 8/94/3 3/95/3 24/96/3 21/97/3 16/98/3
f 38/90/1 21/99/1 24/82/1 39/81/1
f 35/100/15 39/101/15 24/102/15 3/76/15 34/75/15
f 53/103/12 2/104/12 6/105/12 43/106/12 47/107/12 54/108/12
f 43/109/2 6/110/2 9/111/2 44/112/2
f 44/113/13 9/114/13 11/115/13 45/116/13 42/117/13
f 11/115/14 15/118/14 40/119/14 45/116/14
f 11/120/3 9/121/3 6/98/3 2/97/3 18/122/3 15/123/3
f 40/119/1 15/124/1 18/112/1 41/111/1
f 41/125/15 18/126/15 2/104/15 53/103/15 55/127/15 48/128/15
f 48/129/1 55/130/1 52/131/1 49/36/1
f 47/132/2 46/130/2 51/129/2 54/133/2
f 54/134/3 51/135/3 50/136/3 52/137/3 55/138/3 53/139/3
