# Blender 3.6.4
# www.blender.org
mtllib bullet.mtl
o Cylinder
v 0.000000 -0.075000 0.000000
v 0.000000 0.150000 0.000000
v 0.000000 -0.075000 -0.037500
v 0.000000 0.075000 -0.037500
v 0.032476 -0.075000 -0.018750
v 0.032476 0.075000 -0.018750
v 0.032476 -0.075000 0.018750
v 0.032476 0.075000 0.018750
v 0.000000 -0.075000 0.037500
v 0.000000 0.075000 0.037500
v -0.032476 -0.075000 0.018750
v -0.032476 0.075000 0.018750
v -0.032476 -0.075000 -0.018750
v -0.032476 0.075000 -0.018750
vn -0.0000 -1.0000 -0.0000
vn 0.4588 0.3974 -0.7947
vn 0.5000 -0.0000 -0.8660
vn 0.9177 0.3974 -0.0000
vn 1.0000 -0.0000 -0.0000
vn 0.4588 0.3974 0.7947
vn 0.5000 -0.0000 0.8660
vn -0.4588 0.3974 0.7947
vn -0.5000 -0.0000 0.8660
vn -0.9177 0.3974 -0.0000
vn -1.0000 -0.0000 -0.0000
vn -0.4588 0.3974 -0.7947
vn -0.5000 -0.0000 -0.8660
vt 0.750000 0.250000
vt 0.750000 0.490000
vt 0.957846 0.370000
vt 0.250000 0.250000
vt 0.457846 0.370000
vt 0.250000 0.490000
vt 1.000000 0.500000
vt 1.000000 1.000000
vt 0.833333 1.000000
vt 0.833333 0.500000
vt 0.957846 0.130000
vt 0.457846 0.130000
vt 0.666667 1.000000
vt 0.666667 0.500000
vt 0.750000 0.010000
vt 0.250000 0.010000
vt 0.500000 1.000000
vt 0.500000 0.500000
vt 0.542154 0.130000
vt 0.042154 0.130000
vt 0.333333 1.000000
vt 0.333333 0.500000
vt 0.542154 0.370000
vt 0.042154 0.370000
vt 0.166667 1.000000
vt 0.166667 0.500000
vt -0.000000 1.000000
vt -0.000000 0.500000
s 0
f 1/1/1 3/2/1 5/3/1
f 2/4/2 6/5/2 4/6/2
f 3/7/3 4/8/3 6/9/3 5/10/3
f 1/1/1 5/3/1 7/11/1
f 2/4/4 8/12/4 6/5/4
f 5/10/5 6/9/5 8/13/5 7/14/5
f 1/1/1 7/11/1 9/15/1
f 2/4/6 10/16/6 8/12/6
f 7/14/7 8/13/7 10/17/7 9/18/7
f 1/1/1 9/15/1 11/19/1
f 2/4/8 12/20/8 10/16/8
f 9/18/9 10/17/9 12/21/9 11/22/9
f 1/1/1 11/19/1 13/23/1
f 2/4/10 14/24/10 12/20/10
f 11/22/11 12/21/11 14/25/11 13/26/11
f 1/1/1 13/23/1 3/2/1
f 2/4/12 4/6/12 14/24/12
f 13/26/13 14/25/13 4/27/13 3/28/13
