# Blender 4.0.2
# www.blender.org
mtllib hitscan_bullet.mtl
o Cylinder
v 0.000000 0.062500 -1.000000
v 0.000000 0.062500 0.000000
v 0.054127 0.031250 -1.000000
v 0.054127 0.031250 0.000000
v 0.054127 -0.031250 -1.000000
v 0.054127 -0.031250 0.000000
v 0.000000 -0.062500 -1.000000
v 0.000000 -0.062500 0.000000
v -0.054127 -0.031250 -1.000000
v -0.054127 -0.031250 0.000000
v -0.054127 0.031250 -1.000000
v -0.054127 0.031250 0.000000
vn 0.5000 0.8660 -0.0000
vn 1.0000 -0.0000 -0.0000
vn 0.5000 -0.8660 -0.0000
vn -0.5000 -0.8660 -0.0000
vn -0.0000 -0.0000 1.0000
vn -1.0000 -0.0000 -0.0000
vn -0.5000 0.8660 -0.0000
vt 1.000000 0.125000
vt 1.000000 0.500000
vt 0.833333 0.500000
vt 0.833333 0.125000
vt 0.666667 0.500000
vt 0.666667 0.125000
vt 0.500000 0.500000
vt 0.500000 0.125000
vt 0.333333 0.500000
vt 0.333333 0.125000
vt 0.457846 0.870000
vt 0.250000 0.990000
vt 0.042154 0.870000
vt 0.042154 0.630000
vt 0.250000 0.510000
vt 0.457846 0.630000
vt 0.166667 0.500000
vt 0.166667 0.125000
vt -0.000000 0.500000
vt -0.000000 0.125000
s 0
f 1/1/1 2/2/1 4/3/1 3/4/1
f 3/4/2 4/3/2 6/5/2 5/6/2
f 5/6/3 6/5/3 8/7/3 7/8/3
f 7/8/4 8/7/4 10/9/4 9/10/4
f 4/11/5 2/12/5 12/13/5 10/14/5 8/15/5 6/16/5
f 9/10/6 10/9/6 12/17/6 11/18/6
f 11/18/7 12/17/7 2/19/7 1/20/7
