# Blender 4.0.1
# www.blender.org
mtllib nail.mtl
o Nail
v 0.000000 0.025000 0.125000
v 0.000000 0.025000 0.025000
v 0.000000 0.050000 0.000000
v 0.021651 -0.012500 0.125000
v 0.043301 -0.025000 -0.000000
v -0.021651 -0.012500 0.125000
v 0.021651 -0.012500 0.025000
v -0.043301 -0.025000 -0.000000
v 0.000000 -0.000000 0.225000
v -0.021651 -0.012500 0.025000
vn 0.8593 0.4961 0.1240
vn -0.0000 -0.9923 0.1240
vn -0.8593 0.4961 0.1240
vn 0.8660 0.5000 -0.0000
vn -0.0000 -1.0000 -0.0000
vn -0.8660 0.5000 -0.0000
vn 0.7746 0.4472 0.4472
vn -0.0000 -0.0000 -1.0000
vn -0.0000 -0.8944 0.4472
vn -0.7746 0.4472 0.4472
vt 0.250000 0.250000
vt 0.457846 0.130000
vt 0.250000 0.490000
vt 0.042154 0.130000
vt 1.000000 0.500000
vt 1.000000 1.000000
vt 0.666667 1.000000
vt 0.666667 0.500000
vt 0.333333 1.000000
vt 0.333333 0.500000
vt -0.000000 1.000000
vt -0.000000 0.500000
vt 0.250000 0.370000
vt 0.353923 0.190000
vt 0.750000 0.490000
vt 0.957846 0.130000
vt 0.542154 0.130000
vt 0.146077 0.190000
s 0
f 9/1/1 4/2/1 1/3/1
f 9/1/2 6/4/2 4/2/2
f 9/1/3 1/3/3 6/4/3
f 2/5/4 1/6/4 4/7/4 7/8/4
f 7/8/5 4/7/5 6/9/5 10/10/5
f 10/10/6 6/9/6 1/11/6 2/12/6
f 5/2/7 3/3/7 2/13/7 7/14/7
f 3/15/8 5/16/8 8/17/8
f 5/2/9 7/14/9 10/18/9 8/4/9
f 8/4/10 10/18/10 2/13/10 3/3/10
