# Blender 4.1.1
# www.blender.org
mtllib bed.mtl
o Bedframe
v 0.750000 0.625000 -1.500000
v 0.425000 -0.500000 1.425000
v -0.675000 -0.500000 1.425000
v 0.425000 -0.500000 -1.175000
v -0.675000 -0.500000 -1.175000
v 0.750000 0.375000 -1.500000
v 0.425000 -0.500000 1.175000
v 0.750000 0.625000 1.500000
v -0.675000 -0.500000 1.175000
v 0.425000 -0.500000 -1.425000
v -0.675000 -0.500000 -1.425000
v 0.750000 0.375000 1.500000
v -0.750000 0.625000 -1.500000
v -0.425000 -0.500000 -1.175000
v 0.675000 -0.500000 -1.175000
v -0.425000 -0.500000 1.425000
v 0.675000 -0.500000 1.425000
v -0.750000 0.375000 -1.500000
v -0.750000 0.625000 1.500000
v -0.425000 -0.500000 -1.425000
v 0.675000 -0.500000 -1.425000
v -0.425000 -0.500000 1.175000
v 0.675000 -0.500000 1.175000
v -0.750000 0.375000 1.500000
v -0.675000 0.375000 -1.425000
v -0.425000 0.375000 -1.175000
v 0.425000 0.375000 -1.175000
v -0.425000 0.375000 -1.425000
v 0.675000 0.375000 -1.175000
v 0.675000 0.375000 1.175000
v 0.675000 0.375000 -1.425000
v 0.425000 0.375000 -1.425000
v -0.675000 0.375000 1.425000
v -0.675000 0.375000 1.175000
v -0.675000 0.375000 -1.175000
v -0.425000 0.375000 1.425000
v 0.425000 0.375000 1.425000
v -0.425000 0.375000 1.175000
v 0.425000 0.375000 1.175000
v 0.675000 0.375000 1.425000
v 0.750000 0.625000 0.000000
v -0.750000 0.625000 0.000000
v 0.750000 0.375000 0.000000
v -0.750000 0.375000 0.000000
v 0.000000 0.625000 -1.500000
v 0.000000 0.375000 -1.500000
v 0.000000 0.625000 1.500000
v 0.000000 0.375000 1.500000
v 0.000000 0.625000 0.000000
vn -0.0000 1.0000 -0.0000
vn -0.0000 -0.0000 1.0000
vn -1.0000 -0.0000 -0.0000
vn -0.0000 -1.0000 -0.0000
vn 1.0000 -0.0000 -0.0000
vn -0.0000 -0.0000 -1.0000
vt 0.187500 0.375000
vt 0.000000 0.375000
vt 0.000000 0.000000
vt 0.187500 0.000000
vt 0.937500 0.187500
vt 0.875000 0.187500
vt 0.875000 -0.000000
vt 0.937500 -0.000000
vt 0.812500 0.375000
vt 0.750000 0.375000
vt 0.750000 -0.000000
vt 0.812500 0.000000
vt 0.750000 0.750000
vt 0.562500 0.750000
vt 0.375000 0.750000
vt 0.393750 0.731250
vt 0.456250 0.731250
vt 0.668750 0.731250
vt 0.731250 0.731250
vt 0.375000 0.375000
vt 0.375000 0.000000
vt 0.393750 0.018750
vt 0.393750 0.081250
vt 0.456250 0.081250
vt 0.668750 0.081250
vt 0.731250 0.081250
vt 0.731250 0.018750
vt 0.750000 0.000000
vt 0.750000 0.375000
vt 0.562500 0.000000
vt 0.668750 0.018750
vt 0.456250 0.018750
vt 0.875000 0.375000
vt 0.812500 0.375000
vt 0.812500 0.000000
vt 0.875000 0.000000
vt 0.937500 0.562500
vt 0.875000 0.562500
vt 0.875000 0.375000
vt 0.937500 0.375000
vt 0.062500 0.968750
vt 0.000000 0.968750
vt 0.000000 0.750000
vt 0.062500 0.750000
vt 0.562500 0.968750
vt 0.500000 0.968750
vt 0.500000 0.750000
vt 0.562500 0.750000
vt 0.125000 0.750000
vt 0.125000 0.968750
vt 0.062500 0.968750
vt 0.062500 0.750000
vt 0.625000 0.750000
vt 0.625000 0.968750
vt 0.562500 0.968750
vt 1.000000 0.406250
vt 0.937500 0.406250
vt 0.937500 0.343750
vt 1.000000 0.343750
vt 0.187500 0.968750
vt 0.125000 0.968750
vt 0.125000 0.750000
vt 0.187500 0.750000
vt 0.687500 0.968750
vt 0.687500 0.750000
vt 0.250000 0.750000
vt 0.250000 0.968750
vt 0.187500 0.968750
vt 0.187500 0.750000
vt 0.750000 0.750000
vt 0.750000 0.968750
vt 0.687500 0.750000
vt 1.000000 0.218750
vt 1.000000 0.281250
vt 0.937500 0.281250
vt 0.937500 0.218750
vt 0.312500 0.968750
vt 0.312500 0.750000
vt 0.812500 0.968750
vt 0.812500 0.750000
vt 0.375000 0.750000
vt 0.375000 0.968750
vt 0.312500 0.968750
vt 0.312500 0.750000
vt 0.875000 0.750000
vt 0.875000 0.968750
vt 0.812500 0.968750
vt 0.812500 0.750000
vt 1.000000 0.281250
vt 1.000000 0.343750
vt 0.937500 0.343750
vt 0.937500 0.281250
vt 0.437500 0.968750
vt 0.375000 0.968750
vt 0.375000 0.750000
vt 0.437500 0.750000
vt 0.937500 0.968750
vt 0.875000 0.968750
vt 0.875000 0.750000
vt 0.937500 0.750000
vt 0.500000 0.750000
vt 0.437500 0.968750
vt 0.437500 0.750000
vt 1.000000 0.000000
vt 1.000000 0.218750
vt 0.937500 0.218750
vt 0.937500 0.000000
vt 1.000000 0.468750
vt 0.937500 0.468750
vt 0.937500 0.406250
vt 1.000000 0.406250
vt 0.731250 0.668750
vt 0.668750 0.668750
vt 0.456250 0.668750
vt 0.393750 0.668750
vt 0.812500 0.750000
vt 0.750000 0.750000
vt 0.187500 0.750000
vt -0.000000 0.750000
vt 0.375000 0.750000
vt 0.375000 0.375000
vt 0.937500 0.750000
vt 0.937500 0.375000
vt 0.875000 0.375000
vt 0.375000 0.000000
s 0
usemtl Material
f 49/1/1 42/2/1 19/3/1 47/4/1
f 48/5/2 47/6/2 19/7/2 24/8/2
f 44/9/3 42/10/3 13/11/3 18/12/3
f 18/13/4 46/14/4 6/15/4 31/16/4 32/17/4 28/18/4 25/19/4
f 43/20/4 12/21/4 40/22/4 30/23/4 39/24/4 38/25/4 34/26/4 33/27/4 24/28/4 44/29/4
f 40/22/4 12/21/4 48/30/4 24/28/4 33/27/4 36/31/4 38/25/4 39/24/4 37/32/4
f 43/33/5 41/34/5 8/35/5 12/36/5
f 46/37/6 45/38/6 1/39/6 6/40/6
f 11/41/3 5/42/3 35/43/3 25/44/3
f 20/45/6 11/46/6 25/47/6 28/48/6
f 26/49/5 14/50/5 20/51/5 28/52/5
f 35/53/2 5/54/2 14/55/2 26/48/2
f 11/56/4 20/57/4 14/58/4 5/59/4
f 10/60/3 4/61/3 27/62/3 32/63/3
f 21/64/6 10/54/6 32/53/6 31/65/6
f 29/66/5 15/67/5 21/68/5 31/69/5
f 27/70/2 4/71/2 15/64/2 29/72/2
f 10/73/4 21/74/4 15/75/4 4/76/4
f 9/77/3 3/67/3 33/66/3 34/78/3
f 22/79/6 9/71/6 34/70/6 38/80/6
f 36/81/5 16/82/5 22/83/5 38/84/5
f 33/85/2 3/86/2 16/87/2 36/88/2
f 9/89/4 22/90/4 16/91/4 3/92/4
f 7/93/3 2/94/3 37/95/3 39/96/3
f 23/97/6 7/98/6 39/99/6 30/100/6
f 40/101/5 17/46/5 23/102/5 30/103/5
f 37/104/2 2/105/2 17/106/2 40/107/2
f 7/108/4 23/109/4 17/110/4 2/111/4
f 6/85/5 1/88/5 41/34/5 43/33/5
f 6/15/4 43/20/4 44/29/4 18/13/4 25/19/4 35/112/4 26/113/4 28/18/4 32/17/4 27/114/4 29/115/4 31/16/4
f 24/116/3 19/117/3 42/10/3 44/9/3
f 45/118/1 13/119/1 42/2/1 49/1/1
f 1/120/1 45/118/1 49/1/1 41/121/1
f 18/122/6 13/99/6 45/38/6 46/37/6
f 12/123/2 8/124/2 47/6/2 48/5/2
f 41/121/1 49/1/1 47/4/1 8/125/1
o Pillow
v -0.450000 0.754706 -0.700000
v -0.450000 0.804706 -1.300000
v 0.450000 0.754706 -0.700000
v 0.450000 0.804706 -1.300000
v -0.550000 0.579706 -0.600000
v -0.550000 0.804706 -1.000000
v -0.550000 0.579706 -1.400000
v 0.000000 0.804706 -1.400000
v 0.550000 0.579706 -1.400000
v 0.550000 0.804706 -1.000000
v 0.550000 0.579706 -0.600000
v 0.000000 0.704706 -0.600000
v 0.000000 0.854706 -1.100000
v 0.000000 0.579706 -0.500000
v 0.650000 0.579706 -1.000000
v 0.000000 0.579706 -1.480000
v -0.650000 0.579706 -1.000000
vn -0.8270 0.4901 -0.2757
vn 0.1917 0.4685 -0.8624
vn 0.7192 0.6056 0.3407
vn -0.1238 0.5447 0.8294
vn -0.0561 0.9816 0.1823
vn -0.0425 0.9570 0.2871
vn 0.0365 0.9857 -0.1643
vn -0.0963 0.9948 -0.0321
vn 0.1238 0.5447 0.8294
vn 0.8270 0.4901 -0.2757
vn -0.1917 0.4685 -0.8624
vn -0.7192 0.6056 0.3407
vn 0.0963 0.9948 -0.0321
vn 0.0561 0.9816 0.1823
vn 0.0425 0.9570 0.2871
vn -0.0365 0.9857 -0.1643
vn 0.8909 0.3959 0.2227
vn 0.1406 0.6185 0.7731
vn -0.1406 0.6185 0.7731
vn -0.8909 0.3959 0.2227
vn -0.8909 0.3959 -0.2227
vn -0.1358 0.3319 -0.9335
vn 0.1358 0.3319 -0.9335
vn 0.8909 0.3959 -0.2227
vt 0.763774 0.246324
vt 0.750622 0.051417
vt 0.909841 -0.000000
vt 0.600730 0.346272
vt 0.575102 0.062959
vt 0.730119 -0.000000
vt 0.905129 0.746324
vt 0.918280 0.927234
vt 0.796757 1.000000
vt 0.068275 0.346272
vt 0.133269 0.629586
vt 0.062806 0.692544
vt 0.388870 0.346272
vt 0.323876 0.692544
vt 0.133269 0.062959
vt 0.512295 0.062959
vt 0.575102 0.346272
vt 0.512295 0.629586
vt 0.062806 -0.000000
vt 0.759062 0.500000
vt 0.918280 0.551417
vt 0.730119 0.692544
vt 0.575102 0.629586
vt 0.872146 0.500000
vt 0.750622 0.427234
vt 0.323876 -0.000000
vt 0.750622 0.757407
vt -0.000000 0.346272
vt 0.918280 0.257407
vt 0.750622 0.346272
s 0
f 55/126/7 51/127/7 56/128/7
f 57/129/8 53/130/8 58/131/8
f 59/132/9 52/133/9 60/134/9
f 61/135/10 50/136/10 54/137/10
f 62/138/11 55/139/11 50/136/11
f 62/138/12 61/135/12 52/140/12
f 53/141/13 57/142/13 62/138/13
f 51/143/14 55/139/14 62/138/14
f 60/144/15 52/140/15 61/135/15
f 58/145/16 53/146/16 59/132/16
f 56/147/17 51/148/17 57/129/17
f 54/149/18 50/150/18 55/126/18
f 59/151/19 53/141/19 62/138/19
f 59/151/20 62/138/20 52/140/20
f 61/135/21 62/138/21 50/136/21
f 57/142/22 51/143/22 62/138/22
f 64/152/23 59/132/23 60/134/23
f 63/153/24 60/144/24 61/135/24
f 63/153/25 61/135/25 54/137/25
f 66/154/26 54/149/26 55/126/26
f 66/154/27 55/126/27 56/128/27
f 65/155/28 56/147/28 57/129/28
f 65/155/29 57/129/29 58/131/29
f 64/152/30 58/145/30 59/132/30
o Blanket
v 0.712500 0.595000 -0.600000
v 0.712500 0.595000 1.250000
v -0.000000 0.795000 1.350000
v -0.712500 0.595000 -0.600000
v -0.000000 0.595000 -0.700000
v -0.712500 0.595000 1.250000
v 0.475000 0.595000 -0.700000
v -0.475000 0.595000 -0.700000
v 0.475000 0.745000 1.240000
v -0.475000 0.745000 1.240000
v -0.475000 0.595000 1.450000
v 0.475000 0.595000 1.450000
v -0.475000 0.745000 -0.600000
v 0.475000 0.745000 -0.600000
v 0.000000 0.595000 1.490000
v 0.000000 0.795000 -0.600000
vn 0.1047 0.9945 -0.0000
vn -0.4396 0.7309 0.5221
vn 0.2151 0.7947 0.5676
vn -0.0000 -1.0000 -0.0000
vn 0.3306 0.5235 -0.7853
vn -0.3306 0.5235 -0.7853
vn 0.0261 0.4960 -0.8679
vn 0.4396 0.7309 0.5221
vn -0.2151 0.7947 0.5676
vn -0.1047 0.9945 -0.0000
vn 0.5340 0.8455 -0.0000
vn -0.5340 0.8455 -0.0000
vn -0.0261 0.4960 -0.8679
vn -0.0688 0.5721 0.8173
vn 0.0688 0.5721 0.8173
vt 0.907564 0.739727
vt 0.739074 0.739727
vt 0.739075 0.049551
vt 0.907564 0.088484
vt 0.586966 0.014157
vt 0.577137 0.088484
vt 0.504359 0.084945
vt 0.917393 0.014157
vt 0.084060 0.775120
vt 0.000000 0.739727
vt 0.000000 0.084945
vt 0.084060 0.014157
vt 0.917393 0.775120
vt 1.000000 0.739727
vt 0.504359 0.739727
vt 0.577137 0.739727
vt 0.586966 0.775120
vt 0.752180 0.775120
vt 0.420299 0.775120
vt 0.420299 0.014157
vt 0.252180 0.775120
vt 0.252180 0.000000
vt 1.000000 0.084945
vt 0.752180 0.000000
s 0
usemtl Material.001
f 80/156/31 82/157/31 69/158/31 75/159/31
f 77/160/32 76/161/32 72/162/32
f 78/163/33 75/159/33 69/158/33
f 73/164/34 67/165/34 68/166/34 78/167/34
f 73/168/35 80/156/35 67/169/35
f 70/170/36 79/171/36 74/172/36
f 71/173/37 82/157/37 80/156/37 73/168/37
f 70/170/34 74/174/34 77/175/34 72/162/34
f 71/176/34 73/164/34 78/167/34 81/177/34
f 68/178/38 75/159/38 78/163/38
f 69/158/39 76/161/39 77/160/39
f 82/157/40 79/171/40 76/161/40 69/158/40
f 67/169/41 80/156/41 75/159/41 68/178/41
f 72/162/42 76/161/42 79/171/42 70/170/42
f 74/174/34 71/176/34 81/177/34 77/175/34
f 74/172/43 79/171/43 82/157/43 71/173/43
f 81/179/44 69/158/44 77/160/44
f 81/179/45 78/163/45 69/158/45
