# Blender 4.0.2
# www.blender.org
mtllib table.mtl
o Cube
v 0.000000 0.600000 0.000000
v 0.000000 0.750000 0.000000
v 0.000000 0.600000 -1.500000
v 0.000000 0.750000 -1.500000
v 1.000000 0.600000 0.000000
v 1.000000 0.750000 0.000000
v 1.000000 0.600000 -1.500000
v 1.000000 0.750000 -1.500000
v 0.741366 -0.500000 -1.247446
v 0.741366 0.600000 -1.247446
v 0.741366 -0.500000 -1.397445
v 0.741366 0.600000 -1.397445
v 0.891366 -0.500000 -1.247446
v 0.891366 0.600000 -1.247446
v 0.891366 -0.500000 -1.397445
v 0.891366 0.600000 -1.397445
v -1.000000 0.600000 0.000000
v -1.000000 0.750000 0.000000
v -1.000000 0.600000 -1.500000
v -1.000000 0.750000 -1.500000
v -0.741366 -0.500000 -1.247446
v -0.741366 0.600000 -1.247446
v -0.741366 -0.500000 -1.397445
v -0.741366 0.600000 -1.397445
v -0.891366 -0.500000 -1.247446
v -0.891366 0.600000 -1.247446
v -0.891366 -0.500000 -1.397445
v -0.891366 0.600000 -1.397445
v 0.000000 0.600000 1.500000
v 0.000000 0.750000 1.500000
v 1.000000 0.600000 1.500000
v 1.000000 0.750000 1.500000
v 0.741366 -0.500000 1.247446
v 0.741366 0.600000 1.247446
v 0.741366 -0.500000 1.397445
v 0.741366 0.600000 1.397445
v 0.891366 -0.500000 1.247446
v 0.891366 0.600000 1.247446
v 0.891366 -0.500000 1.397445
v 0.891366 0.600000 1.397445
v -1.000000 0.600000 1.500000
v -1.000000 0.750000 1.500000
v -0.741366 -0.500000 1.247446
v -0.741366 0.600000 1.247446
v -0.741366 -0.500000 1.397445
v -0.741366 0.600000 1.397445
v -0.891366 -0.500000 1.247446
v -0.891366 0.600000 1.247446
v -0.891366 -0.500000 1.397445
v -0.891366 0.600000 1.397445
vn -1.0000 -0.0000 -0.0000
vn -0.0000 -0.0000 -1.0000
vn 1.0000 -0.0000 -0.0000
vn -0.0000 -1.0000 -0.0000
vn -0.0000 1.0000 -0.0000
vn -0.0000 -0.0000 1.0000
vt 0.279070 0.906977
vt 0.279070 0.697675
vt 0.313954 0.697675
vt 0.313954 0.906977
vt 1.000000 0.232558
vt 0.976744 0.232558
vt 0.976744 0.000000
vt 1.000000 0.000000
vt 0.953488 0.697675
vt 0.930233 0.697675
vt 0.930233 0.348837
vt 0.953488 0.348837
vt 0.000000 0.906977
vt 0.000000 0.697675
vt 0.034884 0.697675
vt 0.034884 0.906977
vt 0.232558 0.697675
vt 0.000000 0.697675
vt 0.000000 0.348837
vt 0.232558 0.348837
vt 0.930233 0.697675
vt 0.697675 0.697675
vt 0.697675 0.348837
vt 0.348837 0.697675
vt 0.348837 0.906977
vt 0.034884 0.906977
vt 0.034884 0.697675
vt 0.069767 0.697675
vt 0.069767 0.906977
vt 0.593023 0.697675
vt 0.593023 0.732558
vt 0.558139 0.732558
vt 0.558139 0.697675
vt 0.383721 0.906977
vt 0.383721 0.697675
vt 1.000000 0.465116
vt 0.976744 0.465116
vt 0.976744 0.000000
vt 0.976744 0.348837
vt 0.953488 0.000000
vt 0.104651 0.906977
vt 0.069767 0.906977
vt 0.069767 0.697675
vt 0.104651 0.697675
vt 0.465116 0.348837
vt 0.465116 0.697675
vt 0.418605 0.906977
vt 0.418605 0.697675
vt 0.139535 0.906977
vt 0.139535 0.697675
vt 0.627907 0.732558
vt 0.593023 0.732558
vt 0.593023 0.697675
vt 0.627907 0.697675
vt 0.453488 0.906977
vt 0.453488 0.697675
vt 1.000000 0.697675
vt 1.000000 0.930233
vt 0.976744 0.930233
vt 0.976744 0.697675
vt 0.953488 0.000000
vt 0.930233 0.000000
vt 0.174419 0.906977
vt 0.174419 0.697675
vt 0.232558 0.000000
vt 0.000000 0.000000
vt 0.930233 0.000000
vt 0.697675 0.000000
vt 0.488372 0.906977
vt 0.453488 0.906977
vt 0.453488 0.697675
vt 0.488372 0.697675
vt 0.209302 0.906977
vt 0.209302 0.697675
vt 0.627907 0.697675
vt 0.662790 0.697675
vt 0.662790 0.732558
vt 0.627907 0.732558
vt 0.488372 0.906977
vt 0.488372 0.697675
vt 0.523256 0.697675
vt 0.523256 0.906977
vt 0.976744 0.697675
vt 0.209302 0.906977
vt 0.209302 0.697675
vt 0.244186 0.697675
vt 0.244186 0.906977
vt 0.465116 0.000000
vt 0.523256 0.906977
vt 0.523256 0.697675
vt 0.558139 0.906977
vt 0.244186 0.906977
vt 0.244186 0.697675
vt 0.279070 0.697675
vt 0.279070 0.906977
vt 0.662790 0.732558
vt 0.662790 0.697674
vt 0.697674 0.697674
vt 0.697674 0.732558
s 0
f 9/1/1 10/2/1 12/3/1 11/4/1
f 3/5/2 4/6/2 8/7/2 7/8/2
f 7/9/3 8/10/3 6/11/3 5/12/3
f 11/13/2 12/14/2 16/15/2 15/16/2
f 3/17/4 7/18/4 5/19/4 1/20/4
f 8/21/5 4/22/5 2/23/5 6/11/5
f 15/4/3 16/3/3 14/24/3 13/25/3
f 13/26/6 14/27/6 10/28/6 9/29/6
f 11/30/4 15/31/4 13/32/4 9/33/4
f 21/34/3 23/25/3 24/24/3 22/35/3
f 3/5/2 19/36/2 20/37/2 4/6/2
f 19/38/1 17/39/1 18/12/1 20/40/1
f 23/41/2 27/42/2 28/43/2 24/44/2
f 3/17/4 1/20/4 17/45/4 19/46/4
f 20/46/5 18/45/5 2/23/5 4/22/5
f 27/47/1 25/34/1 26/35/1 28/48/1
f 25/49/6 21/41/6 22/44/6 26/50/6
f 23/51/4 21/52/4 25/53/4 27/54/4
f 33/55/1 35/47/1 36/48/1 34/56/1
f 29/57/6 31/58/6 32/59/6 30/60/6
f 31/61/3 5/12/3 6/11/3 32/62/3
f 35/63/6 39/49/6 40/50/6 36/64/6
f 29/65/4 1/20/4 5/19/4 31/66/4
f 32/67/5 6/11/5 2/23/5 30/68/5
f 39/69/3 37/70/3 38/71/3 40/72/3
f 37/73/2 33/63/2 34/64/2 38/74/2
f 35/75/4 33/76/4 37/77/4 39/78/4
f 43/79/3 44/80/3 46/81/3 45/82/3
f 29/57/6 30/60/6 42/37/6 41/36/6
f 41/83/1 42/9/1 18/12/1 17/39/1
f 45/84/6 46/85/6 50/86/6 49/87/6
f 29/65/4 41/88/4 17/45/4 1/20/4
f 42/88/5 30/68/5 2/23/5 18/45/5
f 49/89/1 50/90/1 48/33/1 47/91/1
f 47/92/2 48/93/2 44/94/2 43/95/2
f 45/96/4 49/97/4 47/98/4 43/99/4
